<?xml version="1.0" encoding="utf-8"?>
<!-- Generator: Adobe Illustrator 25.2.1, SVG Export Plug-In . SVG Version: 6.00 Build 0)  -->
<svg version="1.1" id="Camada_1" xmlns="http://www.w3.org/2000/svg" xmlns:xlink="http://www.w3.org/1999/xlink" x="0px" y="0px"
	 viewBox="0 0 655 291" style="enable-background:new 0 0 655 291;" xml:space="preserve">
<g>
	<g>
		<path d="M13.7,223.5c0.2-0.9,0.6-1.3,0.9-1.8c0.4-0.5,0.6-0.5,0.9-0.5c0.4,0,0.7-0.1,1.1,0.8c0.2,0.4,0.4,1.3,0.7,1.7
			c0.2,0.4,0.6,0.8,0.9,1.1c0.2,0.3,0.6,0.6,0.9,1.3c0.2,0.3,0.6,0.7,0.7,1c0.4,0.3,0.7,0.6,0.9,1c0.4,0.4,0.7,0.6,1.1,1
			c0.2,0,0.6,0.3,0.9,0.6c0.4,0.3,0.7,0.3,0.9,0.6c0.4,0.4,0.7,0.6,1.1,1c0.4,0,0.7,0.3,0.9,0.3c0.4,0.3,0.7,0.7,1.1,0.6
			c0.4,0.3,0.7,0.3,1.1,0.6c0.4,0,0.6-0.1,0.9-0.1c0.4,0.3,0.7-0.1,1.1,0.3c0.4,0,0.7,0.3,1.1,0.3c0.4,0,0.7-0.1,1.1-0.1
			c0.4,0,0.7-0.1,1.1-0.1c0.4,0,0.7-0.1,1.1-0.1c0.4,0,0.7-0.1,1.1-0.5c0.4,0,0.6-0.1,0.9-0.1c0.4,0,0.7-0.4,1.1-0.5
			c0.4-0.4,0.7-0.4,1.1-0.8c0.4,0,0.7-0.4,1.1-0.5c0.4-0.4,0.6-0.8,0.9-0.8c0.4-0.4,0.7-0.8,0.9-1.2c0.4-0.4,0.7-0.8,0.9-1.2
			c0.4-0.5,0.7-0.7,1.1-1.1c0.2-0.4,0.6-0.7,0.7-1.1c0.4-0.7,0.7-1.1,0.9-1.5c0.3-0.5,0.6-1.1,0.7-1.4c0.2-0.7,0.6-1.6,0.7-2
			c0.3-0.6,0.4-1.3,0.6-2.2c0.2-0.9,0.4-1.3,0.6-2.2c0.2-0.9,0.4-1.3,0.6-2.2c0.2-0.9,0.4-1.3,0.6-2.2c0-0.9,0.2-1.7,0.2-2.6
			c0.2-0.9,0.4-1.7,0.4-2.2c0.2-0.9,0.2-1.7,0.2-2.6c0.2-0.9,0.2-1.7,0.2-2.6c0-0.8,0.2-1.7,0.2-2.6c0.2-0.9,0-1.7,0-2.5
			c0-1,0-1.5,0-2.5c0-0.8-0.2-1.7-0.2-2.5c0-1,0-1.5,0-2.5c-0.2-0.8-0.4-1.2-0.5-2.1c0-0.8,0-1.7-0.2-2.5c-0.2-0.8-0.4-1.6-0.5-2.1
			c-0.2-0.8-0.2-1.7-0.4-2.5c-0.4-0.8-0.5-1.2-0.7-2c-0.2-0.4-0.5-1.3-0.7-1.6c-0.3-0.5-0.4-1.6-0.5-2.1c-0.2-0.8-0.4-1.5-0.7-2
			c-0.2-0.4-0.6-0.8-0.9-1.6c-0.2-0.4-0.4-1.1-0.7-1.6c-0.2-0.4-0.6-0.8-0.9-1.6c-0.2-0.4-0.6-0.8-0.9-1.2c-0.2-0.4-0.4-1.1-0.7-1.6
			c-0.2-0.4-0.7-0.8-0.9-1.2c-0.4-0.4-0.6-1.2-0.9-1.6c-0.2-0.4-0.6-1.2-0.9-1.6c-0.2-0.4-0.6-0.8-0.9-1.2c-0.2-0.4-0.6-0.8-0.9-1.2
			c-0.3-0.7-0.4-1-0.7-1.6c-0.4-0.5-0.7-0.7-1.1-1.2c-0.2-0.4-0.6-0.8-0.9-1.2c-0.2-0.4-0.6-0.8-0.9-1.2c-0.2-0.4-0.6-0.8-0.9-1.7
			c-0.2-0.4-0.4-1.1-0.7-1.7c-0.2-0.4-0.6-0.7-0.9-1.2c-0.2-0.4-0.7-0.8-0.9-1.2c-0.4-0.4-0.6-1.3-0.9-1.7c-0.2-0.4-0.6-0.8-0.9-1.3
			c-0.2-0.4-0.4-1.5-0.7-2.1c-0.2-0.4-0.6-0.8-0.9-1.3c-0.2-0.4-0.6-0.8-0.9-1.7c-0.2-0.4-0.6-1.3-0.7-1.7c-0.3-0.6-0.6-1.3-0.7-1.7
			c-0.2-0.9-0.5-1.5-0.7-2.1c-0.2-0.4-0.7-0.9-0.9-1.3c-0.2-0.9-0.6-1.8-0.7-2.1c-0.3-0.6-0.4-1.7-0.6-2.1c-0.2-0.9-0.6-1.3-0.7-2.1
			c-0.2-0.4-0.4-1.3-0.6-1.7c-0.4-0.9-0.6-1.7-0.7-2.2c-0.2-0.9-0.4-1.7-0.6-2.2c-0.2-1-0.3-1.6-0.6-2.6c-0.2-0.9-0.4-1.3-0.6-2.2
			c-0.2-0.4-0.4-1.3-0.4-2.2c-0.2-1-0.3-1.6-0.6-2.6c0-0.9-0.4-1.3-0.4-2.2c-0.2-0.9-0.2-1.7-0.4-2.6c0-0.9-0.2-1.7-0.4-2.6
			c0-0.9-0.2-1.7-0.2-2.2c-0.2-0.9-0.4-1.7-0.4-2.6c-0.2-0.9-0.2-1.7-0.2-2.6c0-0.9-0.4-1.8-0.4-2.6c0-1,0-1.6,0-2.6
			c0-0.9-0.2-1.7-0.2-2.6c-0.2-0.9-0.2-1.7-0.2-2.6s0.2-1.7,0-2.6c0-1,0-1.6,0-2.6c0-1,0-1.6,0-2.6s0-1.6,0-2.6s0-1.6,0-2.6
			c0-0.9,0.2-1.7,0.2-2.6s0-1.7,0.2-2.1c0-0.9-0.2-2.2,0-2.6c0-0.9,0.2-1.7,0.2-2.6c0.2-0.8,0-1.7,0.2-2.6c0-0.9,0.2-1.7,0.2-2.6
			c0.2-0.8,0.4-1.7,0.4-2.5c0.2-0.4,0.2-1.3,0.4-2.1c0-0.9,0.2-1.7,0.4-2.5c0.2-0.8,0.2-1.7,0.4-2.5c0.2-0.4,0.2-1.3,0.4-2.1
			c0.2-0.8,0.6-1.2,0.6-2.1c0.2-1,0.3-1.5,0.6-2.5c0.2-0.4,0.6-1.3,0.8-1.6c0.3-0.5,0.4-1.2,0.6-2.1c0.2-0.8,0.4-1.2,0.6-2.1
			c0.4-0.8,0.5-1.5,0.8-2c0.2-0.3,0.6-0.8,1-1.6c0.3-0.6,0.5-1,0.8-1.6c0.2-0.4,0.5-1.1,0.8-1.6c0.2-0.3,0.8-0.7,1-1.1
			c0.4-0.4,0.6-1.2,1-1.6c0.4-0.4,0.6-1.2,0.8-1.6c0.5-0.4,0.7-0.7,1.1-1.1c0.2-0.4,0.6-0.3,1-0.7c0.4-0.4,0.8-0.7,1-1.1
			c0.4-0.4,0.8-0.3,1.1-0.7c0.4-0.4,0.8-0.7,1-0.7c0.4-0.4,0.8-0.3,1.1-0.7c0.4,0.1,0.8-0.7,1.1-0.7c0.4-0.4,0.8,0.1,1.1-0.3
			c0.4,0.1,0.8-0.3,1.1-0.7c0.2,0,0.6,0.1,1-0.3c0.5,0.1,0.7,0.1,1.1,0.2c0.4-0.4,0.8-0.3,1.1-0.3c0.5,0.1,0.7,0.1,1.1,0.2
			c0.4,0.1,0.8-0.3,1.1-0.3c0.5,0.1,0.7,0.1,1.1,0.2c0.5,0.1,0.7,0.1,1.1,0.2c0.4,0.1,0.8-0.3,1.1-0.3c0.4,0.5,0.8,0.5,1.1,0.6
			c0.4,0.1,0.8,0.5,1.1,0.6c0.4,0.1,0.6,0.1,0.9,0.1c0.5,0.1,0.7,0.1,1.1,0.2c0.4,0.1,0.8,0.5,1.1,1c0.5,0.1,0.7,0.1,1.1,0.2
			c0.4,0.1,0.8,0.5,1.1,0.6c0.4,0.5,0.8,0.5,0.9,0.6c0.4,0.1,0.7,0.5,1.1,0.6c0.4,0.1,0.7,0.5,1.1,0.6s0.7,0.5,1.1,0.6
			s0.8,0.1,1.1,0.6c0.4,0.1,0.8-0.3,1.1,0.2c0.4,0.1,0.6,0.1,0.9,0.1c0.5,0.1,0.7,0.1,1.1,0.2c0.4,0.1,0.8-0.3,1.1-0.3
			c0.4-0.4,0.8-0.3,0.9-0.7c0.4-0.4,0.8-0.3,0.9-0.7c0.4,0.1,0.7,0.1,0.9,0.5c0.4,0.5,0.7,0.5,0.9,1.4c0.2,0.4,0,1.2,0,2.1
			c0.2,1.3,0.2,1.3,0.2,2.5c0,1,0,1.5,0,2.5c0.2,1.3,0.2,1.3,0.2,2.5c0,1.2,0,1.2,0.2,2.5c0,1,0,1.5,0,2.5c0,1,0,1.5,0,2.5
			c0,1.2,0.2,1.2,0.2,2.5c0,1.2,0,1.2,0.2,2.5c0,1,0,1.5,0,2.4c0,1,0,1.5,0,2.4c0,1.2,0.2,1.2,0.2,2.5c0,1.2-0.2,1.2-0.2,2.4
			c0.2,1.2,0.2,1.2,0.2,2.4c0,1.2,0.2,1.2,0.2,2.4c0,1.2,0,0.8,0.2,2c0,1,0,1.4,0,2.4s0,1.4,0,2.4c0,0.8,0,2-0.2,2.4
			c-0.2,0.8-0.6,1.2-0.8,1.6c-0.4,0.4-0.7,0.4-1.1,0.3c-0.4,0-0.6-0.3-0.9-0.9c-0.2-0.4-0.6-1.3-0.7-1.7c-0.4-0.8-0.7-1.3-0.9-1.7
			c-0.4-0.4-0.6-1.3-0.9-1.7c-0.4-0.4-0.7-0.9-0.9-1.3c-0.4-0.4-0.7-0.9-0.9-1.3c-0.4-0.5-0.7-0.8-1.1-1.3c-0.2-0.4-0.6-0.5-0.9-0.9
			c-0.4-0.4-0.7-0.9-0.9-1.3c-0.4-0.4-0.7-0.5-1.1-0.9s-0.7-0.5-1.1-0.9c-0.4,0-0.7-0.5-1.1-0.9c-0.4,0-0.6-0.5-0.9-0.5
			c-0.4,0-0.7-0.5-1.1-0.5c-0.4-0.5-0.7-0.5-1.1-0.5c-0.4-0.5-0.7-0.9-1.1-0.9c-0.5,0-0.7-0.1-1.1-0.1s-0.7-0.1-1.1-0.1
			c-0.4,0-0.8-0.1-1.1,0.3c-0.5,0-0.7-0.1-1.1-0.1c-0.4,0.4-0.8,0.3-1.1,0.7c-0.4,0-0.8-0.1-1.1,0.3c-0.4,0.4-0.6,0.8-0.9,1.1
			c-0.4,0.4-0.7,0.6-0.9,1.1c-0.2,0.3-0.8,0.3-1.1,1.1c-0.2,0.4-0.6,0.8-0.8,1.6c-0.2,0.4-0.4,1.2-0.8,2c-0.2,0.4-0.4,1.2-0.6,2
			c-0.2,0.8-0.2,1.2-0.4,2.1c-0.2,0.8-0.4,1.6-0.4,2.5c-0.2,0.8-0.4,1.7-0.4,2.5c0,1,0,1.5,0,2.5c0,0.8-0.2,1.7-0.2,2.5
			c0,1,0,1.5,0,2.5c0,0.8-0.2,1.7-0.2,2.5c0.2,0.9,0.4,1.7,0.4,2.6c0,0.8,0,1.7,0.2,2.1c0,0.8,0.2,1.7,0.4,2.5
			c0.2,0.9,0.2,1.7,0.4,2.5c0.2,0.9,0.4,1.3,0.6,2.1c0.2,0.8,0.4,1.7,0.6,2.1c0.2,0.8,0.4,1.3,0.7,2.1c0.2,0.4,0.6,1.3,0.7,1.7
			c0.3,0.6,0.3,1.5,0.6,2.1c0.2,0.4,0.5,1.5,0.7,2.1c0.2,0.4,0.6,0.9,0.9,1.7c0.2,0.4,0.6,0.9,0.7,1.3c0.4,0.8,0.5,1.5,0.7,2.1
			c0.2,0.4,0.7,0.9,0.9,1.3c0.4,0.8,0.6,1.3,0.9,1.7c0.2,0.4,0.6,0.8,0.9,1.3c0.4,0.4,0.6,1.3,0.7,1.7c0.4,0.8,0.7,1.3,0.9,1.7
			c0.4,0.4,0.7,0.8,0.9,1.3c0.4,0.8,0.6,1.2,0.9,1.7c0.2,0.4,0.7,0.8,0.9,1.2c0.4,0.4,0.6,1.2,0.9,1.7c0.2,0.4,0.7,0.9,0.9,1.2
			c0.3,0.6,0.7,0.9,0.9,1.2c0.3,0.6,0.6,1.2,0.7,1.6c0.4,0.8,0.6,1.2,0.9,1.6c0.2,0.4,0.6,1.2,0.9,1.6c0.2,0.4,0.5,1.1,0.7,1.6
			c0.2,0.4,0.7,0.8,0.9,1.2c0.4,0.4,0.6,1.2,0.9,1.6c0.3,0.6,0.4,1,0.7,1.6c0.4,0.4,0.6,0.8,0.9,1.6c0.2,0.4,0.5,1.1,0.7,1.6
			c0.2,0.4,0.5,1.2,0.9,1.6c0.2,0.4,0.3,1.5,0.5,2c0.2,0.4,0.7,0.8,0.9,1.6c0.3,0.6,0.4,1,0.7,1.6c0.2,0.8,0.4,1.2,0.7,2
			c0.2,0.4,0.4,1.2,0.5,2c0.3,0.6,0.4,1,0.7,1.6c0.2,0.8,0.4,1.6,0.5,2c0.2,0.8,0.4,1.6,0.5,2c0.2,0.8,0.5,1.2,0.7,2
			c0.2,0.8,0.4,1.6,0.5,2c0.2,0.8,0.2,1.6,0.4,2.4c0.2,0.8,0.4,1.6,0.5,2c0.2,1,0.3,1.4,0.5,2.4c0,0.4,0.2,1.2,0.4,2
			c0.2,0.8,0.2,1.6,0.4,2.4c0.2,0.8,0.2,1.6,0.4,2c0,0.8,0.2,1.6,0.4,2.4c0,1,0,1.5,0,2.4c0.2,0.8,0.2,1.6,0.4,2.4
			c0,0.8,0.2,1.6,0.2,2.4c0,0.8,0,1.6,0.2,2.4c0,1,0,1.5,0,2.5c0.2,0.8,0.2,1.6,0.2,2.5c0.2,0.8,0,1.7,0.2,2.5
			c0,0.8-0.2,1.7-0.2,2.5c0,0.8,0.2,1.6,0.2,2.5c0,0.8-0.2,1.7-0.2,2.5c0,1,0,1.5,0,2.5c0,1,0,1.5,0,2.5c0,1,0,1.5,0,2.5
			c-0.2,0.9-0.2,1.7-0.2,2.6c-0.2,0.4-0.2,1.3-0.2,2.1c0,0.9-0.2,1.7-0.2,2.6c-0.2,0.9-0.4,1.7-0.4,2.6c-0.2,0.9-0.2,1.7-0.4,2.6
			c0,0.9,0,1.8-0.2,2.4c0,0.7-0.4,1-0.4,1.7c-0.2,0.7-0.4,1.4-0.4,2.1c-0.2,0.7-0.2,1.4-0.4,2.1c-0.2,0.4-0.4,1.1-0.6,1.8
			c-0.2,0.7-0.2,1.4-0.4,1.8c-0.2,0.9-0.3,1.3-0.6,2.2c-0.2,0.4-0.4,1.1-0.6,1.9c-0.2,0.4-0.4,1.2-0.6,1.9c-0.2,0.8-0.6,1.2-0.8,2
			c-0.2,0.8-0.4,1.2-0.6,2c-0.2,0.8-0.6,1.2-0.7,1.7c-0.2,0.8-0.4,1.6-0.6,2.1c-0.4,0.9-0.7,1.3-0.9,1.7c-0.3,0.6-0.6,1.3-0.8,2.2
			c-0.3,0.7-0.4,1.1-0.7,1.8c-0.4,0.5-0.6,1.3-0.7,1.8c-0.4,0.9-0.6,1.2-0.9,1.8c-0.2,0.4-0.6,1.4-0.9,1.9c-0.2,0.5-0.6,1-0.9,1.5
			c-0.2,0.5-0.6,1-0.9,1.5c-0.2,0.5-0.6,1.4-0.9,2c-0.2,0.5-0.6,1-0.9,1.5c-0.4,0.5-0.7,0.6-0.9,1.1c-0.4,0.6-0.7,0.9-1.1,1.6
			c-0.4,0.5-0.6,1-0.9,1.6c-0.4,0-0.7,0.1-1.1,0.6c-0.4,0.5-0.6,1-0.9,1.6c-0.4,0-0.7,0.6-1.1,1.1c-0.4,0-0.7,0.1-1.1,0.6
			c-0.4,0-0.7,0.6-1.1,1.1c-0.4,0.1-0.7,0.1-1.1,0.1c-0.4,0-0.6,0.6-0.9,1.1c-0.5,0.1-0.8,0.1-1.3,0.2c-0.2,0-0.6,0.6-0.9,0.6
			c-0.4,0.1-0.7,0.1-1.1,0.2c-0.4,0.1-0.7,0.1-1.1,0.2s-0.7,0.1-1.1,0.2c-0.4,0.1-0.7,0.6-1.1,0.7c-0.4,0.1-0.7,0.1-1.1-0.4
			c-0.4,0.1-0.7,0.1-1.1-0.4c-0.4,0.1-0.7,0.1-1.1,0.2c-0.4,0.1-0.7,0.1-1.1,0.2c-0.4,0.1-0.7-0.4-1.1-0.4c-0.4-0.5-0.7,0.1-1.1,0.2
			c-0.4-0.5-0.7-0.9-1.1-0.9c-0.4,0.1-0.7,0.1-1.1,0.2c-0.4,0.1-0.7-0.4-1.1-0.4c-0.4,0.1-0.7,0.1-1.1-0.4c-0.4,0.1-0.7,0.1-1.1,0.2
			c-0.4,0.1-0.7,0.1-1.1,0.2c-0.4,0.1-0.7,0.1-1.1,0.2s-0.7,0.1-1.1,0.2c-0.4,0.1-0.7,0.6-1.1,0.7c-0.4,0.6-0.7,0.1-1.1,0.7
			c-0.4,0.1-0.7,0.6-1.1,0.7c-0.4,0.6-0.7,0.6-1.1,0.7c-0.4,0.1-0.5,0.1-0.9-0.4c-0.4,0.1-0.7-0.5-0.9-1.4c-0.1-0.5-0.4-1.5-0.4-2.5
			c0-1.2,0-1.8,0-3c0-1.2,0-1.8,0-3c0-1.5-0.2-1.4-0.2-2.9c-0.2-1.4,0-1.4,0-2.8c-0.2-1.4-0.2-1.4-0.2-2.8c0-1.4-0.2-1.4-0.2-2.7
			c0-1.3,0-1.3-0.2-2.6c0-1.3,0.2-1.3,0-2.6c0-1,0-1.5,0-2.5c-0.2-1.2-0.2-1.2-0.2-2.5s-0.2-1.2-0.2-2.4c0-1,0-1.4,0-2.4
			c-0.2-1.2,0-1.2-0.2-2.3c0-0.9,0-1.4,0-2.3c-0.2-1.1,0-1.1-0.2-2.2c0-0.9,0-1.3,0-2.2c-0.1-0.9-0.2-1.3-0.4-2.1c0-0.9,0-1.3,0-2.1
			C13.5,224.8,13.5,224,13.7,223.5z"/>
		<path d="M117.9,28.8c0.4,0,0.7,0.1,1.1,0.1c0.4,0,0.7,0.1,1.1,0.1c0.4,0,0.7,0.1,1.1,0.1c0.4,0,0.5,0.1,0.9,0.1
			c0.4,0,0.7,0.5,1.1,0.5s0.7-0.3,1.1-0.3c0.4,0,0.7,0.1,1.1,0.1c0.4,0,0.7,0.1,1.1-0.3c0.4,0,0.7-0.3,1.1-0.3
			c0.4,0,0.7,0.1,1.1,0.1c0.4-0.4,0.7-0.7,1.1-0.7c0.4-0.4,0.7-0.3,1.1-0.3c0.4,0.4,0.7,0.9,0.9,1.3c0.4,0.4,0.7,0.9,0.9,1.3
			c0.2,0.8,0.4,1.6,0.3,2.4c0.2,0.8,0.2,1.6,0.2,2.4c0.2,0.8,0.2,1.6,0.3,2.4c0,0.8,0.2,1.6,0.2,2.4c0,0.8,0.2,1.6,0.2,2.4
			c0.2,0.8,0.4,1.6,0.3,2.4c0,0.8,0.2,1.6,0.2,2.3c0.2,0.8,0.2,1.2,0.4,1.9c0,0.8,0,1.5,0.2,2.3c0,0.8,0.2,1.5,0.2,2.3
			c0.2,0.8,0.2,1.5,0.3,2.3c0,0.8,0,1.5,0.2,2.3c0,0.8,0,1.5,0.2,2.3c0,0.7,0.2,1.5,0.2,2.3c0.2,0.8,0.2,1.5,0.3,2.3
			c0,0.7,0.2,1.5,0.2,2.2c0,0.7,0.2,1.5,0.2,2.2c0.2,0.7,0.2,1.1,0,1.8c-0.2,0.4-0.2,1.1-0.6,1.4c-0.2,0.4-0.6,0.3-0.9,0.3
			s-0.7-0.4-0.9-0.8c-0.4-0.5-0.7-0.7-1.1-1.2c-0.2-0.4-0.5-0.4-0.9-0.8c-0.4-0.4-0.7-0.4-1.1-0.8c-0.4,0-0.5-0.4-0.9-0.8
			c-0.4,0-0.7,0-1.1-0.4c-0.4,0-0.7-0.4-1.1-0.4c-0.4,0-0.7-0.4-1.1-0.4c-0.4,0-0.7,0-1.1-0.4c-0.4,0-0.7,0-1.1-0.1
			c-0.4,0-0.7,0-1.1-0.1c-0.4,0-0.7,0-1.1-0.1c-0.4,0-0.7,0-1.1-0.5c-0.4,0-0.7,0-1.1-0.1c-0.4,0-0.7,0-1.1-0.1
			c-0.6,0-0.6,0.3-1.1,0.3c-0.6,0-0.5-0.4-1.1-0.5c-0.4,0-0.9-0.1-1.1,0.3c-0.4,0.4-0.7,1.1-0.9,1.4c-0.2,0.4-0.4,1.1-0.6,1.8
			c-0.2,0.7-0.2,1.1-0.2,1.9c0,1.1-0.2,1.1-0.2,2.3c0,1,0,1.4,0,2.4c0,0.9,0,1.4,0,2.4c0,1.2,0.2,1.2,0.2,2.4c0,0.9,0,1.4,0,2.3
			c0,1.2-0.2,1.2-0.2,2.3c0,1.2,0.2,1.2,0.2,2.3c0,1.2-0.2,1.1-0.2,2.3c0,0.9,0,1.4,0,2.3c0,1.1,0.2,1.2,0.2,2.3
			c0,1.1-0.2,1.1-0.2,2.3c0,1.1,0.2,1.1,0.2,2.3c0,0.9,0,1.4,0,2.3c0,0.9,0,1.4,0,2.3c0,0.9,0,1.4,0,2.3c0,0.9,0,1.4,0,2.3
			c0,1.1-0.2,1.1-0.2,2.2c0,0.9,0,1.3,0,2.2c0,0.9,0,1.3,0,2.2c0,0.9,0,1.3,0,2.2c0,1.1,0.2,1.1,0.2,2.2c0,0.9,0,1.3,0,2.2
			c0,0.9,0,1.3,0,2.2c0,0.9,0,1.3,0,2.2s0,1.3,0,2.2c0,1.1-0.2,1.1-0.2,2.2c0,0.9,0,1.3,0,2.2c0,1.1,0.2,1.1,0.2,2.2
			c0,1.1-0.2,1.1-0.2,2.2c0,1.1,0.2,1.1,0.2,2.2c0,0.9,0,1.3,0,2.2c0,0.9,0,1.3,0,2.2c0,1.1-0.2,1.1-0.2,2.3c0,1.1,0.2,1.1,0.2,2.3
			c0,1.1-0.2,1.1-0.2,2.3c0,1.1,0.2,1.1,0.2,2.3c0,0.9,0,1.4,0,2.3c0,0.9,0,1.4,0,2.3c0,1.1-0.2,1.1-0.2,2.3c0,1.1,0.2,1.1,0.2,2.3
			c0,0.9,0,1.4,0,2.3c0,0.9,0,1.4,0,2.3c0,1.2-0.2,1.2-0.2,2.3c0,1.2,0.2,1.2,0.2,2.3c0,1.2-0.2,1.2-0.2,2.4c0,0.9,0,1.4,0,2.4
			c0,0.9,0,1.4,0,2.4c0,0.9,0,1.4,0,2.4c0,1,0,1.4,0,2.4c0,1.2,0.2,1.2,0.2,2.4c0,1,0,1.4,0,2.4c0,1.2-0.2,1.2-0.2,2.4
			c0,1.2,0.2,1.2,0.2,2.4c0,1,0,1.5,0,2.5c0,1,0,1.5,0,2.5c0,1.2-0.2,1.3-0.2,2.5c0,1,0,1.5,0,2.5c0,0.8,0.2,0.8,0.2,2.1
			c0,1.3-0.2,1.3-0.2,2.6c0,1.3,0.2,1.3,0.2,2.6c0,1,0,1.5,0,2.6c0,1.3-0.2,1.3-0.2,2.6c0,1.3,0.2,1.3,0.2,2.3c0,1-0.2,1-0.2,2
			c0,1,0.2,1,0.2,2c0,0.8,0,1.2,0,2c0,1-0.2,1-0.2,2.1c0,1,0,1.5,0,2.4c0,0.7,0.2,1.4,0.2,2.1c0,0.9,0,1.3,0,2.2c0,0.9,0,1.3,0,2.2
			c0,0.7,0.2,1.5,0.2,2.3c0,1.1,0,1.6,0,2.7c0,0.8,0.2,1.6,0.2,2.3c0.2,0.8,0.4,1.6,0.4,2.4c0.2,0.8,0.2,1.6,0.4,2.4
			c0,0.8,0,1.7,0.2,2.5c0.2,0.8,0.4,1.2,0.5,2.1c0.2,0.8,0.4,1.7,0.5,2.1c0.2,0.9,0.4,1.7,0.4,2.6c0,0.4-0.2,1.4-0.2,2.3
			c-0.2,0.5-0.4,1.4-0.8,1.9c-0.2,0.5-0.6,0.5-0.9,0.6c-0.4,0-0.7,0.1-1.1,0.1c-0.4,0-0.7,0.1-1.1,0.1s-0.7,0.1-1.1,0.1
			c-0.4,0-0.7,0.1-1.1,0.1c-0.4,0-0.7,0.1-1.1,0.1c-0.4,0-0.7,0.1-1.1,0.1c-0.4,0-0.7,0.1-1.1,0.1c-0.4,0-0.7,0.1-1.1,0.1
			c-0.4,0-0.7,0.1-1.1,0.1c-0.4,0-0.7,0.1-1.1,0.1c-0.4,0-0.7,0.1-1.1,0.1c-0.4,0-0.7,0.1-1.1,0.1c-0.4,0-0.7,0.1-1.1,0.1
			c-0.4,0-0.7,0.1-1.1,0.1c-0.4,0-0.7,0.1-1.1,0.1c-0.4,0-0.7,0.1-1.1,0.1c-0.4,0-0.7,0.1-1.1,0.1c-0.4,0-0.7,0.1-1.1,0.1
			c-0.4,0-0.7,0.1-1.1,0.1c-0.4,0-0.7,0.1-1.1,0.1c-0.4,0-0.7,0.1-1.1,0.1c-0.4,0-0.6,0.1-0.9-0.4c-0.2-0.4-0.4-1.4-0.5-1.8
			c-0.2-0.9-0.2-1.8-0.2-2.3c0-0.9,0-1.8,0.2-2.3c0.2-1.1,0.3-1.6,0.6-2.7c0.2-0.9,0.4-1.4,0.6-2.2c0-0.9,0.2-1.7,0.4-2.6
			c0-0.8,0-1.7,0.2-2.5c0-0.8,0.4-1.7,0.4-2.5c0-1,0-1.5,0-2.4c0.2-0.8,0.2-1.6,0.2-2.8c0.2-0.8,0.2-1.6,0.2-2.3
			c0-0.8,0.2-1.5,0.2-2.3c0-0.7-0.2-1.5-0.2-2.2s0.2-1.5,0.2-2.2c0-0.7-0.2-1.4-0.2-2.5c0-1.1,0.2-1.1,0.2-2.1c0-0.8,0-1.2,0-2
			c0-0.8,0-1.2,0-2c0-1-0.2-1-0.2-2c0-1,0.2-1,0.2-2.3c0-0.9,0-1.3,0-2.2c0-1,0-1.6,0-2.6c0-1,0-1.5,0-2.6c0-1.3-0.2-1.3-0.2-2.5
			c0-1,0-1.5,0-2.5c0-1.3,0.2-1.3,0.2-2.5c0-1.3-0.2-1.2-0.2-2.5c0-1,0-1.5,0-2.5c0-1.2,0.2-1.3,0.2-2.5c0-1,0-1.5,0-2.5
			c0-1.2-0.2-1.2-0.2-2.4c0-1.2,0.2-1.2,0.2-2.5c0-1.2-0.2-1.2-0.2-2.4c0-1.2,0.2-1.2,0.2-2.4c0-1,0-1.5,0-2.4
			c0-1.2-0.2-1.2-0.2-2.4c0-1.2,0.2-1.2,0.2-2.4c0-1.2-0.2-1.2-0.2-2.4c0-1.2,0.2-1.2,0.2-2.4c0-1.2-0.2-1.2-0.2-2.4
			c0-0.9,0-1.4,0-2.4c0-1.2,0.2-1.2,0.2-2.4c0-0.9,0-1.4,0-2.3c0-1.2-0.2-1.2-0.2-2.3c0-1.2,0.2-1.2,0.2-2.3c0-0.9,0-1.4,0-2.3
			c0-0.9,0-1.4,0-2.3c0-1.2-0.2-1.2-0.2-2.3c0-1.2,0.2-1.2,0.2-2.3c0-1.2-0.2-1.2-0.2-2.3c0-0.9,0-1.4,0-2.3c0-0.9,0-1.4,0-2.3
			c0-0.9,0-1.4,0-2.3c0-0.9,0-1.4,0-2.3c0-0.9,0-1.4,0-2.3s0-1.4,0-2.3c0-1.1,0.2-1.1,0.2-2.3c0-0.9,0-1.4,0-2.3s0-1.4,0-2.3
			c0-0.9,0-1.4,0-2.3c0-0.9,0-1.4,0-2.3c0-0.9,0-1.4,0-2.3c0-0.9,0-1.4,0-2.3c0-0.9,0-1.4,0-2.3c0-0.9,0-1.4,0-2.3
			c0-0.9,0-1.4,0-2.3c0-1.2-0.2-1.2-0.2-2.3c0-1.2,0.2-1.2,0.2-2.3c0-0.9,0-1.4,0-2.3c0-0.9,0-1.4,0-2.3c0-0.9,0-1.4,0-2.3
			c0-0.9,0-1.4,0-2.3c0-0.9,0-1.4,0-2.3c0-1.2-0.2-1.2-0.2-2.4c0-1.2,0.2-1.2,0.2-2.3c0-0.9,0-1.4,0-2.4c0-0.9,0-1.4,0-2.4
			c0-1.2-0.2-1.2-0.2-2.4c0-1.2,0.2-1.2,0.2-2.4c0-1,0-1.4,0-2.4c0-1,0-1.4,0-2.4c0-1,0-1.4,0-2.4c0-0.8-0.2-1.2-0.4-2
			c0-0.8-0.3-1.6-0.5-2c-0.3-0.5-0.5-1.2-0.9-1.2c-0.2-0.4-0.6-0.4-0.9-0.5c-0.5,0-0.8-0.1-1.3-0.1c-0.6,0-0.6-0.4-1.1-0.5
			c-0.6,0-0.6,0.3-1.1,0.3c-0.4,0-0.7-0.5-1.1-0.5c-0.4,0.4-0.7-0.1-1.1-0.1c-0.4,0-0.7-0.1-1.1-0.1c-0.4,0.4-0.7,0.3-1.1,0.3
			c-0.4,0-0.7,0.3-1.1,0.3s-0.7-0.1-1.1,0.3c-0.4,0-0.7-0.1-1.1-0.1c-0.4,0-0.7,0.3-1.1,0.3c-0.4,0-0.6,0.3-0.9,0.3
			c-0.4,0.4-0.7,0.3-1.1,0.7c-0.4,0.4-0.7,0.3-1.1,0.7c-0.4,0.4-0.6,0.7-0.9,1.1c-0.4,0.4-0.7,0.3-0.9,0.7c-0.4,0.4-0.7,0.7-1.1,0.7
			c-0.2,0-0.6,0-0.9-0.5c-0.2-0.4-0.4-1.2-0.5-1.6c0-0.8,0-1.2,0-2c0-0.8,0.2-1.6,0.2-2.4c0.2-0.8,0.4-1.6,0.4-2.4
			c0-0.8,0.2-1.6,0.2-2.4c0.2-0.8,0.2-1.6,0.4-2.4c0-1,0-1.4,0-2.4c0.2-0.8,0.2-1.6,0.4-2.4c0-0.8,0.2-1.6,0.2-2.4
			c0.2-0.8,0.2-1.6,0.4-2.4c0-0.8,0.2-1.2,0.2-2c0-0.8,0.2-1.6,0.2-2.4c0-0.8,0.2-1.6,0.2-2.4c0.2-0.8,0.2-1.6,0.4-2.4
			c0-0.8,0.2-1.6,0.2-2.4c0.2-0.8,0.2-1.6,0.4-2.4c0-0.8,0-1.6,0.2-2.4c0-0.8,0.2-1.6,0.2-2.4c0.2-0.8,0.4-1.6,0.6-2
			c0.2-0.8,0.4-1.2,0.8-1.6c0.5-0.4,0.7-0.7,1.1-1.1c0.4,0,0.7,0.5,1.1,0.6c0.2,0.4,0.6,0.5,0.9,0.5c0.4,0,0.7,0.5,1.1,1
			c0.4,0.1,0.7,0.1,1.1,0.1c0.4,0,0.7,0.5,1.1,0.5c0.4,0.1,0.7,0.1,1.1,0.1c0.4,0.1,0.7,0.1,1.1,0.1c0.4,0,0.7,0.5,1.1,0.5
			c0.4,0.1,0.7,0.1,1.1,0.1c0.4,0,0.7-0.3,1.1-0.3c0.4,0,0.6,0.1,0.9,0.1c0.4,0.1,0.7,0.1,1.1,0.1c0.4,0.1,0.7,0.1,1.1,0.1
			c0.4,0.1,0.7,0.1,1.1,0.1c0.4,0.1,0.7,0.1,1.1,0.1c0.5,0.1,0.8,0.1,1.3,0.1c0.4,0.1,0.7,0.1,1.1,0.1s0.7,0.1,1.1,0.1
			c0.4,0.1,0.7,0.1,1.1,0.1c0.4,0.1,0.7,0.1,1.1,0.1c0.4,0.1,0.7,0.1,1.1,0.1c0.4,0,0.7,0.1,1.1,0.1c0.4,0,0.7,0.1,1.1,0.1
			c0.4,0,0.7,0.1,1.1,0.1c0.4,0,0.7,0.1,1.1,0.1c0.4,0,0.7,0.1,1.1,0.1c0.6,0.1,0.5,0.5,1.1,0.5c0.6,0.1,0.6-0.3,1.1-0.3
			c0.4,0,0.7,0.1,1.1,0.1c0.4,0,0.7,0.1,1.1,0.1c0.5,0.1,0.8,0.1,1.3,0.1c0.4,0,0.7,0.1,1.1,0.1c0.4,0,0.7,0.1,1.1,0.1
			s0.7,0.1,1.1,0.1c0.4,0,0.7,0.1,1.1,0.1c0.4,0,0.7,0.1,1.1,0.1C117.2,28.7,117.5,28.7,117.9,28.8z"/>
		<path d="M191.3,158.2c0.1,0.9,0.2,1.3,0.4,2.1c0.2,1.1,0.2,1.1,0.2,2.2c0.1,0.9,0.2,1.3,0.4,2.2c0.2,1.1,0.2,1.1,0.2,2.2
			c0.2,0.7,0.2,1.1,0.4,1.8c0.1,0.9,0.2,1.3,0.4,2.2c0.1,0.9,0.2,1.3,0.4,2.2c0,1.1,0,1.1,0.2,2.3c0.1,0.9,0.2,1.4,0.4,2.3
			c0.2,1.1,0,1.2,0.2,2.3c0.1,0.9,0.2,1.4,0.4,2.3c0.2,1.2,0.2,1.2,0.4,2c0,1.2,0.2,1.2,0.4,2.4c0,1.2,0,1.2,0.2,2.4
			c0.2,1.2,0,1.2,0.2,2.4c0.1,1,0.2,1.5,0.4,2.5c0.2,1.2,0.2,1.2,0.2,2.5c0.2,1.3,0.4,1.2,0.5,2.5c0.2,1.3,0,1.3,0.2,2.6
			c0.2,1.3,0.2,0.9,0.4,2.2c0.2,1.3,0.2,1.3,0.2,2.6c0.1,1.1,0.2,1.6,0.4,2.7c0.2,1.3,0,1.3,0.2,2.7c0.1,1.1,0.2,1.4,0.4,2.2
			c0.1,0.7,0.2,1.1,0.4,1.9s0.2,1.1,0.4,1.9c0,1,0,1,0.2,1.9c0.1,0.6,0.1,0.7,0.4,1.6c0.1,0.6,0.2,1.3,0.2,2c0.2,0.8,0.3,1.2,0.5,2
			c0.2,0.7,0.2,1.4,0.2,2c0.2,0.7,0.4,1,0.5,1.7c0,0.7,0.2,1.4,0.4,2.1c0.2,0.8,0.3,1.3,0.5,2.1c0,0.4,0.2,1.5,0.2,1.8
			c0.2,0.9,0.3,1.3,0.5,2.2c0.2,0.7,0.4,1.5,0.5,1.9c0.2,0.8,0.5,1.5,0.7,1.9c0.2,0.8,0.4,1.5,0.5,1.9c0.2,0.8,0.2,1.6,0.5,2.3
			c0.2,0.8,0.4,1.2,0.7,2c0.2,0.4,0.4,1.2,0.4,2c0,0.8-0.2,1.2-0.2,2.1c-0.2,0.8-0.4,1.7-0.7,2.1c-0.2,0.4-0.6,0.5-0.9,0.5
			c-0.4,0-0.7,0-1.1,0.1c-0.4,0-0.7,0-1.1,0.1c-0.4,0-0.7,0-1.1,0.1c-0.4,0-0.7,0-1.1,0.1c-0.4,0-0.7,0-1.1,0.1
			c-0.4,0-0.7,0-1.1,0.1c-0.4,0-0.6,0-0.9,0.1c-0.4,0-0.7,0-1.1,0.1s-0.7,0-1.1,0.1c-0.4,0-0.7,0-1.1,0.1s-0.7,0-1.1,0.1
			c-0.4,0-0.7,0-1.1,0.1c-0.4,0-0.7,0-1.1,0.1c-0.4,0-0.6,0-0.9,0.1c-0.4,0-0.7,0-1.1,0.1c-0.4,0-0.7,0.5-1.1,0.5
			c-0.4,0-0.7-0.4-1.1-0.4c-0.4,0-0.7,0-1.1,0.1c-0.4,0-0.7,0-1.1,0.1c-0.4,0-0.7,0-1.1,0.1c-0.4,0-0.7-0.4-1.1-0.4
			c-0.4-0.4-0.7-0.9-0.9-1.2c-0.3-0.6-0.4-1.3-0.4-2.1c-0.2-0.8-0.2-1.7-0.2-2.5c0.2-0.8,0.2-1.7,0.2-2.9c0-1,0-1.4,0-2.4
			c0-1,0-1.4,0-2.4c0-0.8,0-1.6-0.2-2.3c0-0.8-0.2-1.5-0.2-2.3c-0.2-0.7-0.2-1.5-0.4-2.2c-0.2-0.7,0-1.5-0.2-2.2
			c-0.2-0.7-0.2-1.4-0.2-2.1c-0.2-0.8-0.3-1.3-0.5-2.1c-0.2-0.7-0.2-1.4-0.4-2.1c0-0.7-0.2-1.4-0.4-2c0-0.7-0.2-1.3-0.2-2
			c-0.2-0.7-0.2-1-0.4-1.6c0-1,0-1-0.2-1.9c-0.1-0.8-0.2-1.1-0.4-1.9c-0.2-0.9-0.2-0.9-0.2-1.9c-0.2-0.6-0.2-0.4-0.4-1.7
			c-0.1-1.1-0.2-1.6-0.4-2.7c-0.2-1.3-0.2-1.3-0.2-2.6c-0.2-1.3-0.4-0.9-0.4-2.2c-0.1-1-0.2-1.6-0.4-2.6c0-1.3-0.2-1.3-0.4-2.5
			c-0.2-1.3,0-1.3-0.2-2.5c-0.1-0.8-0.2-0.8-0.2-2.1c-0.1-1-0.2-1.5-0.4-2.5c0-1.2-0.2-1.2-0.4-2.4c0-1.2,0-1.2-0.2-2
			c-0.1-1-0.2-1.4-0.4-2.4c-0.1-1-0.2-1.4-0.4-2.4c-0.2-1.2,0-1.2-0.2-2.4c0-1.2-0.2-1.2-0.4-1.9c-0.2-1.1,0-1.2-0.2-2.3
			c-0.1-0.9-0.2-1.4-0.4-2.3c-0.1-0.9-0.2-1.4-0.4-2.3c0-0.8-0.4-1.5-0.5-1.9c-0.3-0.5-0.5-1.1-0.9-1.5c-0.4-0.4-0.7-0.7-1.3-0.7
			c-0.4,0-0.6,0.4-0.9,0.4c-0.4,0-0.7,0-1.1,0.1c-0.4,0-0.7,0-1.1,0.1c-0.4,0-0.7,0-0.9,0.4c-0.4,0.5-0.7,0.7-1.1,1.2
			c-0.2,0.8-0.4,1.2-0.6,1.9c-0.2,0.8-0.2,1.5-0.2,2.3c0,0.9,0,1.4,0,2.3c0,0.9,0,1.4,0,2.3c0,0.9,0,1.4,0,2.3c0,0.9,0,1.4,0,2.4
			c0,1,0,1.4,0,2.4c0,1,0,1.4,0,2.4c0,1.2,0.2,1.2,0.2,2.4c0,1,0,1.5,0,2.5c0,1.6-0.2,1.7-0.2,2.9c0,1.3,0.2,1.2,0.2,2.5
			c0,1.3-0.2,1.3-0.2,2.6c0,1,0,1.5,0,2.6c0,1,0,1.6,0,2.6c0,1,0,1.6,0,2.6s0,1.6,0,2.7c0,1.1,0,1.6,0,2.3c0,0.7,0,1.1,0,1.9
			c0,0.8,0,1.1,0,1.9c0,0.8,0,1.2,0,2s0,1.2,0,2c0,0.9,0,1.4,0,2.4c0,0.7,0,1.4,0.2,2.1c0,0.8,0,1.3,0,2.1c0,0.8,0,1.3,0,2.1
			c0,0.9,0,1.3,0,2.2c0,1.1,0.2,1.8,0.4,2.6c0,0.7-0.2,1.5,0,2.3c0,0.8,0.2,1.5,0.2,2.3c0.2,0.8,0.2,1.6,0.4,2.3
			c0,0.8,0.2,1.6,0.4,2.4c0,0.8,0.4,1.2,0.5,2c0.2,1,0.3,1.5,0.5,2.4c0.2,0.4,0.4,1.2,0.4,2.1c0,0.4-0.2,1.3-0.4,2.2
			c-0.2,0.4-0.4,1.3-0.7,1.4c-0.2,0.4-0.6,0.9-0.9,0.9c-0.4,0-0.7,0.1-1.1,0.1c-0.4,0-0.7,0.1-1.1,0.1c-0.4,0-0.6,0-0.9,0.1
			c-0.4,0-0.7,0.1-1.1,0.1c-0.4,0-0.7,0.1-1.1,0.1s-0.7,0.1-1.1,0.1c-0.4,0-0.7,0.1-1.1,0.1c-0.4,0-0.7,0.1-1.1,0.1
			s-0.7,0.1-1.1,0.1c-0.4,0-0.7,0.1-1.1,0.1c-0.4,0-0.7,0.1-1.1,0.1c-0.4,0-0.7,0.1-1.1,0.1c-0.4,0-0.7,0.1-1.1,0.1
			c-0.4,0-0.7,0.1-1.1,0.1c-0.4,0-0.7,0.1-1.1,0.1c-0.4,0-0.7,0.1-1.1,0.1c-0.4,0-0.7,0.1-1.1,0.1c-0.4,0-0.7,0.1-1.1,0.1
			c-0.4,0-0.7,0.1-1.1,0.1c-0.4,0-0.7,0.1-1.1,0.1c-0.4,0-0.7,0.1-1.1,0.1c-0.4,0-0.7-0.4-0.9-0.4c-0.4-0.4-0.5-0.8-0.7-1.7
			c-0.2-0.9-0.2-1.7-0.2-2.2c0-0.9-0.1-2,0.2-2.6c0.2-0.4,0.4-1.3,0.6-2.2c0.2-1,0.3-1.5,0.6-2.5c0.2-0.4,0.4-1.3,0.6-2.1
			c0-0.8,0-1.6,0.2-2.4c0-0.8,0-1.6,0.2-2.4c0-0.8,0.2-1.6,0.2-2.3c0.2-0.8,0.2-1.5,0.2-2.7c0-0.9,0-1.3,0-2.2
			c0-0.7,0.2-1.5,0.2-2.2c0-0.9,0-1.3,0-2.1c0-0.8,0-1.3,0-2.1c0-1,0-1.4,0-2.4c0-0.8,0-1.2,0-2c0-0.8,0-1.2,0-2c0-0.8,0-1.2,0-1.9
			c0-1,0.2-1,0.2-1.9s-0.2-1-0.2-1.8c0-1.1,0-1.6,0-2.6c0-1,0-1.6,0-2.6c0-1,0-1.6,0-2.6s0-1.5,0-2.6c0-1,0-1.5,0-2.5
			c0-1,0-1.5,0-2.5c0-1,0-1.5,0-2.5c0-1.2,0.2-1.3,0.2-2.5s-0.2-1.2-0.2-2.4c0-1,0-1.5,0-2.4c0-1,0-1.5,0-2.4c0-1,0-1.4,0-2.4
			c0-1,0-1.4,0-2.4c0-0.9,0-1.4,0-2.4c0-0.9,0-1.4,0-2.3c0-0.9,0-1.4,0-2.3c0-1.2,0.2-1.2,0.2-2.3s-0.2-1.1-0.2-2.3s0.2-1.2,0.2-2.3
			c0-1.1-0.2-1.1-0.2-2.3c0-0.9,0-1.4,0-2.3c0-0.9,0-1.3,0-2.2c0-0.9,0-1.3,0-2.2c0-1.1,0.2-1.1,0.2-2.2c0-1.1-0.2-1.1-0.2-2.2
			c0-1.1,0.2-1.1,0.2-2.2c0-1.1-0.2-1.1-0.2-2.2c0-0.9,0-1.3,0-2.2c0-0.9,0-1.3,0-2.2c0-0.9,0-1.3,0-2.2c0-0.9,0-1.3,0-2.2
			c0-0.9,0-1.3,0-2.2c0-0.9,0-1.3,0-2.2c0-0.9,0-1.3,0-2.2c0-1.1,0.2-1.1,0.2-2.2c0-1.1-0.2-1.1-0.2-2.2c0-1.1,0.2-1.1,0.2-2.2
			c0-0.9,0-1.3,0-2.2c0-1.1-0.2-1.1-0.2-2.2c0-0.9,0-1.3,0-2.2c0-0.9,0-1.3,0-2.2c0-0.9,0-1.3,0-2.2s0-1.3,0-2.2c0-0.9,0-1.3,0-2.2
			c0-1.1,0.2-1.1,0.2-2.2c0-1.1-0.2-1.1-0.2-2.2c0-0.9,0-1.3,0-2.2s0-1.3,0-2.2c0-0.9,0-1.3,0-2.2c0-0.9,0-1.3,0-2.2
			c0-0.9,0-1.3,0-2.2c0-0.7,0-1.1,0-1.8c0-0.9,0-1.3,0-2.2c0-0.9,0-1.3,0-2.2c0-0.9,0-1.3,0-2.2c0-1.1,0.2-1.1,0.2-2.2
			c0-1.1-0.2-1.1-0.2-2.3c0-0.9,0-1.4,0-2.3c0-0.9,0-1.4,0-2.3c0-0.9,0-1.4,0-2.3c0-0.9,0-1.4,0-2.3s0-1.4,0-2.3s0-1.3,0-2.2
			c0-0.9,0-1.3,0-2.2c0-0.9,0-1.3,0-2.2c0-1.1,0.2-1.1,0.2-2.2c0-1,0-1.6,0-2.6c0-0.9,0-1.3,0-2.2c-0.2-0.8-0.4-1.5-0.3-2.3
			c0-0.9,0-1.3,0-2.3c0-0.9,0-1.4,0-2.3c0-0.8,0-1.5-0.2-2.3c0-1.1,0-1.9-0.2-2.7c0-0.8,0-1.5-0.2-2.3c0-0.8-0.2-1.6-0.2-2.3
			c-0.2-0.9-0.3-1.4-0.5-2.4c0-0.4-0.4-1.2-0.4-2c-0.2-1-0.3-1.4-0.5-2.4c-0.2-0.4-0.4-1.2-0.4-2c0-0.4,0-1.2,0.2-2
			c0.2-0.4,0.4-0.8,0.7-1.1c0.2-0.4,0.6-0.7,0.9-0.7c0.4,0,0.7,0.1,1.1,0.1c0.4,0,0.7,0.1,1.1,0.1c0.4,0,0.7,0.1,1.1,0.1
			c0.4,0,0.7,0.1,1.1,0.1c0.4,0,0.7,0.1,1.1,0.1s0.7,0.1,1.1,0.1c0.4,0,0.7,0.1,1.1,0.1c0.4,0,0.7,0.1,1.1,0.1
			c0.4,0,0.7,0.1,1.1,0.1c0.4,0,0.7,0.1,1.1,0.1c0.4,0,0.7,0.1,1.1,0.1c0.4,0,0.7,0.1,1.1,0.1c0.4,0,0.7,0.1,1.1,0.1
			c0.4,0,0.7,0.1,1.1,0.1c0.4,0,0.7,0.1,1.1,0.1c0.4,0,0.7,0.1,1.1,0.1c0.4,0,0.7,0.5,1.1,0.5c0.4,0,0.7-0.3,1.1-0.3
			c0.4,0,0.7,0.1,1.1,0.1s0.7,0.1,1.1,0.1s0.7,0,1.1,0.1c0.4,0,0.7,0,1.1,0.1c0.4,0,0.7,0,1.1,0.1c0.4,0,0.7,0.4,1.1,0.5
			c0.4,0,0.7-0.3,1.1-0.3c0.4,0,0.7,0.4,1.1,0.5c0.4,0,0.7,0.1,1.1,0.5c0.4,0,0.7-0.3,1.1,0.1c0.4,0,0.7,0,1.1,0.1
			c0.4,0.4,0.7,0.4,1.1,0.5c0.4,0.4,0.7,0.4,1.1,0.5c0.4,0,0.7,0.4,1.1,0.5c0.4,0.4,0.7,0.1,1.1,0.5c0.4,0,0.7,0,1.1,0.5
			c0.4,0,0.7,0.4,1.1,0.5c0.4,0.4,0.7,0.4,1.1,0.8c0.4,0,0.7,0.4,1.1,0.5c0.4,0.4,0.7,0.8,0.9,0.8c0.4,0.4,0.7,0.8,1.1,0.8
			c0.4,0.5,0.6,0.7,1.1,1.2c0.4,0,0.5,0.4,0.9,0.8c0.4,0.4,0.7,0.8,0.9,1.2c0.4,0.4,0.7,0.4,1.1,0.8c0.4,0.4,0.5,1.2,0.9,1.6
			c0.4,0.4,0.6,0.7,0.9,1.2c0.2,0.4,0.7,0.8,0.9,1.2c0.4,0.5,0.7,0.7,1.1,1.2c0.2,0.4,0.4,1,0.7,1.5c0.2,0.4,0.5,1.1,0.7,1.5
			c0.4,0.4,0.6,1,0.9,1.5c0.2,0.3,0.5,1.1,0.7,1.5c0.4,0.7,0.7,1.2,0.9,1.5c0.3,0.5,0.4,1.5,0.5,1.8c0.4,0.7,0.5,1.5,0.7,1.8
			c0.3,0.5,0.4,1.5,0.5,1.8c0.2,0.7,0.4,1.4,0.5,1.8c0.2,0.7,0.5,1.4,0.7,1.8c0.2,0.7,0.4,1.4,0.5,1.8c0.2,0.7,0.2,1.4,0.4,2.1
			c0.2,0.8,0.3,1.3,0.5,2.1c0,0.3,0.2,1,0.4,1.7c0,0.7,0.2,1.4,0.2,2.1c0.2,0.8,0.3,1.2,0.5,2.2c0,0.4,0.2,1.1,0.4,1.9
			c0,0.9,0,1.4,0,2.2c0.2,0.8,0.4,1.5,0.4,2.2c0.2,0.7,0.2,1.5,0.4,2.2c0,0.7,0,1.5,0.2,2.2c0,0.9,0,1.3,0,2.2
			c0,0.7,0.2,1.4,0.2,2.2c0,0.9,0,1.3,0,2.1c0,0.8,0,1.3,0,2.1c0.2,0.7,0.2,1.4,0.2,2.1c0,0.8,0,1.3,0,2.1c0,0.8,0,1.2,0,2.1
			c0,0.8,0,1.2,0,2.1c0,0.8,0,1.2,0,2.1c0,0.7-0.2,1.4-0.2,2c0,0.8,0,1.2,0,2c-0.2,0.7-0.2,1.4-0.2,2s0,1.3-0.2,2
			c0,0.7-0.2,1.3-0.2,2c-0.2,0.3-0.2,1-0.4,1.7c0,0.8,0,1.2,0,2c-0.2,0.8-0.3,1.2-0.6,2c0,0.7-0.2,1.3-0.4,2c0,0.7-0.2,1-0.2,1.7
			c-0.2,0.7-0.4,1.3-0.4,2c-0.2,0.8-0.3,1.2-0.6,2c-0.2,0.3-0.2,1-0.4,1.7c-0.2,0.7-0.6,1-0.7,1.7c0,0.7-0.2,1.3-0.4,1.7
			c-0.2,0.7-0.4,1.4-0.6,1.7c-0.4,0.7-0.3,1.6-0.6,2c-0.2,0.3-0.6,1-0.7,1.4c-0.2,0.7-0.6,1-0.7,1.7c-0.2,0.7-0.4,1.4-0.6,1.7
			c-0.2,0.7-0.7,1.1-0.9,1.4c-0.3,0.5-0.4,1-0.7,1.7c-0.2,0.4-0.5,1-0.7,1.4c-0.2,0.3-0.5,1-0.7,1.4c-0.2,0.3-0.6,1.1-0.7,1.4
			c-0.2,0.7-0.2,1.4-0.2,2.1c0,0.4,0,1.1,0.2,1.8c-0.1,0-0.1,0-0.2,0C191.2,157.1,191.3,157.1,191.3,158.2z M163.4,76.5
			c0,0.9,0,1.4,0,2.3c0,1.1-0.2,1.1-0.2,2.3c0,0.9,0,1.4,0,2.3c0,0.9,0,1.4,0,2.3c0,0.7,0,1.1,0,1.9c0,0.9,0,1.3,0,2.2
			c0,0.9,0,1.3,0,2.2c0,0.9,0,1.3,0,2.2c0,0.9,0,1.3,0,2.2c0,0.9,0,1.3,0,2.2c0,0.9,0,1.3,0,2.2c0,0.9,0,1.3,0,2.2
			c0,1.1,0.2,1.1,0.2,2.1c0,1.1-0.2,1.1-0.2,2.1c0,0.9,0,1.3,0,2.1s0,1.3,0,2.1s0,1.3,0,2.1c0,1.1,0.2,1.1,0.2,2.1
			c0,0.7-0.2,0.7-0.2,1.8c0,0.8,0,1.3,0,2.1s0,1.3,0,2.1c0,0.8,0,1.3,0,2.1c0,0.8,0,1.3,0,2.1c0,0.8,0,1.3,0,2.1c0,1,0.2,1,0.2,2.1
			c0,0.8,0,1.3,0,2.1c0.2,0.7,0.4,1,0.7,1.7c0.2,0.3,0.5,0.7,0.9,1c0.2,0,0.5,0.3,0.9,0.3c0.4,0,0.7,0,1.1,0c0.5,0,0.5,0.3,1.1,0.3
			c0.4,0,0.9-0.4,1.3-0.4c0.4,0,0.7-0.4,1.1-0.4c0.4,0,0.7-0.4,1.1-0.4c0.4,0,0.7,0,1.1-0.4c0.4,0,0.7-0.4,0.9-0.7
			c0.4-0.4,0.7-0.6,1.1-1c0.4-0.3,0.6-0.7,0.9-1c0.4-0.3,0.6-1,0.9-1.4c0.2-0.3,0.7-0.7,0.9-1c0.3-0.4,0.6-1.4,0.7-1.7
			c0.3-0.4,0.4-1.4,0.6-1.7c0.2-0.7,0.6-1,0.7-1.7c0.2-0.7,0.2-1.4,0.4-2.1c0.2-0.3,0.4-1,0.6-1.7c0-0.7,0.2-1.4,0.4-2.1
			c0-0.7,0.2-1.4,0.4-2.1c0-0.7,0.2-1.4,0.2-2.1c0.2-0.7,0.2-1.4,0.2-2.1c0-0.7,0.2-1.4,0.2-2.1c0-0.7,0.2-1.4,0.2-2.1
			c0-0.8,0-1.3,0-2.1c0-0.8,0-1.3,0-2.1c0-0.8,0-1.3,0-2.1c0-0.8,0-1.3,0-2.1c0-0.7-0.2-1.4-0.2-2.1c0-0.7,0-1.4-0.2-2.2
			c0-0.7,0.2-1.4,0-2.2c0-0.7-0.2-1.1-0.2-1.8c-0.2-0.7-0.2-1.5-0.4-2.2c0-0.7-0.2-1.5-0.4-2.2c0-0.7-0.2-1.1-0.2-1.9
			c-0.2-0.8-0.4-1.5-0.4-2.3c-0.2-0.8-0.5-1.1-0.7-1.9c-0.2-0.4-0.4-1.2-0.5-1.9c-0.2-0.4-0.3-1.4-0.5-1.9c-0.2-0.4-0.5-0.7-0.9-1.4
			c-0.2-0.4-0.5-0.7-0.7-1.1c-0.4-0.7-0.7-0.7-1.1-1.1c-0.2-0.4-0.5-0.7-0.9-1.1c-0.4-0.4-0.7-0.4-1.1-0.4c-0.2-0.4-0.5-0.7-0.9-0.8
			c-0.4-0.4-0.7-0.4-1.1-0.8c-0.4,0-0.7,0-1.1-0.1c-0.4,0-0.7,0-1.1-0.1c-0.4-0.4-0.7-0.4-1.1-0.4c-0.5,0-0.5-0.4-1.1-0.4
			c-0.5,0-0.5,0.3-1.1,0.3c-0.4,0-0.7,0-1.1,0.3c-0.2,0.3-0.6,0.7-0.7,1c-0.4,0.7-0.6,1-0.7,1.8c0,0.7-0.2,1.4-0.2,2.1
			C163.2,75.3,163.4,75.3,163.4,76.5z"/>
		<path d="M208.4,253.1c-0.2-0.4-0.4-1.2-0.6-1.6c-0.2-0.8-0.4-1.6-0.4-2.1c0.2-0.8,0.2-1.6,0.4-2.1c0.2-1,0.3-1.5,0.6-2.4
			c0.2-0.8,0.4-1.2,0.6-2c0.2-0.8,0.2-1.6,0.4-2.3c0-0.8,0.2-1.5,0.2-2.3c0.2-0.8,0.2-1.5,0.4-2.3c0-0.7,0.2-1.5,0.2-2.2
			c0-0.7,0.2-1.5,0.2-2.5c0-0.9,0-1.3,0-2.1c0-0.8,0-1.3,0-2.1c0-0.8,0-1.2,0-2.1c0-0.7,0.2-1.4,0.2-2c0-0.7-0.2-1.3-0.2-2.3
			c0-1,0.2-1,0.2-2c0-0.8,0-1.2,0-1.9c0-0.8,0-1.1,0-1.9c0-0.8,0-1.1,0-1.9c0-0.6,0-1,0-1.9c0-1.1,0-1.6,0-2.7s0-1.6,0-2.7
			c0-1.3-0.2-1.3-0.2-2.6c0-1.3,0.2-1.3,0.2-2.6c0-1.3-0.2-1.3-0.2-2.6c0-1,0-1.5,0-2.5c0-1,0-1.5,0-2.5c0-1.2,0.2-1.3,0.2-2.5
			c0-1,0-1.5,0-2.4c0-1,0-1.5,0-2.4s0-1.4,0-2.4c0-0.9,0-1.4,0-2.4c0-0.9,0-1.4,0-2.3c0-0.9,0-1.4,0-2.3c0-0.9,0-1.4,0-2.3
			c0-1.1-0.2-1.1-0.2-2.2c0-1.1,0.2-1.1,0.2-2.2c0-0.9,0-1.3,0-2.2c0-1.1-0.2-1.1-0.2-2.2c0-1.1,0.2-1.1,0.2-2.2c0-0.9,0-1.3,0-2.1
			c0-0.9,0-1.3,0-2.1c0-0.8,0-1.3,0-2.1c0-0.8,0-1.3,0-2.1c0-1-0.2-1-0.2-2.1c0-0.8,0-1.2,0-2.1c0-0.8,0-1.2,0-2.1c0-1,0.2-1,0.2-2
			c0-0.8,0-1.2,0-2c0-1-0.2-1-0.2-2c0-1,0.2-1,0.2-2c0-1-0.2-1-0.2-2c0-0.8,0-1.2,0-2c0-1,0.2-1,0.2-2c0-0.8,0-1.2,0-2
			c0-0.8,0-1.2,0-2c0-1-0.2-1-0.2-2s0.2-1,0.2-2c0-0.8,0-1.2,0-2c0-0.8,0-1.2,0-2c0-1-0.2-1-0.2-2c0-1,0.2-1,0.2-2c0-0.8,0-1.2,0-2
			c0-0.8,0-1.2,0-2c0-0.8,0-1.2,0-2c0-0.8,0-1.2,0-2c0-0.8,0-1.2,0-2c0-0.8,0-1.2,0-2c0-0.8,0-1.2,0-2c0-0.8,0-1.2,0-2.1
			c0-0.8,0-1.2,0-2.1c0-0.7,0-1,0-1.7c0-0.8,0-1.3,0-2.1c0-0.8,0-1.3,0-2.1c0-1.1-0.2-1.1-0.2-2.1c0-0.9,0-1.3,0-2.1
			c0-0.9,0-1.3,0-2.2c0-1.1,0.2-1.1,0.2-2.2c0-0.9,0-1.3,0-2.2c0-0.9,0-1.3,0-2.2c0-1.1-0.2-1.1-0.2-2.3s0.2-1.1,0.2-2.2
			c0-0.8,0-1.2,0-2c0-0.8,0-1.2,0-2.1c0-0.8,0-1.2,0-2.1c0-1-0.2-1-0.2-2.1c0-0.8,0-1.3,0-2.1c0-1,0-1.5,0-2.5c0-0.8,0-1.3,0-2.1
			c0-0.9,0-1.3,0-2.1c-0.2-0.7-0.2-1.4-0.2-2.2c0-0.7,0-1.4-0.2-2.2c0-1,0-1.5,0-2.6c0-0.7-0.2-1.5-0.2-2.2
			c-0.2-0.9-0.3-1.4-0.5-2.3c0-0.7,0-1.5-0.2-2.3c-0.2-0.4-0.4-1.1-0.5-1.9c-0.2-0.8-0.4-1.5-0.5-1.9c-0.2-0.8-0.4-1.5-0.4-2.3
			c0-0.4,0.2-1.1,0.4-1.9c0.2-0.5,0.3-0.7,0.5-1.1c0.4-0.4,0.7-0.7,0.9-0.7c0.4,0,0.7,0,1.1,0.1c0.4,0,0.7,0,1.1,0.1
			c0.4,0,0.7,0,1.1,0.1c0.4,0,0.7,0,1.1,0.1c0.5,0,0.8,0,1.3,0.1c0.4,0,0.7,0,1.1,0.1c0.4,0,0.7,0,1.1,0.1c0.4,0,0.7,0,1.1,0.1
			c0.4,0,0.7,0.4,1.1,0.4c0.4,0,0.7-0.4,1.1-0.3c0.4,0,0.7,0,1.1,0.1s0.7,0,1.1,0s0.7,0,1.1,0c0.4,0,0.7,0,1.1,0c0.4,0,0.7,0,1.1,0
			c0.4,0,0.7,0,1.1,0c0.4,0,0.7,0,1.1,0c0.4,0,0.7,0,1.1,0c0.4,0,0.7,0,1.1,0c0.4,0,0.7,0,1.1,0c0.4,0,0.5,0,0.9,0
			c0.4,0,0.7,0,1.1,0c0.4,0,0.7,0,1.1,0c0.4,0,0.7,0,1.1,0c0.4,0,0.7,0.4,1.1,0.4s0.7-0.4,1.1-0.3c0.4,0,0.7,0,1.1,0
			c0.4,0,0.7,0,1.1,0c0.4,0,0.7,0,1.1,0c0.4,0,0.7,0,1.1,0c0.4,0,0.7,0,1.1,0c0.4,0,0.7,0,1.1,0c0.4,0,0.7,0,1.1,0.4
			c0.4,0,0.7-0.4,1.1-0.4c0.4,0,0.7,0,1.1,0c0.4,0,0.7,0,1.1,0c0.4,0,0.7,0.4,1.1,0.4c0.4,0,0.7-0.4,1.1-0.4c0.4,0,0.7,0,1.1,0
			c0.4-0.4,0.7,0,1.1-0.4c0.4,0,0.7,0,1.1-0.4c0.4,0,0.7,0,0.9-0.4c0.4,0,0.7,0,1.1-0.4c0.4,0,0.7-0.4,1.1,0c0.4,0,0.7,0.4,1.1,0.8
			c0.4,0.4,0.5,0.8,0.7,1.6c0.2,0.4,0.4,1.2,0.5,2c0,0.8,0.2,1.5,0.2,2.3c0.2,0.8,0.2,1.5,0.2,2.3c0.2,0.8,0.2,1.5,0.4,2.3
			c0,0.7,0,1.5,0.2,2.2c0,0.7,0.2,1.5,0.2,2.2s0.2,1.5,0.4,2.2c0,0.7,0,1.4,0.2,2.2c0,0.7,0,1.4,0.2,2.1c0,0.4,0.2,1.1,0.2,1.8
			c0.2,0.7,0.2,1.4,0.4,2.1c0,0.7,0.2,1.4,0.2,2.1c0.2,0.7,0.2,1.4,0.4,2.1c0,0.8,0,1.2,0,2c0.2,0.7,0.4,1.4,0.4,2
			c0.2,0.7,0.2,1.3,0.2,2c0.2,0.7,0.2,1.3,0.4,2c0,0.3,0,1-0.2,1.6c0,0.3-0.2,1-0.4,1c-0.4,0.3-0.7,0.6-1.1,0.6
			c-0.2,0-0.5-0.3-0.9-0.7c-0.2-0.3-0.5-0.7-0.9-1c-0.4,0-0.7-0.7-0.9-0.7c-0.4-0.3-0.7-0.7-1.1-0.7c-0.4-0.3-0.7-0.7-1.1-0.7
			c-0.4-0.3-0.7,0-1.1,0c-0.4-0.3-0.7-0.3-1.1-0.7c-0.2,0-0.5-0.3-0.9-0.4s-0.7-0.3-1.1-0.4c-0.4,0-0.7,0-1.1,0c-0.4,0-0.7,0-1.1,0
			c-0.4,0-0.7,0-1.1,0c-0.4-0.3-0.7,0-1.1,0c-0.4,0-0.7,0-1.1,0c-0.5,0-0.5-0.3-1.1-0.4c-0.4,0-0.7,0-1.1,0c-0.4,0-0.7,0-1.1,0
			s-0.7,0-1.1,0c-0.4,0-0.7,0-1.1,0c-0.4,0-0.7,0-1.1,0c-0.5,0-0.5,0.3-1.1,0.3c-0.5,0-0.5-0.4-1.1-0.4c-0.5,0-0.5,0.3-1.1,0.3
			c-0.4,0-0.7,0-1.1,0c-0.4,0-0.7,0-1.1,0c-0.4,0-0.7,0-1.1,0c-0.4,0-0.7,0-1.1,0.3c-0.4,0-0.5,0.7-0.9,1c-0.2,0.3-0.4,1-0.5,1.7
			c-0.2,0.3-0.2,1-0.2,1.7c0,0.8,0,1.2,0,2.1c0,1.1-0.2,1.1-0.2,2.2c0,0.9,0,1.3,0,2.2c0,1.1,0.2,1.1,0.2,2.2c0,0.9,0,1.3,0,2.2
			c0,0.9,0,1.3,0,2.1c0,0.7,0,1.1,0,1.8c0,1.1-0.2,1.1-0.2,2.1c0,1.1,0.2,1.1,0.2,2.1c0,0.8,0,1.2,0,2.1c0,0.8,0,1.2,0,2.1
			c0,1-0.2,1-0.2,2c0,0.8,0,1.2,0,2c0,0.7,0,1,0,1.7c0,1,0.2,1,0.2,2c0,0.8,0,1.2,0,2s0,1.2,0,2c0,0.8,0,1.2,0,2c0,0.8,0,1.2,0,2
			c0.2,0.7,0.5,1,0.7,1.3c0.4,0.7,0.5,1,0.9,1.3c0.4,0,0.7,0.3,1.1,0.3c0.4,0,0.7,0,1.1,0c0.5,0,0.8,0,1.3,0c0.5,0,0.8,0,1.3,0
			c0.4,0,0.7,0,1.1,0c0.5,0,0.8,0,1.3,0c0.4,0,0.7-0.3,1.1-0.3c0.4,0,0.7,0.3,1.1,0.3c0.4-0.3,0.7-0.3,1.1-0.3c0.4,0,0.7,0,1.1,0
			c0.5,0,0.9-0.3,1.3-0.3c0.4-0.3,0.7,0,1.1-0.3c0.4,0,0.7-0.3,1.1-0.3c0.4-0.3,0.7-0.3,1.1-0.6c0.4,0,0.7-0.3,1.1-0.6
			c0.4-0.3,0.7-0.6,0.9-1c0.4-0.3,0.7-0.3,1.1-0.6c0.2-0.3,0.5-0.6,0.9-0.6c0.4,0,0.5,0,0.9,0c0.4,0.3,0.5,1,0.7,1.3
			c0.2,0.6,0.2,1.3,0.2,1.9c0,0.6,0,1,0,1.6c0,0.8,0,1.1,0,1.9c0,0.8,0,1.1,0,1.9c0,0.6,0.2,1.3,0.2,1.9c0,0.6-0.2,1.3-0.2,1.9
			c0,0.8,0,1.1,0,1.9c0,0.8,0,1.1,0,1.9c0,0.8,0,1.1,0,1.9s0,1.1,0,1.9c0,0.8,0,1.1,0,1.9s0,1.2,0,1.9c0,0.8,0,1.2,0,1.9
			c0,0.8,0,1.2,0,1.9c0,0.8,0,1.2,0,1.9c0,0.8,0,1.2,0,2s0,1.2,0,2c0,0.7,0,1,0,1.7c0,0.8,0,1.2,0,2c0,0.7-0.2,1.3-0.2,1.7
			c-0.2,0.7-0.5,1-0.7,1.4c-0.4,0.4-0.7,0.7-0.9,0.7c-0.4,0-0.7-0.7-0.9-1c-0.4-0.3-0.7-0.3-1.1-0.6c-0.4-0.3-0.6-1-0.9-1
			c-0.4-0.3-0.7-0.3-1.1-0.6c-0.4-0.3-0.7-0.3-1.1-0.3c-0.4-0.3-0.7-0.6-1.1-0.6c-0.4-0.3-0.7-0.3-1.1-0.3c-0.4,0-0.7,0-1.3-0.3
			c-0.4,0-0.7,0.4-1.1,0c-0.4,0-0.7,0-1.1,0c-0.4-0.3-0.7-0.3-1.1-0.3c-0.4,0-0.7,0-1.1,0c-0.4,0-0.7,0.4-1.3,0.4
			c-0.5,0-0.5-0.3-1.1-0.3c-0.7,0-0.7,0.4-1.3,0.4c-0.5,0-0.8,0-1.3,0c-0.5,0-0.5-0.3-1.1-0.3c-0.4,0-0.7,0-1.1,0.4
			c-0.4,0.3-0.5,0.7-0.9,1.4c-0.2,0.3-0.4,1-0.5,1.7c-0.2,0.3-0.2,1-0.2,1.7c0,0.8,0,1.2,0,2.1c0,1-0.2,1-0.2,2.1
			c0,1.1,0.2,1,0.2,2.1c0,0.8,0,1.3,0,2.1c0,1.1-0.2,1.1-0.2,2.2c0,1.4,0.2,1.4,0.2,2.5c0,0.9,0,1.3,0,2.2c0,0.9,0,1.3,0,2.2
			c0,1.1-0.2,1.1-0.2,2.3c0,1.1,0.2,1.1,0.2,2.3c0,0.9,0,1.4,0,2.3c0,0.9,0,1.4,0,2.3c0,0.9,0,1.4,0,2.4s0,1.4,0,2.4
			c0,1,0,1.5,0,2.4c0,1.2-0.2,1.2-0.2,2.5c0,1.3,0.2,1.2,0.2,2.5c0,1.3-0.2,1.3-0.2,2.6c0,1,0,1.5,0,2.6c0,1.3,0.2,1.3,0.2,2.6
			c0,1.1,0,1.6,0,2.7c0,1.3,0,1.9,0,3.2c0,1.1,0,1.7,0,2.8c0,1.1,0,1.5,0,2.2c0,0.6,0,1.2,0.2,1.5c0.2,0.6,0.4,1.2,0.6,1.6
			c0.4,0.6,0.6,0.9,0.9,1.2c0.4,0.3,0.7,0,1.1,0c0.6,0,0.6,0.3,1.1,0.3c0.4,0,0.7,0,1.1,0c0.4,0,0.7,0,1.1,0c0.4,0,0.7,0,1.1,0
			c0.4,0,0.6,0,0.9,0c0.6,0,0.6-0.3,1.1-0.4c0.4,0,0.7,0,1.1,0c0.4,0,0.7,0,1.1,0c0.6,0,0.6,0.3,1.1,0.3c0.4,0,0.7,0,1.1,0
			c0.6,0,0.6-0.3,1.1-0.3s0.6,0.3,1.1,0.3c0.4,0,0.7-0.3,1.1-0.3c0.4,0,0.7,0,1.1,0c0.4,0,0.7,0,1.1,0c0.4,0,0.7,0,1.1,0
			c0.4,0,0.7,0,1.1,0c0.4,0,0.7-0.3,1.1-0.3c0.4-0.3,0.7-0.3,1.1-0.3c0.4-0.3,0.7-0.3,0.9-0.3c0.4-0.3,0.7-0.3,1.1-0.3
			c0.4-0.3,0.7-0.6,1.1-0.7c0.4-0.3,0.7-0.3,1.1-0.7c0.4,0,0.5-0.6,0.9-1c0.4-0.3,0.5-0.3,0.9-0.6c0.4-0.3,0.7-0.6,0.9-0.6
			c0.4,0,0.7,0.3,0.9,0.6c0.4,0.3,0.6,0.6,0.7,0.9c0.2,0.6,0.2,1.2,0,1.6c0,0.6-0.2,1.3-0.4,1.9c0,0.6,0,1.3-0.2,1.9
			c0,0.6-0.2,1.3-0.2,2c-0.2,0.7-0.2,1.3-0.4,2c0,0.7-0.2,1.3-0.2,2c0,0.7-0.2,1.4-0.2,2.1c0,0.7-0.2,1.4-0.4,2.1c0,0.8,0,1.3,0,2.1
			c-0.2,0.7-0.2,1.4-0.2,2.1c-0.2,0.7-0.4,1.5-0.4,2.2c0,0.7-0.2,1.5-0.2,2.2c-0.2,0.4-0.4,1.1-0.4,1.9c0,0.8,0,1.5-0.2,2.3
			c0,0.8-0.2,1.5-0.2,2.3c-0.2,0.8-0.2,1.6-0.2,2.4c-0.2,0.8-0.4,1.6-0.4,2.4c0,0.8-0.1,1.9-0.4,2.4c-0.2,0.4-0.5,0.8-0.9,1.3
			c-0.4,0.4-0.7,1.3-1.1,1.3c-0.4,0-0.7,0-1.1,0c-0.4-0.4-0.7-0.8-0.9-0.8c-0.4,0-0.7-0.4-1.1-0.8c-0.4,0-0.7,0-1.1,0
			c-0.4,0-0.7,0-1.1,0c-0.4,0-0.7,0-1.1,0c-0.4,0-0.7-0.4-1.1-0.4c-0.4-0.4-0.7,0-1.1,0c-0.4,0-0.7,0-1.1,0c-0.4,0-0.7,0-1.1,0
			c-0.4,0-0.7,0-1.1,0c-0.4,0-0.6,0-0.9,0c-0.4,0-0.7,0-1.1,0c-0.4,0-0.7,0-1.1,0c-0.4,0-0.7,0-1.1,0c-0.4,0-0.7,0-1.1,0
			c-0.4,0-0.7,0-1.1,0c-0.4,0-0.7,0-1.1,0c-0.4,0-0.7,0-1.1,0c-0.4,0-0.7,0-1.1,0c-0.4,0-0.7,0-1.1,0c-0.4,0-0.7,0-1.1,0
			c-0.4,0-0.7,0-1.1,0c-0.4,0-0.6,0-0.9,0c-0.4,0-0.7,0-1.1,0c-0.4,0-0.7,0-1.1,0.1c-0.4,0-0.7,0-1.1,0.1c-0.4,0-0.7,0-1.1,0.1
			c-0.4,0-0.7,0-1.1,0.1c-0.4,0-0.7,0-1.1,0.1c-0.4,0-0.7,0-1.1,0.1c-0.4,0-0.7,0-1.1,0.1c-0.4,0-0.7,0-1.1,0.1
			c-0.4,0-0.7,0-1.1,0.1c-0.4,0-0.6,0-0.9,0c-0.4,0-0.7,0-1.1,0.1c-0.4,0-0.7,0-1.1,0.1c-0.4,0-0.7,0-1.1,0.1c-0.4,0-0.7,0-1.1,0.1
			c-0.4,0-0.7,0-1.1,0.1c-0.4,0-0.7,0-1.1,0.1c-0.4,0-0.7,0-1.1,0.1c-0.5,0-0.8,0-1.3,0.1c-0.5,0-0.8,0-1.3,0.1
			C209.1,253.5,208.7,253.5,208.4,253.1z"/>
		<path d="M284.9,38.3c0.4,0,0.7,0,1.1,0c0.4,0,0.7,0,1.1,0c0.5,0,0.8,0,1.3,0c0.4,0,0.7,0,1.1,0c0.4,0,0.7,0,1.1,0s0.7,0,1.1,0
			c0.4,0,0.7,0,1.1,0c0.4,0,0.7,0,1.1,0c0.4,0,0.7,0,1.1,0c0.4,0,0.7,0,1.1,0c0.4,0,0.7,0,1.1,0c0.4,0,0.7,0,1.1,0
			c0.4,0,0.7,0,1.1,0c0.4,0,0.7,0,1.1,0c0.4,0,0.7,0,1.1,0c0.4,0,0.7,0,1.1,0c0.4,0,0.7,0,1.1,0s0.7,0,1.1,0c0.4,0,0.7,0,1.1,0
			c0.4,0,0.7,0,1.1,0c0.4,0,0.7,0,1.1,0c0.4,0,0.7,0,1.1,0c0.4,0,0.7,0,1.1,0c0.4,0,0.7,0,1.1,0c0.4,0,0.7,0,1.1,0s0.7,0,1.1,0
			c0.4,0,0.7,0,1.1,0c0.4,0,0.7,0,1.1,0c0.4,0,0.7,0,1.1,0.4c0.4,0.4,0.6,1.2,0.7,1.6c0.2,0.8,0.4,1.6,0.4,1.9c0,0.8,0,1.5-0.2,1.9
			c-0.2,0.8-0.2,1.5-0.4,2.3c0,0.8-0.2,1.5-0.4,2.2c0,0.9,0,1.3,0,2.2c0,0.7-0.2,1.5-0.2,2.2c0,0.9,0,1.3,0,2.2s0,1.3,0,2.1
			c0,0.7,0,1.4,0.2,2.1c0,1,0,1.5,0,2.4c0,0.7,0,1.4,0.2,2.1c0,0.7,0.2,1.4,0.2,2c0.2,0.7,0.2,1.3,0.2,2c0,0.7,0.2,1.3,0.2,2
			c0.2,1,0.2,1,0.2,2c0.2,0.7,0,1,0.2,1.9c0.2,1,0,1,0.2,1.6c0,1,0.2,1,0.4,1.9c0,0.9,0,0.9,0.2,2c0,1.1,0,1.1,0.2,2.2
			c0,1.1,0,1.1,0.2,2.2c0.2,1.1,0.2,1.1,0.2,2.2c0.2,1.1,0.2,1.1,0.2,2.1c0.2,1.1,0.2,1.1,0.2,2.1c0.2,1,0,1,0.2,2.1
			c0,1,0.2,1,0.2,2c0.2,1,0.2,0.7,0.4,1.7c0,0.8,0,1.2,0,2c0.1,0.8,0.2,1.2,0.4,2c0,1,0,1,0.2,1.9c0,1,0.2,1,0.2,1.9
			c0.1,0.8,0.2,1.1,0.4,1.9c0,1-0.2,1,0,1.9c0.1,0.8,0.2,1.1,0.4,1.9c0,0.9,0,0.9,0.2,1.9c0,0.7,0,1.1,0,1.8
			c0.2,0.9,0.2,0.6,0.4,1.5c0,0.9,0,0.9,0.2,1.8c0,0.9,0,0.9,0.2,1.8c0,0.9,0.2,0.9,0.2,1.8c0.2,0.9,0.2,0.9,0.2,1.8
			c0.2,0.9,0.2,0.9,0.2,1.8c0.2,0.9,0.2,0.9,0.2,1.8c0.1,0.7,0.2,1.1,0.4,1.8c0,0.9,0,0.9,0.2,1.8c0,0.9,0,0.9,0.2,1.8
			c0,0.9,0,0.6,0.2,1.5c0.2,0.9,0.2,0.9,0.2,1.8c0.2,0.9,0,0.9,0.2,1.8c0.1,0.7,0.2,1.1,0.4,1.8c0,0.7,0,1.1,0,1.9
			c0.2,0.9,0.4,0.9,0.4,1.9c0.2,0.9,0,0.9,0.2,1.9c0.2,0.9,0,0.9,0.2,1.9c0,1,0,1,0.2,1.9c0,1,0.2,1,0.2,1.9c0.2,0.6,0,1,0.2,1.6
			c0.1,0.8,0.2,1.2,0.4,2c0,0.8,0,1.2,0,2c0.2,1,0.2,1,0.2,2c0.1,0.8,0.2,1.2,0.4,2.1c0,1,0,1,0.2,2.1c0,1.1,0.2,1.1,0.2,2.1
			c0.2,1.1,0.2,1.1,0.2,2.2c0.1,0.9,0.2,1.3,0.4,2.2c0,0.9,0,1.3,0,2.2c0.2,0.8,0.2,0.7,0.2,1.9c0.1,0.9,0.2,1.4,0.4,2.3
			c0,1.2,0,1.2,0.2,2.4c0.2,1.2,0.2,1.2,0.2,2.4c0.2,1.2,0,1.2,0.2,2.5c0.1,1,0.2,1.5,0.4,2.5c0,1.3,0,1.3,0.2,2.6
			c0,1.3-0.2,1.3,0,2.6c0.1,1,0.2,1.6,0.4,2.7c0,0.9,0.2,0.9,0.2,2.3c0.2,1.4,0,1.4,0.2,2.8c0,1.4,0,1.4,0.2,2.8
			c0,1.4,0.2,1.4,0.2,2.9c0.2,1.5,0.2,1.5,0.2,2.9c0.1,1.2,0.2,1.8,0.4,3c0,1.2,0,1.6,0,2.3c0.1,0.8,0.2,1.1,0.4,1.9
			c0,1,0.2,1,0.2,1.9c0.2,0.6,0.2,0.6,0.2,1.6c0.2,1,0,1.3,0.2,2c0,0.7,0.2,1.3,0.4,2c0,0.8,0,1.2,0,2c0,0.7,0.2,1.3,0.4,2
			c0,0.8,0,1.2,0,2.1c0.2,0.7,0.2,1.4,0.4,2.1c0.2,0.7,0.4,1,0.4,1.8c0.2,0.7,0.4,1.4,0.4,2.1c0.2,0.7,0.2,1.4,0.4,2.2
			c0,0.7,0.4,1.1,0.4,1.8c0.2,0.9,0.3,1.3,0.6,2.2c0.2,0.4,0.4,1.1,0.6,1.9c0.2,0.7,0.4,1.1,0.6,1.9c0.3,0.6,0.4,0.9,0.7,1.5
			c0.2,0.8,0.4,1.5,0.4,1.9c0.2,0.8,0.2,1.5,0,2.3c0,0.8-0.4,1.2-0.6,1.6c-0.2,0.4-0.6,0.4-0.9,0.4c-0.4,0-0.7,0.4-1.1,0.4
			s-0.7-0.4-1.1-0.4c-0.4,0-0.7,0-1.1,0c-0.4,0-0.6,0-0.9,0c-0.4,0-0.7,0-1.1,0c-0.4,0-0.7,0-1.1,0c-0.4,0-0.7,0-1.1,0
			c-0.4,0-0.7,0-1.1,0c-0.4,0-0.7,0-1.1,0s-0.7,0-1.1,0c-0.4,0-0.7,0-1.1,0c-0.4,0-0.7,0-1.1,0c-0.4,0-0.5,0-0.9,0
			c-0.4,0-0.7,0-1.1,0c-0.4,0-0.7,0-1.1,0c-0.4,0-0.7,0-1.1,0c-0.4,0-0.7,0-1.1,0c-0.4,0-0.7,0-1.1,0c-0.4,0-0.7,0-1.1,0
			c-0.4,0-0.7,0-1.1,0c-0.4,0-0.7,0.4-0.9,0.4c-0.4,0-0.7-0.4-1.1-0.8c-0.4-0.4-0.5-0.8-0.7-1.6c-0.4-0.8-0.4-1.6-0.4-2
			c0-0.8,0-1.5,0.2-1.9c0-0.8,0.2-1.5,0.4-2.3c0.2-0.8,0.2-1.5,0.2-2.3c0.2-0.7,0-1.5,0.2-2.2c0-0.9,0-1.3,0-2.2
			c0-0.7,0.2-1.4,0.2-2.2c0-0.9,0-1.3,0-2.1c0-0.7-0.2-1.4-0.2-2.1c0-0.8,0-1.3,0-2.1c0-0.7-0.2-1.4-0.2-2.1
			c-0.2-0.7-0.2-1.4-0.2-2.4c0-0.3-0.2-1-0.2-2c-0.2-0.3-0.2-1.3-0.2-2c0-0.7,0-0.7-0.2-1.6c0-1,0-1-0.2-1.9c0-1,0-1-0.2-1.6
			c0-0.8,0-1.1,0-1.9c-0.2-0.9-0.4-0.6-0.4-1.6c0-1.5-0.4-2.5-0.6-3.5c-0.2-0.5-0.6-1.5-0.9-1.9c-0.4-0.5-0.7-1-1.3-0.9
			c-0.4,0-0.5,0-0.9,0c-0.4,0-0.7,0-1.1,0c-0.4,0-0.7,0-1.1,0c-0.4,0-0.7,0-1.1,0c-0.4,0-0.7,0-1.1,0c-0.5,0-0.5,0.5-1.1,0.5
			c-0.4,0-0.4-0.5-0.9-0.5c-0.5,0-0.5,0.5-1.1,0.5c-0.5,0-0.6-0.5-1.1-0.5c-0.5,0-0.5,0.5-1.1,0.5c-0.4,0-0.7,0-1.1,0
			c-0.4,0-0.4-0.5-0.9-0.5c-0.4,0-0.7,0-1.1,0c-0.4,0-0.7,0-1.1,0c-0.4,0-0.7,0-1.1,0c-0.4,0-0.7,0-1.1,0c-0.4,0-0.7,0.5-1.1,1
			c-0.4,0.5-0.9,1-1.1,1.9c-0.2,1-0.4,1.9-0.4,3.4c-0.2,1-0.2,0.7-0.2,1.6c-0.2,0.9-0.2,0.9-0.2,1.9c-0.2,0.6,0,0.9-0.2,1.6
			c0,1-0.2,1-0.2,1.9c-0.2,1-0.2,1-0.2,1.6c-0.2,0.7-0.2,1.3-0.2,2c-0.2,0.7-0.2,1.3-0.4,2c0,0.8,0,1.2,0,2c-0.2,1-0.2,1.7-0.2,2.4
			c0,0.8,0,1.2,0,2.1c0,0.7,0,1.4-0.2,2.1c0,0.9,0,1.3,0,2.1s0,1.3,0,2.2c0,0.7,0.2,1.5,0.2,2.2c0,0.9,0,1.3,0,2.2
			c0.2,0.7,0.2,1.5,0.4,2.3c0.2,0.8,0.2,1.5,0.4,2.3c0.2,0.4,0.2,1.2,0.2,1.9c0,0.8-0.2,1.2-0.4,2c-0.3,0.6-0.4,1-0.7,1.6
			c-0.4,0.4-0.7,0.4-1.1,0.4c-0.4,0-0.7,0-1.1,0c-0.4,0-0.7,0-1.1,0c-0.4,0-0.5,0-0.9,0c-0.4,0-0.7,0-1.1,0c-0.4,0-0.7,0-1.1,0
			c-0.4,0-0.7,0-1.1,0c-0.4,0-0.7,0-1.1,0c-0.4,0-0.7,0-1.1,0c-0.4,0-0.7,0-1.1,0s-0.7,0-1.1,0c-0.4,0-0.6,0-0.9,0
			c-0.4,0-0.7,0-1.1,0c-0.4,0-0.7,0-1.1,0c-0.4,0-0.7,0-1.1,0c-0.4,0-0.7,0-1.1,0c-0.4,0-0.7,0-1.1,0c-0.4,0-0.7,0-1.1,0
			c-0.4,0-0.7,0-1.1,0s-0.7,0-1.1,0c-0.2,0-0.6,0.4-0.9,0.4s-0.7-0.4-1.1-0.4s-0.7,0-0.9-0.4c-0.4-0.4-0.6-0.8-0.6-1.6
			c-0.2-0.8-0.2-1.6,0-2.4c0-0.4,0.2-1.2,0.4-1.6c0.4-0.8,0.5-1.6,0.7-2c0.3-0.5,0.4-1.6,0.5-1.9c0.2-0.8,0.4-1.5,0.5-1.9
			c0.2-0.9,0.3-1.4,0.5-2.3c0-0.7,0.2-1.1,0.4-1.9c0.2-0.7,0.2-1.5,0.4-2.2c0.2-0.7,0.2-1.4,0.2-2.1c0.2-0.7,0.4-1.1,0.5-1.8
			c0-0.7,0-1.4,0.2-2.1c0-0.7,0.2-1.4,0.2-2.1c0.2-0.7,0.2-1.4,0.2-2c0.2-0.7,0.2-1.3,0.4-2c0-0.8,0-1.2,0-2c0.2-1,0.2-1,0.4-1.6
			c0.2-0.9,0-1.3,0.2-1.9c0-0.9,0.2-1,0.2-1.9c0.1-0.8,0.2-1.1,0.4-1.9c0-0.9,0-0.8,0.2-2.2c0-1.4,0-1.4,0.2-2.9c0-1.1,0-1.7,0-2.8
			c0.1-1.1,0.2-1.7,0.4-2.8c0-1.4,0.2-1.4,0.2-2.7c0.2-1.3,0-1.3,0.2-2.7c0-1.3,0-1.4,0.2-2.6c0.1-0.8,0-1.3,0.2-2.1
			c0.2-1.2,0.2-1.3,0.2-2.5c0.2-1.3,0.2-1.3,0.2-2.5c0.1-1,0.2-1.5,0.4-2.5c0-1.2,0-1.2,0.2-2.4c0.2-1.2,0-1.2,0.2-2.4
			c0-1.2,0.2-1.2,0.2-2.3c0.1-0.9,0.2-1.4,0.4-2.3c0-1.1-0.2-1.1,0-2.3c0-1.1,0.2-1.1,0.4-1.9c0-1,0-1.6,0-2.6
			c0.2-0.7,0.2-0.7,0.2-1.8c0.1-0.9,0.2-1.3,0.4-2.2c0-1.1,0-1.1,0.2-2.1c0-1.1,0.2-1.1,0.4-2.1c0-0.8,0-1.2,0-2.1
			c0.2-1,0.2-1,0.2-2.1c0.2-1,0.2-1,0.2-2c0.2-1,0.2-1,0.2-2c0.2-1,0.2-1,0.4-1.7c0-1,0-1,0.2-2c0-1,0.2-1,0.2-2
			c0.2-1,0.2-1,0.2-1.9c0.2-1,0-1,0.2-1.9c0.1-0.8,0.2-1.2,0.4-1.9c0-1-0.2-1,0-1.9c0.1-0.8,0.2-1.1,0.4-1.9c0.2-0.9,0-0.9,0.2-1.9
			c0-0.9,0-0.9,0.2-1.9c0-0.9,0-0.9,0.2-1.9c0-0.6,0-0.6,0.2-1.6c0.2-0.9,0.2-0.9,0.2-1.9c0.1-0.7,0.2-1.1,0.4-1.9
			c0-0.7,0-1.1,0-1.9c0.1-0.7,0.2-1.1,0.4-1.9c0-0.7,0-1.1,0-1.9c0.2-0.9,0.4-0.9,0.4-1.9c0.2-0.9,0.2-0.9,0.2-1.9
			c0.2-0.9,0-0.9,0.2-1.9c0.2-0.9,0.2-0.6,0.4-1.6c0-1-0.2-1.3,0-1.9c0-1,0.2-1,0.4-1.9c0.2-1,0-1,0.2-1.9c0.2-1,0-1,0-1.9
			c0.2-1,0.4-1,0.4-2c0.2-1,0.2-1,0.2-2c0.2-1,0.2-1,0.2-2c0.2-1,0.2-1,0.2-2c0.2-1,0.2-1,0.2-2c0.2-0.7,0.2-0.7,0.4-1.7
			c0-1,0-1,0.2-2.1c0.2-1,0.2-1,0.2-2.1c0.2-1.1,0-1.1,0.2-2.1c0-1.1,0-1.1,0.2-2.2c0-1.1,0.2-1.1,0.2-2.2c0.2-1.1,0.2-1.1,0.2-2.2
			c0.1-0.9,0.2-1.3,0.4-2c0-1,0-1,0.2-1.9c0-0.8,0-1.2,0-2c0.2-1,0.2-1,0.2-1.6c0.2-1,0.2-1,0.2-2c0.2-0.7,0.2-1.3,0.4-2
			c0-0.7,0-1.3,0.2-2c0-0.7,0-1.4,0.2-2c0-0.8,0-1.2,0-2.1c0-1,0.2-1.7,0.2-2.4c0-0.8,0-1.3,0-2.1c0-0.7,0.2-1.4,0.2-2.1
			c0-0.9,0-1.3,0-2.2c0-0.7,0-1.5-0.2-2.2c0-0.7,0-1.5-0.2-2.2c0-0.7-0.2-1.5-0.4-2.3c0-0.8-0.2-1.5-0.4-2.3c-0.2-0.4-0.2-1.1,0-1.9
			c0-0.4,0-1.2,0.4-1.9c0.2-0.4,0.4-0.8,0.7-1.2c0.4-0.4,0.5-0.8,0.9-0.8C284.3,38.3,284.5,38.3,284.9,38.3z M293.1,160.6
			c0.2,0.7,0.4,1,0.6,1.7c0.4,0.7,0.6,1.4,0.9,1.7c0.4,0.3,0.7,0,1.3,0c0.5,0,0.6,0.3,1.1,0.3c0.4,0,0.7,0,1.1,0c0.4,0,0.7,0,1.1,0
			c0.4,0,0.7,0,1.1,0c0.4,0,0.7,0,1.1,0c0.4,0,0.7,0,1.1,0c0.4,0,0.7,0,1.1,0c0.5,0,0.5-0.4,1.1-0.4c0.5,0,0.9,0,1.3-0.4
			c0.2-0.4,0.5-0.7,0.7-1.4c0.4-0.7,0.5-1.1,0.7-1.8c0-1,0-1.5,0-2.4c-0.2-1,0-1-0.2-2c0-1,0-1-0.2-2c0-1-0.2-1-0.4-2c0-1,0.2-1,0-2
			c0-1,0-1-0.2-1.9c0-1-0.2-1-0.4-1.9c0-0.8,0-1.2,0-1.9c-0.1-0.8-0.2-1.1-0.4-1.9c0-0.9,0-0.9-0.2-1.9c0-0.9,0-0.9-0.2-1.9
			c0-0.9,0-0.9-0.2-1.9c0-0.9,0-1.3,0-2.2c-0.1-0.7-0.2-1.1-0.4-1.8c0-0.9,0-0.9-0.2-1.8c-0.2-0.9-0.2-0.9-0.2-1.8
			c-0.2-0.9-0.2-0.9-0.2-1.8c-0.2-0.9,0-0.9-0.2-1.8c0-0.9,0-0.9-0.2-1.8c0-0.7,0-1.1,0-1.8c-0.2-0.9-0.2-0.9-0.2-1.8
			c0-0.9-0.2-0.9-0.4-1.8c0-0.9,0.2-0.9,0-1.8c0-0.9-0.2-0.9-0.2-1.9c-0.2-0.9,0-0.9,0-1.9c-0.1-0.7-0.2-1.1-0.4-1.9
			c0-0.9,0-0.9-0.2-1.9c0-1,0-0.9-0.2-1.9c0-0.8,0-1.2,0-1.9c-0.2-1-0.2-1-0.2-1.9c-0.2-1,0-1-0.2-2c0-1-0.2-1-0.2-2s0-1-0.2-2
			c0-1-0.2-1-0.2-2c0-0.8,0-1.2,0-2.1c-0.2-1-0.2-1-0.2-2.1c-0.2-1-0.2-1-0.2-2.1c-0.2-0.7-0.6-1.8-0.9-1.8c-0.6,0-0.7,1.1-0.9,1.8
			c0,1.1-0.2,1.1-0.2,2.1c-0.2,1-0.2,1-0.2,2.1c-0.2,1,0,1,0,2.1c-0.1,0.8-0.2,1.2-0.4,2c0,1,0,1-0.2,2c0,0.8,0,1.2,0,2
			c-0.2,1-0.2,1-0.2,2c-0.2,1-0.2,1-0.2,1.9c0,1-0.2,1-0.2,1.9c-0.2,1-0.2,1-0.2,1.9c0,1-0.2,1-0.2,1.9c0,0.8,0,1.1,0,1.9
			c0,0.9-0.2,0.9-0.2,1.9c0,0.9-0.2,0.9-0.2,1.9c-0.2,0.9-0.2,0.9-0.2,1.9c-0.2,0.9-0.2,0.9-0.2,1.9c0,0.9,0,0.9-0.2,1.8
			c0,0.7,0,1.1,0,1.8c-0.2,0.9-0.2,0.9-0.2,1.8c-0.2,0.9,0,0.9-0.2,1.8c0,0.9,0,0.9-0.2,1.8c0,0.9-0.2,0.9-0.2,1.8
			c-0.2,0.9-0.2,0.9-0.2,1.9c-0.2,1.2-0.2,1.2-0.2,2.2c-0.2,0.9-0.2,0.9-0.2,1.9c-0.2,0.9-0.2,0.9-0.2,1.9c-0.1,0.8-0.2,1.1-0.4,1.9
			c0,0.9,0,0.9-0.2,1.9c0,1-0.2,1-0.2,1.9c-0.2,1,0,1-0.2,1.9c-0.2,1,0,1-0.2,2c0,1-0.2,1-0.2,2c-0.2,1-0.2,1-0.2,2
			c-0.2,1-0.2,1-0.2,2c-0.2,1-0.2,1-0.2,2c-0.2,1-0.2,1-0.2,2.1C292.9,158.9,293.1,159.9,293.1,160.6z"/>
		<path d="M339.7,249.6c-0.2-0.4-0.6-0.4-0.7-1.2c-0.2-0.8-0.2-1.6-0.2-1.9c0-0.8,0.2-1.5,0.4-1.9c0.2-0.9,0.3-1.4,0.6-2.3
			c0.2-0.4,0.4-1.1,0.4-1.9c0.2-0.9,0.3-1.3,0.6-2.2c0.2-0.7,0.2-1.5,0.4-2.2c0-0.9,0-1.3,0-2.2c0.2-0.7,0.2-1.4,0.4-2.1
			c0-1,0-1.5,0-2.5c0-0.7,0.2-1.4,0.2-2.1c0-0.8,0-1.2,0-2.1c0-0.7,0.2-1.4,0.2-2c0-0.8,0-1.2,0-2c0-0.7-0.2-1.3-0.2-2.3
			c0-1,0.2-1,0.2-2c0-0.8,0-1.2,0-1.9c0-1-0.2-1-0.2-1.9c0-0.8,0-1.1,0-1.9c0-0.9,0.2-1,0.2-2c0-1.5-0.2-1.5-0.2-3c0-1.2,0-1.8,0-3
			c0-1.2,0-1.8,0-2.9c0-1.4,0.2-1.4,0.2-2.8c0-1.4-0.2-1.4-0.2-2.8c0-1.1,0-1.6,0-2.7c0-1.3,0.2-1.3,0.2-2.7c0-1.1,0-1.6,0-2.6
			c0-1.3-0.2-1.3-0.2-2.6c0-1,0-1.5,0-2.5c0-1,0-1.5,0-2.5c0-1.2,0.2-1.2,0.2-2.4c0-1,0-1.4,0-2.4c0-0.9,0-1.4,0-2.3
			c0-1.2-0.2-1.1-0.2-2.3c0-1.1,0.2-1.1,0.2-2.2c0-1.1-0.2-1.1-0.2-2.2c0-0.9,0-1.3,0-2.2c0-0.9,0-1.3,0-2.1c0-0.8,0-1.3,0-2.1
			c0-0.8,0-1.2,0-2.1c0-0.8,0-1.2,0-2s0-1.2,0-2c0-1,0.2-1,0.2-2c0-1-0.2-1-0.2-1.9c0-0.8,0-1.2,0-1.9c0-0.8,0-1.1,0-1.9
			c0-0.9,0.2-1,0.2-1.9c0-0.9-0.2-0.9-0.2-1.9c0-0.7,0-1.1,0-1.9c0-0.9,0.2-0.9,0.2-1.8c0-0.7,0-1.1,0-1.8c0-0.9-0.2-0.9-0.2-1.8
			c0-0.7,0-1.1,0-1.8c0-0.7,0-1.1,0-1.8c0-0.9,0.2-0.9,0.2-1.8c0-0.9-0.2-0.9-0.2-1.8s0.2-0.9,0.2-1.8c0-0.7,0-1.1,0-1.8
			c0-0.7,0-1.1,0-1.8c0-0.7,0-1.1,0-1.8c0-0.9-0.2-0.9-0.2-1.8c0-0.7,0-1.1,0-1.8c0-0.7,0-1.1,0-1.8c0-0.7,0-1.1,0-1.8
			c0-0.9,0.2-0.9,0.2-1.8c0-0.7,0-1.1,0-1.9s0-1.1,0-1.9c0-0.9-0.2-0.9-0.2-1.9c0-1,0.2-1,0.2-1.9c0-0.8,0-1.2,0-1.9
			c0-1-0.2-1-0.2-1.6c0-1,0.2-1,0.2-2c0-1-0.2-1-0.2-2c0-1,0.2-1,0.2-2c0-0.8,0-1.2,0-2.1c0-1-0.2-1-0.2-2.1c0-1.1,0.2-1.1,0.2-2.1
			c0-0.9,0-1.3,0-2.2c0-1.1-0.2-1.1-0.2-2.2c0-1.1,0.2-1.1,0.2-2.2c0-0.9,0-1.3,0-2.1c0-0.9-0.2-0.9-0.2-1.9c0-0.9,0.2-0.9,0.2-1.9
			c0-1-0.2-1-0.2-1.9c0-0.8,0-1.2,0-1.9c0-0.7,0.2-1.3,0.2-2.3c0-0.8,0-1.2,0-2c-0.2-0.7-0.2-1.3-0.2-2S341,62.7,341,62
			c0-0.7,0.2-1.4,0.2-2.1c-0.2-0.7-0.2-1.4-0.4-2.1c0-1,0-1.5,0-2.5c-0.2-0.7-0.2-1.4-0.4-2.2c0-0.7-0.2-1.5-0.2-2.2
			c-0.2-0.7-0.4-1.5-0.4-2.2c-0.2-0.4-0.4-1.1-0.6-1.9c-0.2-0.8-0.4-1.5-0.6-1.9c-0.2-0.8-0.2-1.5-0.2-2.3c-0.2-0.4-0.2-1.2,0-2
			c0.2-0.4,0.4-1.2,0.7-1.6c0.2-0.4,0.5-0.4,0.9-0.4c0.4,0,0.7,0,1.1,0c0.4,0,0.7,0,1.1,0c0.4,0,0.7,0,1.1,0c0.4,0,0.7,0,1.1,0
			c0.4,0,0.7,0,1.1,0c0.4,0,0.5,0,0.9,0c0.4,0,0.7,0,1.1,0c0.4,0,0.7,0,1.1,0c0.4,0,0.7,0,1.1,0c0.4,0,0.7,0,1.1,0
			c0.4,0,0.7,0,1.1,0s0.7,0,1.1,0c0.4,0,0.7,0,1.1,0c0.4,0,0.5,0,0.9,0c0.4,0,0.7,0,1.1,0s0.7,0,1.1,0c0.4,0,0.7,0,1.1,0
			c0.4,0,0.7,0,1.1,0c0.4,0,0.7,0,1.1,0.4c0.4,0.4,0.5,1.1,0.7,1.6c0.2,0.4,0.6,1.2,0.7,2s0.2,0.8,0.4,1.9c0.1,0.9,0.2,1.4,0.4,2.3
			c0.2,1.1,0.2,1.2,0.4,1.9c0.2,1.1,0.4,1.1,0.6,2.2c0.2,1.1,0.2,1.1,0.4,1.8c0.1,0.9,0.2,1.3,0.4,2.2c0.1,0.9,0.2,1.3,0.4,2.2
			c0.2,0.7,0.2,0.7,0.6,1.8c0.1,0.8,0.2,1.3,0.4,2.1c0.2,1,0.2,1,0.4,1.7c0.1,0.8,0.2,1.2,0.4,2c0.1,0.8,0.2,1.2,0.4,2
			c0.2,1,0.2,0.7,0.4,1.7c0.1,0.8,0.2,1.2,0.4,2c0.4,0.6,0.2,1,0.6,1.6c0.1,0.8,0.2,1.2,0.4,1.9c0.2,0.6,0.2,1,0.4,1.9
			c0.1,0.6,0.2,0.6,0.4,1.6c0.1,0.7,0.2,1,0.4,1.9c0.2,1.1,0.2,1.1,0.4,1.9c0.1,0.9,0.2,1.3,0.4,2.2c0.2,1.1,0.4,0.7,0.6,1.8
			c0.1,0.9,0.2,1.3,0.4,2.2c0.1,0.9,0.2,1.3,0.4,2.1c0.2,0.7,0.2,0.7,0.6,1.7c0.1,0.8,0.2,1.2,0.4,2.1c0.2,0.7,0,1,0.4,1.7
			c0.1,0.8,0.2,1.2,0.4,2c0.2,1,0.3,0.7,0.6,1.6c0.2,0.9,0,1,0.2,1.9c0.1,0.8,0.2,1.2,0.4,1.9c0.2,1,0.4,0.6,0.6,1.6
			c0.1,0.8,0.2,1.1,0.4,1.9c0.2,0.6,0.2,1,0.4,1.9c0.1,0.6,0.2,0.6,0.4,1.5c0.1,0.7,0.2,1.1,0.4,1.8c0.2,0.6,0.4,0.6,0.6,1.5
			c0.1,0.7,0.2,1.1,0.4,1.8c0.2,0.6,0.2,0.9,0.4,1.5c0.1,0.7,0.2,1.1,0.4,1.8c0.2,0.9,0.4,0.9,0.6,1.5c0,0.6,0.4,1.2,0.7,1.2
			c0.4,0,0.7-0.6,0.9-1.2c0.2-0.6,0.2-0.6,0.4-1.5c0.1-0.7,0.2-1.1,0.4-1.8c0.2-0.9,0.2-0.6,0.4-1.5c0.1-0.7,0.2-1.1,0.4-1.8
			c0.2-0.9,0.4-0.6,0.5-1.5c0.2-0.9,0.1-1,0.4-1.8c0.2-0.8,0-0.9,0.4-1.8c0.2-0.6,0.2-0.6,0.4-1.6c0.1-0.8,0.2-1.1,0.4-1.9
			c0.2-0.9,0.2-0.9,0.4-1.6c0.1-0.8,0.2-1.2,0.4-1.9c0.2-1,0.4-1,0.5-1.6c0.1-0.8,0.2-1.2,0.4-2c0.1-0.8,0.2-1.2,0.4-2
			c0.2-0.7,0.2-0.7,0.5-1.7c0.1-0.8,0.2-1.2,0.4-2.1c0.2-0.7,0.2-1,0.4-1.8c0.1-0.8,0.2-1.3,0.4-2.1c0.1-0.9,0.2-1.3,0.4-2.2
			c0.2-0.7,0.2-0.7,0.4-1.9c0.2-1.1,0.3-1.2,0.5-2.3c0.1-0.7,0-1.2,0.2-1.9c0.2-1.1,0.4-1,0.5-2c0.2-0.9,0.2-1,0.4-1.6
			c0.2-0.9,0.3-1,0.5-1.9c0.2-0.9,0-1,0.4-1.9c0.2-0.6,0.2-0.6,0.4-1.6c0.1-0.8,0.2-1.2,0.4-2c0.2-1,0.2-1,0.4-1.7
			c0.1-0.8,0.2-1.2,0.4-2c0.1-0.8,0.2-1.2,0.4-2.1c0.2-0.7,0.2-0.7,0.4-1.7c0.2-1,0.3-1.1,0.5-2.1c0.2-1,0.2-0.7,0.4-1.8
			c0.1-0.9,0.2-1.3,0.4-2.2c0.2-1.1,0.2-1.1,0.4-1.8c0.1-0.9,0.2-1.3,0.4-2.2c0.2-1.1,0.3-1.2,0.5-2.3c0.1-0.7,0.2-0.8,0.4-1.9
			c0.1-0.9,0.2-1.4,0.4-2.3c0.2-0.8,0.1-0.8,0.4-2c0.1-0.8,0.4-1.6,0.5-2c0.4-0.8,0.6-1.2,0.9-1.7c0.4-0.4,0.7-0.4,1.1-0.4
			c0.4,0,0.7,0,1.1,0c0.4,0,0.7,0,1.1,0c0.4,0,0.7,0,1.1,0s0.7,0,1.1,0c0.4,0,0.6,0,0.9,0c0.4,0,0.7,0,1.1,0c0.6,0,0.6,0.4,1.1,0.4
			c0.6,0,0.6-0.4,1.1-0.5c0.4,0,0.7,0,1.1,0c0.4,0,0.7,0,1.1,0c0.4,0,0.7,0,1.1,0c0.4,0,0.6,0,0.9,0c0.4,0,0.7,0,1.1,0
			c0.4,0,0.7,0,1.1,0c0.4,0,0.7,0,1.1,0c0.4,0,0.7,0,1.1,0c0.4,0,0.7,0,1.1,0c0.4,0,0.7,0,1.1,0c0.4,0,0.7,0.1,0.9,0.4
			c0.3,0.4,0.6,1.2,0.7,1.6c0,0.8,0.2,1.6,0.2,2c0,0.8-0.2,1.6-0.4,2.4c-0.2,0.4-0.4,1.2-0.6,2c-0.2,0.8-0.4,1.2-0.6,2
			c-0.2,0.8-0.2,1.5-0.4,2.3c-0.2,0.8-0.2,1.5-0.4,2.3c0,0.7,0,1.5-0.2,2.2c0,0.7,0,1.5-0.2,2.5c0,0.9,0,1.3,0,2.1
			c0,0.7-0.2,1.4-0.2,2.1c0,0.8,0,1.3,0,2.1c0,0.8,0,1.2,0,2s0,1.2,0,2c-0.2,1-0.2,1.7-0.2,2.3c0,0.8,0,1.2,0,1.9c0,0.8,0,1.2,0,1.9
			c0,0.9,0.2,0.9,0.2,1.9c0,0.9-0.2,0.9-0.2,1.9c0,0.9,0.2,0.9,0.2,2.1c0,1.2-0.2,1.2-0.2,2.3c0,1.1,0.2,1.1,0.2,2.3
			c0,1.1-0.2,1.1-0.2,2.2c0,1.1,0.2,1.1,0.2,2.2c0,1.1-0.2,1.1-0.2,1.8c0,0.8,0,1.3,0,2.1c0,1,0.2,1,0.2,2.1c0,1-0.2,1-0.2,2
			c0,0.8,0,1.2,0,2c0,0.8,0,1.2,0,2c0,0.8,0,1.2,0,1.9c0,0.8,0,1.1,0,1.9c0,0.8,0,1.1,0,1.9s0,1.1,0,1.9c0,0.7,0,1.1,0,1.8
			c0,0.9,0.2,0.9,0.2,1.8c0,0.7,0,1.1,0,1.8c0,0.9-0.2,0.9-0.2,1.8c0,0.7,0,1.1,0,1.8c0,0.9,0.2,0.9,0.2,1.8c0,0.7,0,1.1,0,1.8
			c0,0.9-0.2,0.9-0.2,1.8c0,0.7,0,1.1,0,1.8c0,0.9,0.2,0.9,0.2,1.7c0,0.9-0.2,0.9-0.2,1.8c0,0.7,0,1.1,0,1.8c0,0.7,0,1.1,0,1.8
			c0,0.9,0.2,0.9,0.2,1.8c0,0.9-0.2,0.9-0.2,1.8c0,0.7,0,1.1,0,1.8c0,0.7,0,1.1,0,1.8c0,0.9,0.2,0.9,0.2,1.8c0,0.7,0,1.1,0,1.8
			c0,0.9-0.2,0.9-0.2,1.9c0,0.9,0.2,0.9,0.2,1.9c0,0.8,0,1.1,0,1.9c0,1-0.2,1-0.2,2c0,0.8,0,1.2,0,2c0,1,0.2,1,0.2,2s-0.2,1-0.2,2
			c0,0.8,0,1.2,0,2.1c0,0.8,0,1.3,0,2.1c0,1.1,0.2,1.1,0.2,2.2c0,0.9,0,1.3,0,2.2c0,0.9,0,1.3,0,2.3c0,0.9,0,1.4,0,2.3
			c0,1.2-0.2,1.2-0.2,2.4c0,0.9,0,1.4,0,2.4c0,1.2,0.2,1.2,0.2,2.5c0,1.2-0.2,1.2-0.2,2.5c0,1.3,0.2,1.3,0.2,2.6c0,1,0,1.6,0,2.6
			c0,1.1,0,1.6,0,2.7c0,1.4-0.2,1.4-0.2,2.8c0,1.1,0,1.7,0,2.8c0,1.1,0,1.7,0,2.9c0,1.5,0.2,1.5,0.2,3c0,1.5-0.2,1.5-0.2,2.5
			c0,1.2,0,1.9,0,3.1c0,1.3,0,1.9,0,3.2c0,1.6,0.2,1.6,0.2,3.3c0,1.7-0.2,1.7-0.2,2.7c0,0.8,0,1.2,0,2c0,0.8,0,1.2,0,2
			c0,1,0.2,1,0.2,2c0,1-0.2,1-0.2,2c0,1,0.2,1.7,0.2,2.4c0,0.7-0.2,1.4,0,2.1c0,0.7-0.2,1.4-0.2,2.1c0.2,0.7,0.2,1.4,0.2,2.1
			c0.2,0.7,0.2,1.4,0.2,2.1c0,1,0,1.5,0,2.5c0,0.7,0.2,1.5,0.4,2.2c0,0.7,0,1.5,0.2,2.2c0,0.7,0.2,1.5,0.2,2.2
			c0.2,0.7,0.2,1.5,0.4,2.2s0.4,1.5,0.5,1.9c0.2,0.9,0.3,1.4,0.5,2.3c0.2,0.4,0.2,1.2,0.4,1.9c0,0.4-0.2,1.1-0.4,1.9
			c-0.2,0.4-0.4,1.1-0.5,1.5c-0.4,0-0.5,0.4-0.9,0.4c-0.4,0-0.7,0-1.1,0c-0.4,0-0.7,0-1.1,0c-0.4,0-0.7,0-1.1,0c-0.4,0-0.7,0-1.1,0
			c-0.4,0-0.7,0-1.1,0c-0.4,0-0.7,0-1.1,0c-0.4,0-0.7,0-1.1,0c-0.4,0-0.7,0-1.1,0c-0.4,0-0.7,0-1.1,0c-0.4,0-0.7,0-1.1,0
			c-0.4,0-0.7,0-1.1,0c-0.4,0-0.7,0-1.1,0c-0.4,0-0.7,0-1.1,0c-0.4,0-0.7,0-1.1,0c-0.4,0-0.7,0-1.1,0c-0.4,0-0.7,0-1.1,0
			c-0.4,0-0.7,0-1.1,0c-0.4,0-0.7,0.4-1.1,0.4c-0.4,0-0.7-0.4-1.1-0.4c-0.4,0-0.7,0-1.1,0c-0.4,0-0.7,0-1.1,0
			c-0.4,0-0.5-0.4-0.9-0.8c-0.2-0.4-0.5-0.8-0.7-1.2c0-0.8,0-1.2,0-1.9c0-0.8,0-1.5,0.2-1.9c0.2-0.9,0.3-1.4,0.5-2.3
			c0.2-0.7,0.4-1.1,0.5-1.9c0.2-0.7,0.2-1.5,0.4-2.2c0-0.7,0.2-1.5,0.2-2.2c0.2-0.7,0.2-1.5,0.2-2.2c0.2-0.7,0.2-1.4,0.2-2.2
			c0-0.7,0.2-1.4,0.2-2.5c0-0.7,0-1.4,0.2-2.1c0-0.8,0-1.3,0-2.1c0-0.7,0.2-1.4,0.2-2.1c0-0.7-0.2-1.4-0.2-2.1c0-1,0-1.4,0-2.4
			c0-1,0.2-1,0.2-2s-0.2-1-0.2-2c0-1,0.2-1,0.2-2c0-1-0.2-1-0.2-2c0-1,0.2-1,0.2-2.7c0-1.6-0.2-1.6-0.2-2.7c0-1.3,0-1.9,0-3.1
			c0-1.2,0-1.8,0-3.1c0-1.5,0.2-1.5,0.2-3c0-1.5-0.2-1.5-0.2-2.9c0-1.2,0-1.7,0-2.8c0-1.1,0-1.7,0-2.8c0-1.4,0.2-1.4,0.2-2.7
			c0-1.3-0.2-1.3-0.2-2.7c0-1.1,0-1.6,0-2.6c0-1.3,0.2-1.3,0.2-2.5c0-1,0-1.5,0-2.5c0-1,0-1.5,0-2.4c0-1.2-0.2-1.2-0.2-2.4
			c0-0.9,0-1.4,0-2.3c0-1.2,0.2-1.2,0.2-2.3c0-0.9,0-1.3,0-2.2c0-1.1-0.2-1.1-0.2-2.2c0-0.9,0-1.3,0-2.1c0-1.1,0.2-1.1,0.2-2.1
			c0-0.8,0-1.2,0-2.1c0-0.8,0-1.2,0-2c0-1-0.2-1-0.2-2c0-1,0.2-1,0.2-2c0-0.8,0-1.2,0-1.9c0-1-0.2-1-0.2-1.9c0-0.8,0-1.1,0-1.9
			c0-0.9,0.2-0.9,0.2-1.9c0-0.9-0.2-0.9-0.2-1.8c0-0.9,0.2-0.9,0.2-1.8c0-0.7,0-1.1,0-1.8c0-0.9-0.2-0.9-0.2-1.8
			c0-0.9,0.2-0.9,0.2-1.8c0-0.7,0-1.1,0-1.8c0-0.9-0.2-0.9-0.2-1.8c0-0.6-0.2-1.5-0.7-1.5c-0.4,0-0.7,0.3-0.9,0.9
			c-0.1,0.7-0.2,1.1-0.4,1.8c-0.4,0.9-0.3,0.9-0.5,1.8c-0.1,0.6-0.2,0.6-0.4,1.5c-0.1,0.7-0.2,1.1-0.4,1.8c-0.1,0.7-0.2,1.1-0.4,1.8
			c-0.2,0.9-0.4,0.6-0.5,1.5c-0.2,0.9,0.1,1-0.2,1.8c-0.3,0.9-0.3,1-0.5,1.9c-0.1,0.6-0.4,0.6-0.5,1.6c-0.2,0.9,0,0.9-0.2,1.9
			s-0.3,1-0.5,1.9c-0.1,0.6-0.2,0.6-0.4,1.6c-0.1,0.8-0.2,1.2-0.4,2c-0.4,1-0.4,1-0.5,1.7c-0.1,0.8-0.2,1.2-0.4,2
			c-0.1,0.8-0.2,1.2-0.4,2.1c-0.1,0.8-0.2,1.3-0.4,2.1c-0.2,0.7-0.2,1.1-0.4,1.8c-0.2,1-0.4,1.1-0.5,2.2c-0.2,1.1-0.2,1.1-0.5,1.9
			c-0.1,0.9-0.2,1.3-0.4,2.3c-0.2,1.1,0.1,1.2-0.2,2.3c-0.3,1.1-0.4,1.2-0.5,2.3c-0.2,1.2-0.1,0.9-0.4,2c-0.3,1.1-0.1,1.3-0.4,2.4
			c-0.3,1.2-0.2,1.2-0.4,2.5c-0.2,1.3-0.2,1.3-0.5,2.1c-0.1,1-0.2,1.5-0.4,2.6c-0.2,0.9-0.4,1.8-0.5,2.2c-0.2,0.9-0.7,0.9-0.9,1.3
			c-0.4,0.5-0.7,0.9-1.1,0.9c-0.7,0-0.7-0.4-1.3-0.4c-0.5,0-0.8,0-1.3,0c-0.4,0-0.7,0-1.1-0.4c-0.4-0.4-0.6-0.9-0.9-1.3
			c-0.2-0.4-0.4-1.3-0.6-2.2c-0.1-1-0.2-1.6-0.4-2.6c-0.2-1.3-0.2-1.3-0.4-2.1c-0.1-1-0.2-1.5-0.4-2.5c-0.4-1.2-0.3-1.3-0.6-2.4
			c-0.3-1.1-0.1-0.9-0.4-2c-0.3-1.1-0.2-1.2-0.6-2.3c-0.1-0.9-0.2-1.4-0.4-2.3c-0.2-0.7,0-1.1-0.4-1.9c-0.1-0.9-0.2-1.3-0.4-2.2
			c-0.2-1.1-0.2-1.1-0.6-2.1c-0.2-0.7,0-1.1-0.2-1.8c-0.2-1-0.4-1-0.6-2.1c-0.1-0.8-0.2-1.2-0.4-2c-0.1-0.8-0.2-1.2-0.4-2
			c-0.2-0.7-0.4-0.7-0.6-1.6c-0.1-0.8-0.2-1.2-0.4-2c-0.2-1-0.2-0.7-0.4-1.6c-0.1-0.8-0.2-1.2-0.4-1.9c-0.2-1-0.3-1-0.6-1.9
			c-0.1-0.6-0.2-0.6-0.4-1.6c-0.1-0.7-0.2-1.1-0.4-1.9c-0.1-0.7-0.2-1.1-0.4-1.8c-0.2-0.9-0.2-0.9-0.4-1.5c-0.4-0.9-0.2-0.9-0.6-1.8
			c-0.1-0.7-0.2-1.1-0.4-1.8c-0.2-0.9-0.2-0.6-0.6-1.5c-0.1-0.7-0.2-1.1-0.4-1.8c-0.1-0.7-0.2-1.1-0.4-1.8c-0.2-0.6-0.6-0.9-0.9-0.9
			c-0.5,0-0.9,0.9-0.9,1.5c0,0.9,0.2,0.9,0.2,1.8c0,0.9-0.2,0.9-0.2,1.8c0,0.7,0,1.1,0,1.8c0,0.7,0,1.1,0,1.8s0,1.1,0,1.8
			c0,0.9,0.2,0.9,0.2,1.8c0,0.7,0,1.1,0,1.9c0,0.9-0.2,0.9-0.2,1.9c0,0.9,0.2,0.9,0.2,1.9c0,0.8,0,1.1,0,1.9c0,0.8,0,1.2,0,1.9
			c0,1-0.2,1-0.2,2c0,1,0.2,1,0.2,2c0,1-0.2,1-0.2,2c0,1,0.2,1,0.2,2.1c0,0.8,0,1.3,0,2.1c0,1.1-0.2,1.1-0.2,2.1
			c0,1.1,0.2,1.1,0.2,2.2c0,0.9,0,1.3,0,2.2c0,1.1-0.2,1.1-0.2,2.3c0,1.1,0.2,1.1,0.2,2.3c0,1.2-0.2,1.2-0.2,2.3
			c0,1.2,0.2,1.2,0.2,2.4c0,1.2-0.2,1.2-0.2,2.4c0,1,0,1.5,0,2.5c0,1.3,0.2,1.3,0.2,2.5c0,1,0,1.5,0,2.6c0,1.3-0.2,1.3-0.2,2.7
			c0,1.1,0,1.6,0,2.7c0,1.1,0,1.6,0,2.8c0,1.4,0.2,1.4,0.2,2.8c0,1-0.2,0.9-0.2,2.4c0,1.2,0,1.8,0,2.9c0,1.2,0,1.8,0,3
			c0,1.5,0.2,1.5,0.2,3.1c0,1.2,0,1.8,0,2.6c0,0.8,0,1.1,0,1.9c0,1-0.2,1-0.2,1.9c0,0.8,0,1.2,0,2c0,1,0.2,1,0.2,2
			c0,1-0.2,1.7-0.2,2.3c0,0.8,0,1.2,0,2s0,1.2,0,2c0.2,0.7,0.4,1.4,0.4,2.1c0,0.8,0,1.3,0,2.1c0,1.1,0,1.8,0.2,2.5
			c0,0.7,0,1.4,0.2,2.1c0,0.7,0,1.4,0.2,2.2c0,0.7,0.2,1.5,0.2,2.2c0.2,0.7,0.4,1.5,0.4,2.2c0.2,0.7,0.4,1.5,0.6,1.9
			c0.2,0.9,0.3,1.4,0.6,2.3c0.2,0.4,0.4,1.2,0.4,1.9c0,0.4-0.2,1.2-0.4,1.9c-0.2,0.4-0.4,1.2-0.5,1.5c-0.4,0-0.5,0.4-0.9,0.4
			c-0.4,0-0.7,0-1.1,0c-0.4,0-0.7,0-1.1,0c-0.4,0-0.7,0-1.1,0c-0.4,0-0.7,0-1.1,0c-0.4,0-0.7,0-1.1,0s-0.7,0-1.1,0
			c-0.4,0-0.7,0-1.1,0c-0.4,0-0.7,0-1.1,0c-0.4,0-0.7,0-1.1,0c-0.4,0-0.7,0-1.1,0c-0.4,0-0.7,0-1.1,0c-0.4,0-0.7,0-1.1,0
			c-0.4,0-0.7,0-1.1,0c-0.4,0-0.7,0-1.1,0c-0.4,0-0.7,0-1.1,0c-0.4,0-0.7,0-1.1,0c-0.4,0-0.7,0.4-1.1,0.4c-0.4,0-0.7-0.4-1.1-0.4
			c-0.4,0-0.7,0-1.1,0c-0.4,0-0.7,0-1.1,0c-0.4,0-0.7,0-1.1,0C340.2,250.3,340,249.9,339.7,249.6z"/>
		<path d="M426.9,252c-0.2-0.4-0.5-0.8-0.7-1.6c-0.2-0.8-0.2-1.6-0.2-1.9c0-0.8,0.2-1.5,0.4-2.3c0.2-0.4,0.4-1.1,0.5-1.9
			c0.2-0.7,0.4-1.5,0.4-2.2c0.2-0.4,0.4-1.1,0.5-1.8c0-0.7,0.2-1.5,0.4-2.2c0-0.7,0.2-1.5,0.2-2.2c0-0.7,0.2-1.5,0.2-2.2
			c0-1,0-1.5,0-2.5c0-0.7,0.2-1.4,0.2-2.1c0-0.9,0-1.3,0-2.1c0-0.8,0-1.3,0-2.1s0-1.3,0-2.1c0-0.7,0.2-1.4,0.2-2.4
			c0-1-0.2-1-0.2-2.1s0.2-1,0.2-2c0-1-0.2-1-0.2-2c0-1,0.2-1,0.2-2c0-0.7,0-1.1,0-2.2c0-1.3,0-2,0-3.3c0-1.6-0.2-1.6-0.2-3.2
			c0-1.6,0.2-1.6,0.2-3.2c0-1.6-0.2-1.6-0.2-3.1c0-1.2,0-1.8,0-3c0-1.2,0-1.8,0-2.9c0-1.4,0.2-1.4,0.2-2.9c0-1.4-0.2-1.4-0.2-2.8
			c0-1.4,0.2-1.4,0.2-2.7c0-1.1,0-1.6,0-2.7c0-1.3-0.2-1.3-0.2-2.6c0-1,0-1.5,0-2.5c0-1,0-1.5,0-2.5c0-1.2,0.2-1.2,0.2-2.4
			c0-1,0-1.4,0-2.4c0-1.2-0.2-1.2-0.2-2.3c0-1.1,0.2-1.1,0.2-2.3c0-0.9,0-1.3,0-2.2c0-0.9,0-1.3,0-2.2c0-0.9,0-1.3,0-2.1
			c0-0.8,0-1.3,0-2.1c0-1-0.2-1-0.2-2c0-0.8,0-1.2,0-2c0-1,0.2-1,0.2-2c0-0.8,0-1.2,0-2s0-1.2,0-1.9c0-1-0.2-0.9-0.2-1.9
			c0-0.9,0.2-0.9,0.2-1.9c0-0.7,0-1.1,0-1.8c0-0.9-0.2-0.9-0.2-1.8c0-0.9,0.2-0.9,0.2-1.8c0-0.7,0-1.1,0-1.8c0-0.9-0.2-0.9-0.2-1.8
			c0-0.9,0.2-0.9,0.2-1.8c0-0.7,0-1.1,0-1.8c0-0.9-0.2-0.9-0.2-1.8c0-0.9,0.2-0.9,0.2-1.8c0-0.9-0.2-0.9-0.2-1.7
			c0-0.9,0.2-0.9,0.2-1.8c0-0.7,0-1.1,0-1.8c0-0.7,0-1.1,0-1.8s0-1.1,0-1.8s0-1.1,0-1.8c0-0.7,0-1.1,0-1.8c0-0.7,0-1.1,0-1.8
			c0-0.9-0.2-0.9-0.2-1.8c0-0.7,0-1.1,0-1.8c0-0.9,0.2-0.9,0.2-1.9c0-0.9-0.2-0.9-0.2-1.9c0-0.9,0.2-0.9,0.2-1.9c0-1-0.2-1-0.2-1.9
			c0-1,0.2-1,0.2-1.6c0-0.8,0-1.2,0-2c0-0.8,0-1.2,0-2c0-0.8,0-1.2,0-2.1s0-1.2,0-2.1c0-0.8,0-1.3,0-2.1c0-0.9,0-1.3,0-2.2
			c0-1.1-0.2-1.1-0.2-2.2c0-1.1,0.2-1.1,0.2-2.3c0-1.1-0.2-1.1-0.2-2.3c0-1.2,0.2-1.2,0.2-2.1c0-0.7,0-1.1,0-1.9
			c0-0.9-0.2-0.9-0.2-1.9c0-0.8,0-1.1,0-1.9c0-0.8,0-1.2,0-1.9c0-0.7,0.2-1.3,0.2-2.3c0-0.7-0.2-1.3-0.2-2c0-0.7,0.2-1.4,0-2
			c0-0.8,0-1.2,0-2.1s0-1.3,0-2.1c-0.2-0.7-0.2-1.4-0.4-2.1c0-1.1,0-1.8-0.2-2.5c0-0.7,0-1.5-0.2-2.2c0-0.7-0.2-1.5-0.2-2.3
			c-0.2-0.8-0.4-1.1-0.6-1.9c0-0.8-0.2-1.5-0.4-2.3c-0.2-0.8-0.4-1.6-0.6-2c-0.2-0.8-0.4-1.6-0.4-2.4c0-0.4,0-1.2,0.2-2
			c0.2-0.8,0.6-0.8,0.7-1.3c0.4-0.4,0.6-0.4,0.9-0.5c0.4,0,0.7-0.5,1.1-0.5c0.4,0,0.7,0,1.1-0.1c0.4,0,0.7,0.4,1.1,0.4
			c0.4,0,0.7-0.5,1.1-0.5c0.4,0,0.7,0,1.1-0.1c0.4,0,0.7,0,1.1-0.1c0.4,0,0.7,0,1.1-0.1c0.4,0,0.7,0,1.1-0.1c0.4,0,0.6,0,0.9,0
			c0.4,0,0.7,0,1.1-0.1c0.4,0,0.7,0,1.1-0.1c0.4,0,0.7,0,1.1-0.1c0.4,0,0.7,0,1.1-0.1c0.4,0,0.7,0,1.1-0.1c0.4,0,0.7,0,1.1-0.1
			c0.4,0,0.7,0,1.1-0.1c0.4,0,0.7,0,1.1-0.1c0.4,0,0.7,0,1.1-0.1c0.4,0,0.6,0,0.9-0.1c0.4,0,0.7,0,1.1-0.1c0.4,0,0.7,0,1.1-0.1
			c0.4,0,0.7,0,1.1-0.1c0.4,0,0.7,0,1.1-0.1c0.4,0,0.7,0.4,1.1,0.4c0.4,0,0.7,0,1.1-0.1c0.4,0,0.7-0.5,1.1-0.5c0.4,0,0.7,0,1.1-0.1
			c0.4,0,0.7,0.4,1.1,0.4c0.4,0,0.6-0.5,0.9-0.5c0.4,0,0.7,0,1.1-0.1c0.4,0,0.7,0,1.1-0.1c0.4,0,0.7,0,1.1-0.1c0.4,0,0.7,0,1.1-0.1
			c0.4,0,0.7,0,1.1-0.1c0.4,0,0.7,0.4,1.1-0.1c0.4,0,0.7,0,1.1-0.1c0.4,0,0.7,0,1.1-0.1c0.4,0,0.7,0,1.1-0.1c0.4,0,0.7-0.5,1.1-0.5
			c0.4,0,0.7,0,1.1-0.5c0.4,0,0.6,0,0.9-0.1c0.4-0.5,0.7-0.9,1.1-0.9c0.4-0.5,0.7-0.5,1.1-0.5c0.4,0.4,0.7,0.4,1.1,0.8
			c0.4,0.4,0.7,1.3,0.9,1.7c0.3,0.6,0.4,1.7,0.4,2.5c0,0.8,0,1.7,0.2,2.5c0,0.8,0.2,1.6,0.2,2.5c0.2,0.8,0.2,1.6,0.4,2.4
			c0,0.8,0.2,1.6,0.2,2.4s0.2,1.6,0.2,2.3c0.2,0.8,0.2,1.5,0.4,2.3c0,0.8,0,1.5,0.2,2.2c0,0.7,0.2,1.1,0.2,1.8
			c0.2,0.7,0.2,1.5,0.4,2.2c0,0.7,0,1.4,0.2,2.1c0,0.7,0.2,1.4,0.2,2.1c0.2,0.7,0.2,1.4,0.4,2.1c0,0.7,0,1.4,0.2,2
			c0,0.7,0.2,1.3,0.2,2c0,0.7,0.2,1.3,0.2,2c0.2,0.6,0.2,1.3,0.2,1.9c0.2,0.6,0.2,0.9,0,1.6c0,0.3-0.2,1-0.4,1.3
			c-0.4,0.3-0.7,0.3-1.1,0.1c-0.2,0-0.6,0-0.9-0.3c-0.4,0-0.5-0.6-0.9-0.9c-0.4,0-0.7-0.6-1.1-0.6c-0.2-0.3-0.5-0.6-0.9-0.6
			c-0.4-0.3-0.7-0.3-1.1-0.3c-0.4-0.3-0.7-0.6-1.1-0.6c-0.4,0-0.7-0.3-1.1-0.3c-0.4,0-0.7,0-1.1,0c-0.2-0.3-0.5-0.6-0.9-0.6
			c-0.4,0-0.7,0.4-1.1,0.4c-0.4-0.3-0.7-0.3-1.1-0.3c-0.4,0-0.7-0.3-1.1-0.3c-0.4,0-0.7,0-1.1,0c-0.4,0-0.7,0-1.1,0
			c-0.6,0-0.6,0.3-1.1,0.4c-0.4,0-0.7,0-1.1,0c-0.4,0-0.6,0-0.9,0c-0.6,0-0.6-0.3-1.1-0.3c-0.4,0-0.7,0-1.1,0
			c-0.6,0-0.6,0.3-1.1,0.4c-0.4,0-0.6,0-0.9,0c-0.6,0-0.6-0.3-1.1-0.3c-0.4,0-0.7,0-1.1,0c-0.4,0-0.7,0-1.1,0c-0.4,0-0.6,0-0.9,0
			c-0.4,0-0.9,0-1.1,0.4c-0.4,0.3-0.6,1-0.9,1.3c-0.2,0.3-0.4,1-0.6,1.6c-0.2,0.6-0.2,0.9-0.2,1.6c0,0.7,0,1.1,0,2.1
			c0,1.2-0.2,1.2-0.2,2.4c0,0.9,0,1.4,0,2.3c0,1.1,0.2,1.1,0.2,2.3c0,1.1-0.2,1.1-0.2,2.2c0,1.1,0.2,1.1,0.2,2.2c0,0.9,0,1.3,0,2.1
			c0,1-0.2,1.1-0.2,2.1c0,1,0.2,1,0.2,2c0,0.8,0,1.2,0,2c0,0.8,0,1.2,0,2c0,1-0.2,1-0.2,1.9c0,0.8,0,1.2,0,1.9
			c0,0.9,0.2,0.9,0.2,1.9c0,0.9-0.2,0.9-0.2,1.9s0.2,0.9,0.2,1.8c0,0.7,0,1.1,0,1.8c0,0.7,0,1.1,0,1.8c0,0.7,0,1.1,0,1.8
			c0,0.6,0,1.2,0.2,1.8c0.2,0.6,0.4,0.9,0.5,1.5c0.2,0.3,0.5,0.9,0.9,0.9c0.4,0.3,0.7,0.3,1.1,0.3c0.4,0,0.5,0,0.9,0
			c0.4,0,0.5,0,0.9,0c0.4,0,0.5,0,0.9,0c0.4,0,0.7,0.3,1.1,0.3c0.4,0,0.7-0.3,1.1-0.3c0.4,0,0.7,0,1.1,0c0.5,0,0.8,0,1.3,0
			c0.4,0,0.7-0.3,1.1-0.3s0.7,0,1.1-0.3c0.4,0,0.7,0,1.1-0.3c0.4,0,0.7,0,1.1-0.3c0.4,0,0.7-0.3,1.1-0.6c0.4,0,0.7-0.3,1.1-0.3
			c0.4-0.3,0.7-0.9,1.1-1.2c0.2-0.3,0.6-0.3,0.9-0.6c0.4-0.3,0.6-0.6,0.9-0.6c0.4,0,0.7,0,0.9,0.3c0.4,0.3,0.5,0.6,0.7,1.2
			c0.2,0.3,0.4,0.9,0.4,1.5c0,0.6-0.2,1.2-0.2,1.8c0,0.6,0.2,1.2,0.2,1.8c0,0.6-0.2,1.2-0.2,1.8c0,0.7,0,1.1,0,1.8
			c0,0.6,0.2,1.2,0.2,1.7c0,0.6-0.2,1.2-0.2,1.8c0,0.7,0,1.1,0,1.8c0,0.6,0.2,0.9,0.2,1.5c0,0.6-0.2,1.2-0.2,1.8s0.2,1.2,0.2,1.8
			c0,0.7,0,1.1,0,1.8c0,0.7,0,1.1,0,1.8c0,0.6-0.2,1.2-0.2,1.9c0,0.6,0.2,1.2,0.2,1.9c0,0.6-0.2,1.3-0.2,1.9c0,0.6,0.2,1.3,0.2,1.9
			c0,0.8,0,1.2,0,2c0,0.8,0,1.2,0,2c0,0.7-0.2,1.4-0.4,1.7c-0.2,0.7-0.4,1-0.7,1.4c-0.2,0.3-0.5,0.4-0.9,0.4c-0.4,0-0.5-0.3-0.9-0.7
			c-0.4-0.4-0.7-0.6-1.1-1c-0.2,0-0.5-0.7-0.9-0.7c-0.4-0.4-0.7-0.6-1.1-1c-0.4-0.3-0.7-0.3-1.1-0.3c-0.4-0.3-0.7-0.3-1.1-0.6
			c-0.4,0-0.7-0.3-1.1-0.3c-0.4,0-0.7,0-1.1,0c-0.4,0-0.7-0.3-1.1-0.3c-0.5,0-0.8,0-1.3,0c-0.4,0-0.7,0-1.1,0
			c-0.4-0.3-0.7-0.3-1.1-0.3c-0.4,0-0.7,0-1.1,0c-0.4,0-0.5,0-0.9,0c-0.5,0-0.5,0.3-0.9,0.3c-0.4,0-0.5,0-0.9,0
			c-0.4,0-0.7,0-1.1,0.4c-0.4,0.3-0.7,0.6-0.9,1c-0.2,0.3-0.4,1-0.6,1.7c-0.2,0.7-0.2,1.4-0.2,2c0,0.8,0,1.2,0,2.1c0,0.7,0,1,0,1.8
			c0,1.1-0.2,1.1-0.2,2.2c0,0.9,0,1.3,0,2.2c0,1.1,0.2,1.1,0.2,2.2c0,0.9,0,1.4,0,2.3c0,1.2-0.2,1.2-0.2,2.3c0,0.9,0,1.4,0,2.4
			c0,1.2,0.2,1.2,0.2,2.5c0,1,0,1.5,0,2.5c0,1,0,1.5,0,2.6c0,1,0,1.6,0,2.6c0,1.3-0.2,1.3-0.2,2.7c0,1.1,0,1.6,0,2.8
			c0,1.4,0.2,1.4,0.2,2.8c0,1.4-0.2,1.4-0.2,2.9c0,1.2,0,1.8,0,3s0,1.8,0,3.1c0,1.2,0,1.9,0,3.1s0,1.9,0,3.2c0,1.6,0.2,1.6,0.2,3.3
			c0,1.3,0,2,0,3.4c0,1.7-0.2,1.5-0.2,2.6c0,0.8,0,1.2,0,2c0,0.7,0,1,0,1.7c0,0.8,0,1.2,0,2.1c0,0.8,0,1.3,0,2.1
			c0,1,0.2,1.8,0.2,2.5c0,0.8,0,1.3,0,2.1c0,0.7-0.2,1.4,0,2.1c0,0.7,0,1.4,0.2,2.2c0,0.9,0,1.3,0,2.2c0,0.7,0.2,1.8,0.2,2.6
			c0,0.7,0,1.5,0.2,2.2c0,0.7,0.2,1.5,0.2,2.2c0.2,0.8,0.2,1.5,0.4,2.3c0,0.7,0.2,1.5,0.4,1.9c0.2,0.8,0.2,1.5,0.4,2.3
			c0.2,0.9,0.3,1.4,0.5,2.3c0.2,0.4,0.4,1.2,0.4,1.9c0,0.4,0,1.2-0.2,1.9c-0.2,0.8-0.4,1.1-0.7,1.5c-0.2,0.4-0.5,0.4-0.9,0.3
			c-0.4,0-0.7,0-1.1-0.1c-0.4,0-0.7,0-1.1-0.1c-0.4,0-0.7,0-1.1-0.1c-0.4,0-0.7,0-1.1-0.1c-0.4,0-0.7,0-1.1-0.1
			c-0.4,0-0.7,0-1.1-0.1c-0.4,0-0.7,0-1.1-0.1c-0.4,0-0.7,0-1.1-0.1c-0.4,0-0.7,0-1.1-0.1c-0.4,0-0.7,0-1.1-0.1
			c-0.4,0-0.7,0-1.1-0.1c-0.4,0-0.7,0-1.1-0.1s-0.7,0-1.1-0.1c-0.4,0-0.7,0-1.1-0.1c-0.4,0-0.7,0-1.1-0.1c-0.4,0-0.7,0-1.1-0.1
			c-0.4,0-0.7,0-1.1-0.1c-0.4,0-0.7,0-1.1,0c-0.4,0-0.7,0-1.1,0c-0.4,0-0.7,0-1.1,0c-0.4,0-0.7,0-1.1,0
			C427.5,252.4,427.3,252.4,426.9,252z"/>
		<path d="M484.2,255.3c-0.2-0.4-0.4-1.2-0.5-1.6c-0.2-0.8-0.2-1.6-0.2-2c0-0.8,0-1.6,0.2-2.3c0.2-0.4,0.4-1.1,0.6-1.9
			c0.2-0.8,0.4-1.5,0.6-1.9c0-0.8,0.4-1.5,0.4-2.3c0.2-0.7,0.2-1.5,0.2-2.3c0-0.8,0.2-1.5,0.4-2.2c0-0.9,0-1.4,0-2.2
			c0.2-0.7,0.4-1.5,0.4-2.6c0-0.7-0.2-1.5,0-2.2c0-0.7,0.2-1.5,0.2-2.2c0-0.9,0-1.3,0-2.2c0-0.7-0.2-1.5-0.2-2.2
			c0.2-0.7,0.2-1.4,0.2-2.5c0-0.9,0-1.3,0-2.2c0-0.9,0-1.3,0-2.1c0-0.9,0-1.3,0-2.1c0-0.9,0-1.3,0-2.1c0-1.1-0.2-1.1-0.2-2.3
			c0-1.8,0.2-1.8,0.2-3.6c0-1.4,0-2.1,0-3.5c0-1.7-0.2-1.7-0.2-3.4c0-1.7,0.2-1.7,0.2-3.3c0-1.3,0-1.9,0-3.2c0-1.6-0.2-1.6-0.2-3.1
			c0-1.2,0-1.8,0-3c0-1.5,0.2-1.5,0.2-2.9c0-1.2,0-1.7,0-2.9c0-1.1,0-1.7,0-2.8c0-1.1,0-1.6,0-2.7c0-1.1,0-1.6,0-2.7
			c0-1.3-0.2-1.3-0.2-2.6c0-1.3,0.2-1.3,0.2-2.5c0-1,0-1.5,0-2.5c0-1,0-1.5,0-2.4c0-0.9,0-1.4,0-2.3c0-0.9,0-1.4,0-2.3
			c0-0.9,0-1.4,0-2.2c0-0.9,0-1.3,0-2.2c0-0.9,0-1.3,0-2.1c0-1.1-0.2-1.1-0.2-2.1c0-0.8,0-1.2,0-2.1c0-1,0.2-1,0.2-2
			c0-1-0.2-1-0.2-2c0-1,0.2-1,0.2-2c0-1-0.2-1-0.2-1.9c0-1,0.2-1,0.2-1.9c0-0.8,0-1.1,0-1.9c0-0.7,0-1.1,0-1.8c0-0.7,0-1.1,0-1.8
			c0-0.7,0-1.1,0-1.8c0-0.7,0-1.1,0-1.8c0-0.7,0-1.1,0-1.8c0-0.7,0-1.1,0-1.8c0-0.9-0.2-0.9-0.2-1.8c0-0.9,0.2-0.9,0.2-1.8
			c0-0.7,0-1.1,0-1.8c0-0.7,0-1.1,0-1.8c0-0.7,0-1.1,0-1.8c0-0.7,0-1.1,0-1.8c0-0.9-0.2-0.9-0.2-1.8c0-0.9,0.2-0.9,0.2-1.8
			c0-0.7,0-1.1,0-1.8c0-0.7,0-1.1,0-1.8c0-0.7,0-1.1,0-1.8c0-0.9-0.2-0.9-0.2-1.9c0-0.7,0-1.1,0-1.9c0-0.9,0.2-1,0.2-1.9
			c0-0.8,0-1.2,0-1.9c0-1-0.2-1-0.2-2c0-1,0.2-1,0.2-1.7c0-0.8,0-1.2,0-2c0-1-0.2-1-0.2-2.1c0-1,0.2-1.1,0.2-2.1c0-0.9,0-1.3,0-2.2
			c0-1.1-0.2-1.1-0.2-2.2c0-1.1,0.2-1.1,0.2-2.3c0-0.9,0-1.4,0-2.3c0-0.9,0-1.4,0-2.4c0-1,0-1.4,0-2.4c0-1,0-1.4,0-2.2
			c0-0.7,0-1.1,0-1.9c0-0.8,0-1.1,0-1.9c0-1-0.2-1-0.2-1.9c0-1,0.2-1,0.2-2c0-0.9,0-1.4,0-2.4c0-0.8,0-1.2,0-2.1s0-1.3,0-2.1
			c0-0.7-0.2-1.4-0.2-2.1c-0.2-0.7-0.2-1.4-0.2-2.2c0-1,0-1.5,0-2.6c0-0.7-0.2-1.5-0.2-2.3c-0.2-0.8-0.2-1.5-0.4-2.3
			c0-0.8-0.2-1.5-0.2-2.3c-0.2-0.8-0.2-1.6-0.4-2.4c-0.2-0.8-0.4-1.2-0.5-2c-0.2-0.8-0.4-1.6-0.5-2c-0.2-0.8-0.2-1.7-0.2-2.5
			c0-0.4-0.2-1.3,0-2.1c0.2-0.9,0.6-1.3,0.7-1.8c0.4-0.5,0.7-0.5,0.9-0.5c0.4,0,0.7,0,1.1-0.1c0.4,0,0.7,0,1.1-0.1
			c0.4,0,0.7-0.1,1.1-0.1c0.4,0,0.7-0.1,1.1-0.1c0.4,0,0.7-0.1,1.1-0.1c0.4,0,0.7-0.1,1.1-0.1c0.4,0,0.7-0.1,1.1-0.1
			c0.4,0,0.7-0.1,1.1-0.1c0.4,0,0.7-0.1,1.1-0.1c0.4,0,0.7-0.1,1.1-0.1c0.4,0,0.7-0.1,1.1-0.1c0.4,0,0.7,0.4,1.1,0.4
			c0.4,0,0.7-0.5,1.1-0.5c0.4,0,0.7-0.1,1.1-0.1c0.4,0,0.7-0.1,1.1-0.1c0.4,0,0.7-0.1,1.1-0.1c0.4,0,0.7-0.1,1.1-0.1
			c0.4,0,0.7-0.1,1.1-0.1c0.4,0,0.7-0.1,1.1-0.1c0.4,0,0.7-0.1,1.1-0.1c0.4,0,0.7-0.1,1.1-0.1c0.4,0,0.7,0.4,0.9,0.4
			c0.4,0.4,0.5,0.8,0.7,1.7c0.2,0.9,0.2,1.7,0.2,2.2c0,0.9-0.2,1.7-0.4,2.2c-0.2,1-0.3,1.6-0.6,2.6c-0.2,0.4-0.4,1.3-0.6,2.1
			c0,0.8-0.2,1.6-0.2,2.5c-0.2,0.8-0.2,1.6-0.4,2.4c0,0.8-0.2,1.6-0.2,2.4c0,0.8-0.2,1.6-0.4,2.7c0,0.9,0,1.4,0,2.3
			c0,0.7-0.2,1.5-0.2,2.2c0,0.9,0,1.3,0,2.2s0,1.3,0,2.1c0,0.8,0,1.3,0,2.1c0,1-0.2,1.7-0.2,2.4c0,1,0.2,1,0.2,2c0,0.8,0,1.2,0,2
			c0,0.8,0,1.2,0,1.9c0,0.8,0,1.1,0,1.9c0,0.8,0,1.2,0,2.2c0,1,0,1.5,0,2.5s0,1.4,0,2.4c0,1.2-0.2,1.2-0.2,2.3
			c0,1.2,0.2,1.1,0.2,2.3c0,1.1-0.2,1.1-0.2,2.2c0,0.9,0,1.3,0,2.2c0,0.7,0.2,0.7,0.2,1.8c0,0.8,0,1.3,0,2.1s0,1.2,0,2.1
			c0,1-0.2,1-0.2,2c0,1,0.2,1,0.2,2c0,0.8,0,1.2,0,2c0,0.8,0,1.2,0,1.9c0,1-0.2,1-0.2,1.9s0.2,0.9,0.2,1.9c0,0.7,0,1.1,0,1.9
			c0,0.7,0,1.1,0,1.8c0,0.9-0.2,0.9-0.2,1.8c0,0.7,0,1.1,0,1.8s0,1.1,0,1.8c0,0.9,0.2,0.9,0.2,1.8c0,0.7,0,1.1,0,1.8
			c0,0.7,0,1.1,0,1.8c0,0.9-0.2,0.9-0.2,1.8c0,0.9,0.2,0.9,0.2,1.8c0,0.7,0,1.1,0,1.8s0,1.1,0,1.8c0,0.7,0,1.1,0,1.8
			c0,0.7,0,1.1,0,1.8c0,0.7,0,1.1,0,1.8c0,0.7,0,1.1,0,1.8c0,0.9-0.2,0.9-0.2,1.9c0,0.9,0.2,0.9,0.2,1.9c0,0.8,0,1.1,0,1.9
			c0,0.8,0,1.2,0,1.9c0,0.8,0,1.2,0,2c0,1-0.2,1-0.2,2c0,0.8,0,1.2,0,2c0,1,0.2,1,0.2,2.1c0,0.8,0,1.3,0,2.1c0,1.1-0.2,1.1-0.2,2.2
			c0,0.9,0,1.3,0,2.2c0,1.1,0.2,1.1,0.2,2.3c0,0.9,0,1.4,0,2.3c0,0.9,0,1.4,0,2.4c0,1.2-0.2,1.2-0.2,2.4c0,1.2,0.2,1.2,0.2,2.5
			c0,1.3-0.2,1.3-0.2,2.6s0.2,1.3,0.2,2.6c0,1.1,0,1.6,0,2.7c0,1.1,0,1.7,0,2.8c0,1.4-0.2,1.4-0.2,2.9c0,1.2,0,1.7,0,2.9
			c0,1.2,0,1.8,0,3c0,1.5,0.2,1.5,0.2,3.1c0,1.3,0,1.9,0,3.2s0,1.9,0,3.3c0,1.3,0,2,0,3.4c0,1.4,0,2.1,0,3.5c0,1.4,0,2.1,0,3.6
			c0,1.4,0,2.2,0,3.7c0,1.5,0,1.9,0,2.8c0,0.9,0,1.3,0,2.2c0.3,0.6,0.4,0.9,0.7,1.5c0.4,0.7,0.5,1.1,0.9,1.5c0.4,0,0.7,0.4,1.1,0.4
			c0.5,0,0.6-0.3,1.1-0.3c0.4,0,0.4,0.4,0.9,0.4c0.4,0,0.7,0,1.1,0.1c0.4,0,0.7,0,1.1,0.1c0.4,0,0.7,0,1.1,0.1c0.4,0,0.7,0,1.1,0.1
			c0.5,0,0.6-0.3,1.1-0.3c0.4,0,0.4,0.4,0.9,0.4c0.5,0,0.6-0.3,1.1-0.3c0.4,0,0.7,0.4,1.1,0.4c0.4,0,0.7,0,1.1,0.1
			c0.4,0,0.7,0,1.1,0.1c0.4,0,0.7-0.3,1.1-0.3c0.4,0,0.7-0.3,1.1-0.3c0.4,0,0.7,0,1.1,0.1c0.4,0,0.7,0,1.1,0.1
			c0.4-0.4,0.7-0.7,1.1-0.7c0.2-0.4,0.6-0.3,0.9-0.3c0.4-0.3,0.7-0.3,1.1-0.7c0.4,0,0.7-0.3,1.1-0.7c0.4,0,0.6-0.7,0.9-0.7
			c0.4-0.3,0.7-0.7,0.9-1.1c0.4-0.3,0.7-0.7,1.1-0.7c0.2,0,0.6,0,0.9,0.4c0.2,0.4,0.4,1.1,0.5,1.5c0,0.8,0.2,1.5,0,1.9
			c0,0.8-0.2,1.5-0.2,2.2c-0.2,0.7-0.4,1.5-0.4,2.2c-0.2,0.7-0.2,1.5-0.2,2.3c-0.2,0.7-0.2,1.5-0.2,2.3c-0.2,0.7-0.2,1.5-0.4,2.3
			c0,0.8,0,1.5-0.2,2.3c0,0.8-0.2,1.5-0.2,2.3c-0.2,0.8-0.2,1.5-0.2,2.3c-0.2,0.8-0.2,1.5-0.4,2.3c0,0.8-0.2,1.5-0.2,2.3
			c0,0.8-0.2,1.5-0.2,1.9c-0.2,0.8-0.2,1.5-0.4,2.3c0,0.8,0,1.6-0.2,2.3c0,0.8-0.2,1.6-0.2,2.3c-0.2,0.8-0.4,1.5-0.4,2.3
			c0,0.8-0.2,1.6-0.2,2.4c-0.2,0.8-0.2,1.6-0.4,2.4c-0.2,0.4-0.6,1.2-0.9,1.5c-0.2,0.4-0.6,0.7-1.1,0.7c-0.4,0-0.7-0.1-1.1-0.5
			c-0.4,0-0.5-0.5-0.9-0.9c-0.4,0-0.7-0.1-1.1-0.5c-0.4,0-0.7,0.3-1.1-0.1c-0.4,0-0.7-0.5-1.1-0.5c-0.4,0-0.7-0.1-1.1-0.1
			c-0.4,0-0.7-0.1-1.1-0.1c-0.4,0-0.7-0.1-1.1-0.1c-0.4,0-0.7-0.1-1.1-0.1c-0.4,0-0.7-0.1-1.1-0.1c-0.2,0-0.5-0.5-0.9-0.1
			c-0.4,0-0.7-0.1-1.1-0.1c-0.4,0-0.7-0.1-1.1-0.1c-0.4,0-0.7-0.1-1.1-0.1c-0.4,0-0.7-0.1-1.1-0.1c-0.4,0-0.7-0.1-1.1-0.1
			c-0.4,0-0.7-0.1-1.1-0.1c-0.4,0-0.7-0.1-1.1-0.1s-0.7-0.1-1.1-0.1c-0.4,0-0.7-0.1-1.1-0.1c-0.4,0-0.7-0.1-1.1-0.1
			c-0.4,0-0.7-0.1-1.1-0.1c-0.4,0-0.7-0.1-1.1-0.1s-0.7-0.1-1.1-0.1c-0.4,0-0.7-0.1-1.1-0.1c-0.4,0-0.5,0-0.9-0.1
			c-0.4,0-0.7-0.1-1.1-0.1c-0.4,0-0.7-0.1-1.1-0.1c-0.4,0-0.7-0.1-1.1-0.1c-0.4,0-0.7-0.1-1.1-0.1c-0.4,0-0.7-0.1-1.1-0.1
			c-0.4,0-0.7-0.1-1.1-0.1c-0.4,0-0.7-0.1-1.1-0.1c-0.4,0-0.7-0.1-1.1-0.1c-0.4,0-0.7-0.1-1.1-0.1c-0.4,0-0.7-0.1-1.1-0.1
			c-0.4,0-0.7,0-1.1-0.1s-0.7,0-1.1-0.1c-0.4,0-0.7,0-1.1-0.1c-0.4,0-0.7,0-1.1-0.1c-0.4,0-0.7,0-1.1-0.1
			C484.9,255.8,484.5,255.7,484.2,255.3z"/>
		<path d="M539.4,260.2c-0.3-0.4-0.5-0.9-0.7-1.7c-0.2-0.8-0.2-1.6-0.2-2c0-0.8,0.2-1.6,0.4-2c0.2-0.9,0.3-1.4,0.6-2.3
			c0.2-0.4,0.2-1.6,0.4-2.3c0.2-0.4,0.4-1.1,0.4-1.9c0.2-0.9,0.3-1.4,0.6-2.3c0-0.8,0-1.6,0.2-2.3c0-0.9,0-1.4,0-2.3
			c0-0.8,0.2-1.9,0.2-2.7c0-0.9,0-1.4,0-2.3c0-0.8,0.2-1.5,0.2-2.3c0-0.9,0-1.4,0-2.3c0-0.9,0-1.4,0-2.3c0-1.1,0-1.6,0-2.7
			c0-0.9,0-1.4,0-2.3s0-1.4,0-2.3c0-1.1,0.2-1.1,0.2-2.3c0-0.9,0-1.4,0-2.3c0-0.8,0-1.2,0-2.5c0-1.5,0-2.3,0-3.8
			c0-1.9-0.2-1.9-0.2-3.7c0-1.8,0.2-1.8,0.2-3.6c0-1.4,0-2.1,0-3.5c0-1.7-0.2-1.7-0.2-3.4c0-1.7,0.2-1.7,0.2-3.3c0-1.3,0-1.9,0-3.2
			c0-1.6-0.2-1.6-0.2-3.1c0-1.2,0-1.8,0-3c0-1.2,0-1.8,0-3c0-1.5,0.2-1.5,0.2-2.9c0-1.4-0.2-1.4-0.2-2.8c0-1.4,0.2-1.4,0.2-2.7
			c0-1.3-0.2-1.3-0.2-2.7c0-1.3,0.2-1.3,0.2-2.6c0-1.3-0.2-1.3-0.2-2.5c0-1.2,0.2-1.2,0.2-2.5c0-1,0-1.5,0-2.4c0-0.9,0-1.4,0-2.3
			c0-1.2-0.2-1.2-0.2-2.3c0-0.9,0-1.4,0-2.2c0-0.9,0-1.3,0-2.2c0-1.1,0.2-1.1,0.2-2.1c0-0.8,0-1.3,0-2.1c0-1-0.2-1-0.2-2.1
			c0-1,0.2-1,0.2-2c0-0.8,0-1.2,0-2c0-1-0.2-1-0.2-2c0-0.8,0-1.2,0-1.9c0-1,0.2-1,0.2-1.9c0-0.9-0.2-0.9-0.2-1.9
			c0-0.9,0.2-0.9,0.2-1.9c0-0.9-0.2-0.9-0.2-1.8c0-0.9,0.2-0.9,0.2-1.8c0-0.9-0.2-0.9-0.2-1.8c0-0.7,0-1.1,0-1.8
			c0-0.9,0.2-0.9,0.2-1.8c0-0.9-0.2-0.9-0.2-1.8c0-0.9,0.2-0.9,0.2-1.8c0-0.9-0.2-0.9-0.2-1.8c0-0.9,0.2-0.9,0.2-1.8
			c0-0.7,0-1.1,0-1.8c0-0.9-0.2-0.9-0.2-1.8c0-0.9,0.2-0.9,0.2-1.9c0-0.9-0.2-0.9-0.2-1.9c0-0.9,0.2-0.9,0.2-1.9
			c0-0.9-0.2-0.9-0.2-1.9c0-0.8,0-1.2,0-1.9c0-1,0.2-1,0.2-2c0-1-0.2-1-0.2-2c0-1,0.2-1,0.2-2c0-0.7,0-1,0-1.7c0-0.8,0-1.3,0-2.1
			c0-0.9,0-1.3,0-2.1c0-0.9,0-1.3,0-2.2s0-1.3,0-2.2s0-1.4,0-2.3c0-0.9,0-1.4,0-2.3c0-1,0-1.4,0-2.4c0-1,0-1.5,0-2.5
			c0-1.2-0.2-1.2-0.2-2.5c0-1,0-1.5,0-2.3s0-1.2,0-1.9c0-1,0.2-1,0.2-2c0-1-0.2-1-0.2-2c0-0.8,0-1.2,0-2.1c0-1,0-1.5,0-2.4
			c0-0.8,0-1.3,0-2.1c0-0.9,0-1.3,0-2.2c0-0.9,0-1.3,0-2.2c-0.2-0.7-0.2-1.5-0.2-2.3c0-0.8,0-1.5-0.2-2.3c0-1.2,0-2-0.2-2.7
			c0-0.8,0-1.6-0.2-2.4c0-0.8-0.2-1.6-0.4-2.4c0-0.8-0.2-1.2-0.4-2.1c-0.2-0.8-0.2-1.7-0.4-2.5c-0.2-1-0.3-1.5-0.5-2.6
			c-0.2-0.4-0.4-1.3-0.4-2.2c0-0.4,0.2-1.4,0.4-2.3c0-0.5,0.4-1.4,0.6-1.9c0.4,0,0.6-0.5,0.9-0.6c0.4,0,0.7-0.1,1.1-0.1
			c0.4,0,0.7-0.1,1.1-0.1c0.4,0,0.7-0.1,1.1-0.1c0.4,0,0.7-0.1,1.1-0.1c0.4,0,0.7,0.4,1.1,0.3c0.4,0,0.7-0.5,1.1-0.6
			c0.4,0,0.7-0.1,1.1-0.1c0.4,0,0.7-0.1,1.1-0.1c0.4,0,0.7-0.1,1.1-0.1c0.4,0,0.7-0.1,1.1-0.1c0.4,0,0.7-0.1,1.1-0.1
			c0.4,0,0.7-0.1,1.1-0.1c0.4,0,0.7-0.1,1.1-0.1c0.4,0,0.7-0.1,1.1-0.1c0.4,0,0.7-0.1,1.1-0.1c0.4,0,0.7-0.1,1.1-0.1
			c0.4,0,0.7-0.1,1.1-0.1c0.4,0,0.7-0.1,1.1-0.1c0.4,0,0.7-0.1,1.1-0.1c0.4,0,0.7,0.4,1.1,0.3c0.4,0,0.7-0.6,1.1-0.6
			c0.4,0,0.5,0.4,0.9,0.8c0.2,0,0.4,0.9,0.5,1.3c0.2,0.9,0.2,1.8,0.2,2.3c0,0.9,0,1.8-0.2,2.7c-0.2,0.5-0.4,1.4-0.6,2.3
			c-0.2,0.9-0.2,1.8-0.4,2.7s-0.4,1.3-0.6,2.2c0,0.8,0,1.7-0.2,2.5c0,0.8-0.2,1.7-0.4,2.5c0,1.1,0,1.7,0,2.8
			c-0.2,0.8-0.2,1.6-0.2,2.4c0,0.8-0.2,1.6-0.2,2.3c0,0.9,0,1.4,0,2.3c0,0.7-0.2,1.5-0.2,2.2c0,0.7,0.2,1.4,0.2,2.2c0,1,0,1.5,0,2.5
			c0,1.1-0.2,1.1-0.2,2.1c0,1,0.2,1,0.2,2c0,0.8,0,1.2,0,2c0,1-0.2,1-0.2,2c0,1,0.2,1,0.2,2.3c0,1.3-0.2,1.3-0.2,2.6
			c0,1,0,1.5,0,2.5c0,1.2,0.2,1.2,0.2,2.4c0,1.2-0.2,1.2-0.2,2.4c0,1.2,0.2,1.2,0.2,1.9c0,1.2-0.2,1.2-0.2,2.3c0,0.9,0,1.4,0,2.2
			c0,1.1,0.2,1.1,0.2,2.2c0,1.1-0.2,1.1-0.2,2.2c0,0.9,0,1.3,0,2.1c0,1,0.2,1,0.2,2.1c0,1-0.2,1-0.2,2c0,1,0.2,1,0.2,2
			c0,0.8,0,1.2,0,2c0,0.8,0,1.2,0,1.9c0,1-0.2,1-0.2,1.9c0,0.8,0,1.1,0,1.9c0,0.8,0,1.1,0,1.9c0,0.9,0.2,0.9,0.2,1.9
			c0,0.9-0.2,0.9-0.2,1.9c0,0.7,0,1.1,0,1.8c0,0.9,0.2,0.9,0.2,1.8c0,0.9-0.2,0.9-0.2,1.8c0,0.7,0,1.1,0,1.8c0,0.7,0,1.1,0,1.8
			c0,0.9,0.2,0.9,0.2,1.8c0,0.9-0.2,0.9-0.2,1.8c0,0.9,0.2,0.9,0.2,1.9c0,0.9-0.2,0.9-0.2,1.9c0,0.8,0,1.1,0,1.9c0,0.8,0,1.1,0,1.9
			c0,1,0.2,1,0.2,1.9c0,0.8,0,1.2,0,2c0,1-0.2,1-0.2,2c0,0.8,0,1.2,0,2c0,0.8,0,1.2,0,2.1c0,0.8,0,1.2,0,2.1c0,1.1,0.2,1.1,0.2,2.1
			c0,0.9,0,1.3,0,2.2c0,0.9,0,1.3,0,2.2c0,0.9,0,1.4,0,2.3c0,0.9,0,1.4,0,2.3c0,0.9,0,1.4,0,2.4c0,1,0,1.5,0,2.4
			c0,1.2-0.2,1.2-0.2,2.5c0,1.3,0.2,1.3,0.2,2.6c0,1,0,1.6,0,2.6c0,1.3-0.2,1.3-0.2,2.7c0,1.1,0,1.7,0,2.8c0,1.4,0.2,1.4,0.2,2.9
			c0,1.5-0.2,1.4-0.2,2.9c0,1.2,0,1.8,0,3c0,1.5,0.2,1.5,0.2,3.1c0,1.3,0,1.9,0,3.2c0,1.6-0.2,1.6-0.2,3.3c0,1.7,0.2,1.7,0.2,3.4
			c0,1.4,0,2.1,0,3.5c0,1.8-0.2,1.8-0.2,3c0,1.8,0.2,1.8,0.2,3.7c0,1.9-0.2,1.9-0.2,3.8c0,1.5,0,2.3,0,3.9c0,1.6,0,2.3,0,3.2
			c0,1.2,0.2,1.2,0.2,2.3c0,0.9,0,1.4,0,2.3c0,1.2-0.2,1.2-0.2,2.3c0,0.9,0,1.4,0,2.3c0,1.1,0,1.6,0,2.7c0,0.8,0.2,1.6,0.2,2.4
			c0,0.9,0,1.4,0,2.4c0,0.9,0,1.4,0,2.4s0,1.4,0,2.4c0.2,1.2,0.2,2,0.3,2.8c0,0.8,0.2,1.6,0.2,2.4c0,0.8,0,1.6,0.2,2.4
			c0,0.8,0,1.6,0.2,2.4c0.2,0.8,0.2,1.6,0.4,2.5c0.2,0.8,0.4,1.3,0.5,2.1c0.2,0.8,0.4,1.7,0.5,2.1c0.2,0.8,0.2,1.6,0.4,2.5
			c0,0.4-0.2,1.2-0.2,2c-0.2,0.8-0.4,1.2-0.8,1.5c-0.2,0.4-0.6,0.3-0.9,0.3c-0.4-0.1-0.7-0.1-1.1-0.1c-0.4,0-0.7,0.3-1.1,0.3
			c-0.4,0-0.7-0.5-1.1-0.5c-0.4-0.1-0.7-0.1-1.1-0.1c-0.4-0.1-0.7-0.1-1.1-0.1c-0.4-0.1-0.7-0.1-1.1-0.1c-0.4-0.1-0.7-0.1-1.1-0.1
			c-0.4-0.1-0.7-0.1-1.1-0.1c-0.4,0-0.7-0.1-1.1-0.1c-0.4,0-0.7-0.1-1.1-0.1c-0.4,0-0.7-0.1-1.1-0.1c-0.4,0-0.7-0.1-1.1-0.1
			c-0.4,0-0.7-0.1-1.1-0.1c-0.4,0-0.7-0.1-1.1-0.1c-0.4,0-0.7-0.1-1.1-0.1c-0.4,0-0.7-0.1-1.1-0.1c-0.4,0-0.7-0.1-1.1-0.1
			c-0.4,0-0.7-0.1-1.1-0.1c-0.4,0-0.7-0.1-1.1-0.1c-0.4,0-0.7-0.1-1.1-0.1c-0.4,0-0.7-0.1-1.1-0.1
			C539.9,260.6,539.6,260.5,539.4,260.2z"/>
		<path d="M588.1,133.2c0-0.6,0-1,0-1.6c-0.1-0.8-0.2-1.2-0.4-1.9c-0.2-1-0.2-0.9-0.4-1.6c-0.1-0.8-0.2-1.1-0.4-1.9
			c-0.2-0.9-0.4-0.9-0.5-1.9c-0.1-0.7-0.2-1.1-0.4-1.9c-0.2-0.6,0-1-0.2-1.9c-0.1-0.6-0.2-0.6-0.4-1.5c-0.1-0.7-0.2-1.1-0.4-1.8
			c-0.1-0.7-0.2-1.1-0.4-1.9c-0.1-0.7-0.2-1.1-0.4-1.9c-0.2-0.6,0-1-0.2-1.6c-0.2-0.9-0.4-0.9-0.5-1.9c-0.1-0.8-0.2-1.1-0.4-1.9
			c-0.2-0.9-0.2-1-0.4-1.6c-0.2-0.9,0-1.3-0.2-1.9c-0.2-0.9-0.4-1-0.5-1.9c-0.2-1-0.2-1-0.2-2c-0.1-0.8-0.2-1.2-0.4-2
			c-0.2-1-0.4-0.7-0.5-1.7c-0.1-0.8-0.2-1.2-0.4-2.1c-0.2-1,0-1-0.2-2.1c-0.1-0.8-0.2-1.3-0.4-2.1c-0.2-0.7-0.2-0.7-0.4-1.8
			c-0.1-0.9-0.2-1.3-0.4-2.2c0-1.1-0.2-1.1-0.4-2.3c-0.2-1.1,0-1.2-0.2-2.3c-0.2-1.2-0.4-1.2-0.5-2c-0.2-1.1,0-1.2-0.2-2.4
			c-0.2-1.2-0.4-1.2-0.5-2.5c-0.2-1.3,0-1.3-0.2-2.6c-0.1-1-0.2-1.6-0.4-2.6c-0.2-0.9-0.2-0.8-0.4-1.8c-0.1-0.8-0.2-1.2-0.4-2
			c-0.1-0.8-0.2-1.2-0.4-2c-0.1-0.8-0.2-1.2-0.4-2c-0.2-1-0.1-0.7-0.4-1.7c-0.1-0.7-0.2-1.4-0.4-2.1c0-0.7-0.2-1.4-0.2-1.8
			c-0.2-0.9-0.3-1.3-0.5-2.2c-0.2-0.7-0.4-1.1-0.4-1.9c-0.2-0.7-0.4-1.5-0.5-1.9c-0.2-0.8-0.2-1.5-0.4-2.3c-0.2-0.8-0.2-1.6-0.4-2
			c-0.2-0.8-0.4-1.6-0.5-2c-0.2-1-0.3-1.4-0.5-2.4c-0.2-0.4-0.4-1.2-0.5-2c-0.2-0.4-0.4-1.2-0.5-2.1c-0.2-0.4-0.5-1.3-0.7-1.7
			c-0.3-0.6-0.2-1.6-0.5-2.1c-0.2-0.4-0.5-0.8-0.9-1.7c-0.4-0.4-0.5-0.8-0.5-1.7c0-0.9,0-1.8,0.2-2.8c0.2-0.9,0.4-1.9,0.8-2.4
			c0.2-0.5,0.6-0.5,0.9-0.6c0.4-0.1,0.7-0.1,1.1-0.1c0.4-0.1,0.7-0.1,1.1-0.1c0.4-0.1,0.7-0.1,1.1-0.1s0.7-0.1,1.1-0.1
			c0.4-0.1,0.7-0.1,1.1-0.1c0.4-0.1,0.7-0.1,1.1-0.1c0.4-0.1,0.7-0.1,1.1-0.1c0.4-0.1,0.7-0.1,1.1-0.1c0.4-0.1,0.7-0.1,1.1-0.1
			c0.4-0.1,0.7-0.1,1.1-0.1c0.4-0.1,0.7-0.1,1.1-0.1c0.4-0.1,0.7-0.1,1.1-0.1c0.4-0.1,0.7-0.1,1.1-0.1c0.4-0.1,0.7-0.1,1.1-0.1
			c0.4-0.1,0.7-0.1,1.1-0.1c0.4-0.1,0.7-0.1,1.1-0.1c0.4,0,0.6-0.1,0.9-0.1c0.4-0.1,0.7-0.1,1.1-0.1c0.4,0,0.7,0.4,1.1,0.3
			c0.4,0,0.7-0.6,1.1-0.6c0.4-0.1,0.7-0.1,1.1-0.1c0.4,0,0.7,0.4,1.1,0.3c0.4,0.5,0.7,0.8,1.1,1.3c0.2,0.9,0.2,1.9,0.4,2.8
			c0,0.9,0.2,1.9,0,2.8c0,0.9-0.2,1.4-0.4,2.3c0,1.3,0,1.9,0,3.1c0,1.1,0,1.6,0,2.6c0,1,0,1.6,0,2.6c0,0.9,0.2,1.7,0.2,2.5
			c0.2,0.8,0.4,1.6,0.4,2.4c0,0.8,0.2,1.6,0.2,2.4c0.2,0.8,0.2,1.6,0.4,2.3c0,0.8,0.2,1.5,0.4,2.3c0,0.8,0.2,1.5,0.2,2.3
			c0.2,0.9,0.3,1.3,0.5,2.2c0,0.7,0.2,1.5,0.2,2.2c0.2,0.7,0.2,1.1,0.4,1.8c0,1.1,0.2,1.1,0.4,2.1c0,1,0,1,0.2,2.1c0,1,0.2,1,0.2,2
			c0.2,1,0.2,0.9,0.4,1.8c0,1.4,0.2,1.4,0.2,2.7c0.1,1.1,0.2,1.6,0.4,2.6s0.2,1.5,0.4,2.5c0.2,0.8,0.2,0.8,0.2,2.1
			c0.1,1,0.2,1.5,0.4,2.4c0,1.2,0,1.2,0.2,2.4c0.1,0.9,0.2,1.4,0.4,2.3c0.2,0.8,0.2,0.8,0.4,1.9c0.2,1.1,0,1.1,0.2,2.2
			c0.1,0.9,0.2,1.3,0.4,2.2c0,1.1,0.2,1.1,0.2,1.8c0.1,0.9,0.2,1.3,0.4,2.1c0.1,0.8,0.2,1.3,0.4,2.1c0,1,0,1.1,0.2,2
			c0.1,0.6,0,1,0.2,1.7c0.2,0.9,0.5,1,0.9,1c0.6,0,0.8-0.4,0.9-1c0.2-1,0.2-1,0.4-1.7c0-1,0-1,0.2-2.1c0.2-0.8,0.2-1.3,0.4-2.1
			c0.2-1.1,0-1.1,0.2-2.1c0.2-1.1,0.4-0.7,0.4-1.8c0.2-1.1,0.2-1.1,0.2-2.2c0.2-1.1,0.4-1.1,0.4-2.3c0.2-1.2,0.2-1.2,0.2-2.3
			c0.2-1.2,0.2-0.8,0.4-2c0.2-1,0.2-1.5,0.4-2.4c0.2-1,0.2-1.5,0.4-2.5c0-1.3,0-1.3,0.2-2.1c0.2-1,0.2-1.6,0.4-2.6
			c0.2-1.3,0-1.3,0.2-2.7c0.2-1.1,0.2-1.6,0.4-2.8c0.2-0.9,0-1.2,0.2-1.9c0.2-0.8,0.2-1.2,0.4-2.1c0.2-1.1,0.2-1.1,0.2-2.1
			c0.2-1.1,0.4-1.1,0.4-1.8c0.2-0.9,0.2-1.3,0.4-2.2c0-0.7,0.2-1.5,0.4-2.3s0.2-1.5,0.2-2.3c0.2-0.9,0.3-1.4,0.6-2.4
			c0-0.8,0-1.6,0.2-2.4c0.2-0.8,0.2-1.6,0.2-2.4c0.2-0.8,0.4-1.7,0.4-2.5c0-0.8,0.2-1.7,0.2-2.5s0.2-1.7,0.2-2.6
			c0-0.9,0.2-1.8,0.2-2.7c0-0.9,0-1.8-0.2-2.7c0-1.1,0-1.6,0-2.7c0-1.4,0-2.3-0.2-3.3C613,25.9,613,25,613,24
			c0.2-0.5,0.4-1.5,0.6-2.5c0.4-0.6,0.7-1,1.1-1.6c0.2,0,0.6-0.6,0.9-0.6c0.4-0.1,0.7-0.1,1.1-0.1c0.4-0.1,0.7-0.1,1.1-0.2
			c0.4-0.1,0.7-0.1,1.1-0.2c0.4-0.1,0.7-0.1,1.1-0.2c0.4-0.1,0.7-0.1,1.1-0.2c0.4-0.1,0.7-0.1,1.1-0.2c0.4-0.1,0.7-0.1,1.1-0.2
			c0.4-0.1,0.7-0.1,1.1-0.2c0.4-0.1,0.7-0.1,1.1-0.2c0.4-0.1,0.7-0.1,1.1-0.2c0.4-0.1,0.7-0.1,1.1-0.2c0.4-0.1,0.7-0.1,1.1-0.2
			c0.4-0.1,0.7-0.1,1.1-0.2c0.4-0.1,0.7-0.1,1.1-0.2c0.4-0.1,0.7-0.1,1.1-0.2c0.4-0.1,0.7-0.1,1.1-0.2c0.4-0.1,0.7-0.1,1.1-0.2
			c0.4-0.1,0.7-0.1,1.1-0.2c0.4-0.1,0.5-0.1,0.9-0.1c0.4-0.1,0.7-0.1,1.1-0.2c0.4-0.1,0.7-0.1,1.1-0.2c0.4-0.1,0.7,0.4,1.1,0.9
			c0.2,0.5,0.5,0.9,0.7,1.9c0.2,1,0.2,2,0.2,3s-0.2,2-0.5,2.5c-0.4,0.5-0.4,1.3-0.7,2c-0.2,0.5-0.7,1.1-0.9,2
			c-0.2,0.5-0.4,1.5-0.6,2.4c-0.2,0.5-0.4,1.4-0.6,2.4c-0.2,0.5-0.4,1.4-0.6,1.9c-0.2,1.1-0.3,1.6-0.6,2.7c-0.2,0.5-0.4,1.4-0.6,2.2
			c0,0.9-0.4,1.3-0.4,2.2c-0.2,1-0.3,1.6-0.6,2.6c0,0.4-0.4,1.3-0.4,2.1c-0.2,0.4-0.2,1.6-0.4,2.1c-0.2,1-0.3,1.5-0.6,2.4
			c-0.2,0.4-0.2,1.2-0.4,2c-0.2,0.8-0.2,1.5-0.2,2.3c-0.2,1.1-0.2,1.1-0.4,1.9c-0.1,0.9-0.2,1.3-0.4,2.2c-0.1,0.9-0.2,1.3-0.4,2.2
			c-0.1,0.9-0.2,1.3-0.4,2.1c-0.1,0.8-0.2,1.3-0.4,2.4c-0.2,1.4-0.2,1-0.4,2.4c-0.1,1.1-0.2,1.7-0.4,2.8c-0.1,1.1-0.2,1.6-0.4,2.7
			c-0.2,1.3,0,1.3-0.2,2.6c-0.2,1.3-0.2,1.3-0.4,2.1c-0.2,1-0.2,1.5-0.4,2.5c-0.2,1.2-0.4,1.2-0.6,2.5c-0.2,1-0.2,1.4-0.4,2.4
			c-0.2,0.8,0,1.2-0.2,1.9c-0.2,1.1-0.4,1.2-0.6,2.3c-0.2,1.1,0,1.1-0.2,2.2c-0.2,0.9-0.2,1.3-0.4,2.2c-0.2,0.7-0.2,1.1-0.4,2.2
			c-0.2,1.1-0.2,0.7-0.4,1.8c-0.2,0.8-0.2,1.3-0.4,2.1c-0.2,0.8-0.2,1.2-0.4,2.1c-0.2,1,0,1-0.2,2c-0.2,1-0.4,0.7-0.6,1.7
			c-0.2,1,0,1-0.2,2c-0.2,1-0.4,1-0.6,2c-0.2,0.8-0.2,1.2-0.4,2c0,0.6,0,1-0.2,1.6c-0.2,0.8-0.2,1.2-0.4,1.9c-0.2,1-0.4,1-0.4,1.9
			c-0.2,0.8-0.2,1.2-0.4,1.9c-0.2,0.6-0.2,0.6-0.4,1.6c-0.2,0.8-0.2,1.2-0.4,1.9c-0.2,0.8-0.2,1.2-0.4,1.9c-0.2,0.8-0.2,1.2-0.4,2
			c-0.2,0.7,0,1-0.2,2c-0.2,0.6-0.2,0.7-0.4,1.7c-0.2,0.6-0.2,1-0.2,1.7c0,0.7,0,1,0.2,1.7c0.1,0.8,0.2,1.2,0.4,2
			c0.2,0.7,0,1.1,0.2,2.1c0.1,0.7,0.2,0.7,0.4,1.7c0.1,0.8,0.2,1.3,0.4,2.1c0.1,0.9,0.2,1.3,0.4,2.2c0.2,1.1,0.2,1.1,0.4,1.8
			c0.1,0.9,0.2,1.3,0.4,2.3c0.1,0.9,0.2,1.4,0.4,2.3c0.1,0.9,0.2,1.4,0.4,2.4c0.2,1.2,0.2,1.2,0.4,2c0.2,1.2,0,1.6,0.2,2.5
			c0.1,1,0.2,1.5,0.4,2.5c0.2,1.3,0.4,1.3,0.6,2.6c0.2,1.3,0,1.3,0.2,2.7c0.2,1.4,0.2,1.4,0.4,2.3c0.1,1.1,0.2,1.7,0.4,2.8
			c0.1,1.1,0.2,1.7,0.4,2.9c0.1,1.2,0.2,1.8,0.4,3c0.2,1,0.1,1.6,0.4,3.1c0.2,1,0.2,1,0.4,2.6c0.1,1.3,0.2,1.9,0.4,3.2
			c0.1,1.3,0.2,2,0.4,3.3c0.2,1.7,0,1.7,0.2,3.4c0.2,1.7,0.4,1.2,0.6,3c0,1.8,0,1.8,0.2,3.6c0.1,1.5,0.2,2.2,0.4,3.7
			c0.1,1.5,0.2,2.3,0.4,3.9c0.2,2,0.4,1.3,0.6,3.3c0.1,1.6,0.2,2.4,0.4,4.1c0.2,2.1,0,2.1,0.2,4.2c0.1,1.7,0.2,2.6,0.4,4.3
			c0.2,2.2,0.2,1.3,0.4,2.6c0.1,1,0.2,1.6,0.4,2.6c0.2,1.3,0,1.3,0.2,2.6c0.2,1.3,0.4,1.3,0.6,2.6c0.2,1.3,0,1.3,0.2,2.2
			c0.2,1.1,0.3,1.6,0.6,2.6c0,0.9,0,1.7,0.2,2.6c0.2,0.5,0.4,1.3,0.6,2.2c0,0.9,0.2,1.7,0.2,2.2c0.2,1.1,0.3,1.6,0.6,2.6
			c0.2,0.5,0.4,1.3,0.6,2.2c0.2,0.9,0.2,1.7,0.4,2.6c0.2,0.5,0.4,1.3,0.6,1.8c0.2,0.9,0.4,1.8,0.6,2.2c0.2,0.9,0.2,1.7,0.4,2.6
			s0.6,1.4,0.8,2.3c0.2,0.5,0.4,1.3,0.6,2.2c0.2,0.5,0.8,1,1,1.4c0.3,0.6,0.6,1.4,0.8,1.8c0.3,0.6,0.4,1.4,0.4,2.2
			c0,0.9,0,1.7-0.2,2.6c-0.2,0.8-0.4,1.7-0.6,2.1c-0.4,0.4-0.8,0.3-1.2,0.2c-0.4-0.1-0.8,0.3-1.2,0.2c-0.4-0.1-0.8-0.6-1.1-0.6
			c-0.4-0.1-0.6-0.1-1-0.2c-0.4-0.1-0.8,0.3-1.1,0.2c-0.4-0.1-0.8-0.6-1.1-0.6c-0.5-0.1-0.7-0.1-1.1-0.2c-0.5-0.1-0.7-0.1-1.1-0.2
			c-0.5-0.1-0.7-0.1-1.1-0.2c-0.5-0.1-0.7-0.1-1.1-0.2c-0.5-0.1-0.7-0.1-1.1-0.2c-0.5-0.1-0.7-0.1-1.1-0.2c-0.5-0.1-0.7-0.1-1.1-0.2
			c-0.5-0.1-0.7-0.1-1.1-0.2c-0.5-0.1-0.7-0.1-1.1-0.2c-0.5-0.1-0.7-0.1-1.1-0.2c-0.4-0.1-0.8,0.3-1.1,0.3c-0.4-0.1-0.8-0.5-1.1-0.6
			c-0.5-0.1-0.7-0.1-1.1-0.2c-0.5-0.1-0.7-0.1-1.1-0.2c-0.5-0.1-0.7-0.1-1.1-0.2c-0.5-0.1-0.7-0.1-1.1-0.2c-0.4-0.1-0.8-0.5-0.9-0.6
			c-0.5-0.6-0.7-0.9-1.1-1.4c-0.2-0.4-0.4-1.7-0.4-2.2c-0.2-0.9,0-1.7,0-2.5c0.2-0.8,0.2-1.7,0.2-2.5c0.2-0.8,0.2-1.7,0.2-2.9
			c0-0.8-0.2-1.7-0.2-2.5c0-1,0-1.5,0-2.5c0-0.8,0-1.7-0.2-2.5c0-0.8,0-1.7-0.2-2.5c0-0.8-0.2-1.7-0.4-2.6c0-0.8-0.2-1.7-0.2-2.5
			c-0.2-0.9-0.2-1.7-0.2-2.5c-0.2-0.9-0.2-1.7-0.4-2.5c-0.2-0.9-0.4-1.7-0.4-2.5c-0.2-0.9-0.2-1.7-0.4-2.5c-0.2-1.2-0.2-0.9-0.4-2.1
			c-0.2-1.3-0.2-1.3-0.2-2.5c-0.1-1-0.2-1.5-0.4-2.5c-0.1-1-0.2-1.5-0.4-2.5c-0.2-0.8-0.2-0.3-0.4-2.5c0-1.7,0-2.5,0-4.2
			c-0.2-2.1-0.4-2.1-0.4-4.1c-0.2-2-0.4-1.4-0.4-3.3c-0.2-2-0.2-2-0.2-3.9c-0.2-1.9-0.4-1.9-0.6-3.8c0-1.8,0-1.9-0.2-3.6
			c-0.1-1.2,0-1.8-0.2-3.5c-0.1-1.1-0.2-1.2-0.4-2.9c0-1.7-0.2-1.7-0.2-3.3c-0.1-1.3-0.2-2-0.4-3.2c-0.2-1.1-0.2-1.1-0.4-2.6
			c-0.2-1.6,0-1.6-0.2-3.1c-0.2-1.5,0-1.5-0.2-3c-0.2-1.5-0.4-1.5-0.4-2.4c-0.1-1.2-0.2-1.7-0.4-2.8c0-0.9-0.4-1.9-0.9-1.9
			c-0.4,0-0.8,0.9-0.8,1.8c-0.2,1.4-0.2,1.4-0.4,2.3c-0.2,1.4-0.2,1.4-0.2,2.9c-0.2,1.5-0.4,1.5-0.4,3c-0.2,1.2-0.2,1.8-0.4,3
			c-0.2,1.5,0,1.6-0.2,3.1c-0.2,1-0.2,1-0.4,2.7c-0.2,1.3-0.2,2-0.4,3.3c-0.2,1.7,0,1.7-0.2,3.4c0,1.7,0,1.7-0.2,2.9
			c-0.2,1.4-0.2,2.1-0.4,3.6c-0.2,1.4-0.2,2.2-0.4,3.7c-0.2,1.9-0.2,1.9-0.4,3.1c0,1.9,0,1.9-0.2,3.9s-0.2,2-0.2,4
			c-0.2,1.6-0.2,2.4-0.4,4.1c-0.2,2.1-0.2,1.6-0.4,2.4c0,1.2,0,1.2-0.2,2.4c-0.2,1-0.2,1.4-0.4,2.4c-0.2,1-0.2,1.4-0.4,2.4
			c0,0.8,0,0.9-0.2,2c-0.2,0.8-0.2,1.6-0.4,2.4c0,0.8-0.2,1.6-0.2,2.4c-0.2,1-0.3,1.4-0.6,2.4c0,0.8-0.2,1.6-0.2,2.4
			c-0.2,0.8-0.2,1.6-0.2,2.4c-0.2,0.8-0.4,1.6-0.4,2.4c-0.2,0.8-0.2,1.6-0.4,2.4c0,0.8,0,1.6-0.2,2.4c0,0.8,0.2,1.7,0,2.5
			c0,1,0,1.5,0,2.5c0,1.2,0,1.7,0,2.9c0.2,0.8,0.4,1.7,0.4,2.1c0.2,0.9,0,2.1,0,2.9c-0.2,0.4-0.2,1.6-0.4,2
			c-0.5,0.4-0.7,0.7-1.1,1.1c-0.4-0.1-0.8,0.3-1.1,0.3c-0.4-0.1-0.7-0.1-1.1-0.2c-0.4-0.1-0.7-0.1-1.1-0.1c-0.4-0.1-0.7-0.1-1.1-0.1
			c-0.4-0.1-0.7-0.1-1.1-0.1c-0.4,0-0.6-0.1-0.9-0.1c-0.4-0.1-0.7-0.1-1.1-0.1c-0.4-0.1-0.7-0.1-1.1-0.1c-0.4-0.1-0.7-0.1-1.1-0.1
			c-0.4-0.1-0.7-0.1-1.1-0.1c-0.4-0.1-0.7-0.1-1.1-0.1c-0.4-0.1-0.7-0.1-1.1-0.1c-0.4-0.1-0.7-0.1-1.1-0.1c-0.4-0.1-0.7-0.1-1.1-0.1
			c-0.4-0.1-0.7-0.1-1.1-0.1c-0.4-0.1-0.7-0.1-1.1-0.1c-0.4-0.1-0.7-0.1-1.1-0.1c-0.4-0.1-0.7-0.1-1.1-0.1c-0.4-0.1-0.7-0.1-1.1-0.1
			c-0.4-0.1-0.7-0.1-1.1-0.1c-0.4-0.1-0.7-0.1-1.1-0.1c-0.4-0.1-0.7-0.1-1.1-0.1c-0.4,0-0.7-0.1-0.9-0.5c-0.4-0.5-0.5-1.3-0.7-2.1
			c-0.2-0.8-0.2-1.7,0-2.4c0-0.8,0-1.2,0.4-2c0.4-0.4,0.8-0.8,0.9-1.1c0.3-0.5,0.4-1.2,0.6-2c0.3-0.6,0.5-0.9,0.8-1.5
			c0.2-0.8,0.4-1.6,0.6-2c0.2-0.9,0.3-1.4,0.6-2.4c0.2-0.4,0.4-1.2,0.6-1.5c0.2-0.9,0.3-1.4,0.6-2.3c0-0.4,0.4-1.2,0.6-1.9
			c0-0.8,0.2-1.6,0.2-2c0.2-0.9,0.3-1.4,0.6-2.3c0-0.8,0.2-1.2,0.4-2c0.2-0.8,0.4-1.6,0.4-2c0.2-0.8,0.2-1.6,0.4-2.4
			s0.4-1.6,0.4-2.3c0.2-0.8,0.2-0.8,0.4-1.9c0.2-0.9,0.2-1.4,0.4-2.3c0.2-0.9,0.2-1.4,0.4-2.3c0.2-0.9,0.2-1.4,0.4-2.3
			c0.2-1.2,0-1,0.2-3c0.2-1.3,0.2-1.3,0.4-3.3c0.2-1.6,0.2-2.3,0.4-3.9c0.2-1.9,0.4-1.9,0.4-3.8c0.2-1.5,0.2-2.2,0.4-3.7
			c0.2-1.2,0.4-1.2,0.6-3c0.2-1.8,0-1.8,0.2-3.5c0.2-1.4,0.2-2,0.4-3.4c0.2-1.3,0.2-2,0.4-3.3c0.2-1.6,0.2-1.1,0.4-2.7
			c0.2-1.3,0.2-1.9,0.4-3.1c0.2-1.2,0.2-1.8,0.4-3c0.2-1.2,0.2-1.8,0.4-3c0.2-1,0.2-1,0.4-2.4c0.2-1.1,0.2-1.7,0.4-2.8
			c0.2-1.1,0.2-1.7,0.4-2.7c0.2-1.1,0.2-1.6,0.4-2.7c0.2-0.9,0-1.3,0.2-2.2c0.2-1,0.2-1.5,0.4-2.5c0.2-1,0.2-1.5,0.4-2.5
			c0.2-1,0.2-1.5,0.4-2.4c0.2-1,0.2-1.4,0.4-2.4c0.2-0.8,0.2-0.8,0.4-1.9c0.2-0.9,0.2-1.4,0.4-2.3c0.2-0.9,0.2-1.3,0.4-2.2
			c0.2-0.7,0.2-1.1,0.4-1.8c0.2-0.9,0.2-1.3,0.4-2.1c0.2-1.1,0-1.1,0.2-2.1c0.2-1,0.4-1,0.6-2.1c0.2-1,0.2-1,0.4-1.7
			c0.2-0.8,0.2-1.2,0.4-2c0.2-1,0-1,0.2-2C588.1,134.2,588.1,133.8,588.1,133.2z"/>
	</g>
</g>
<g>
	<g>
		<g>
			<path d="M1338.2,265.8c9,11.1,12.6,24.6,14.3,37.8c2,16.3,1.7,34,0,50.9c-1.2,12.4-4.6,25.4-11.8,36c-3,4.8-6.7,8.1-10.6,9.9
				c-2.3,1.1-4.9,2-7.6,2.4c-2.5,0.3-5.2,0.2-8.2-0.2c-5.1-0.8-9.5-5-12.9-11.8c-3.4-6.8-5.6-15.3-6.7-24.4
				c-1.1-9.5-1.4-19.6-1-29.1c0.2-3.8,0.5-6.2,1.1-7c0.6-0.8,1.9-1.4,3.8-1.8c5.3-0.4,7.9-0.6,13.2-1c0.9-0.1,1.6,0.3,2,1
				c0.6,1.2,0.7,2.7,0.6,4.1c-1,10.4,0.3,19.9,1.3,24.6c0.7,3.3,1.9,5.4,3.3,6.2c1.8,1,3.8,1,5.5-0.5c1.8-1.7,3.1-4.9,3.6-8.6
				c0.9-6.9,1.2-17.1,0.9-26.5c-0.3-8.4-1.5-14.9-3.6-19.1c-1.8-3.5-4.1-6.8-6.4-9.7c-0.2-0.4-0.4-0.7-0.6-1.1
				c-0.4-0.5-1.2-1.5-2.4-3.1c-1.2-1.6-2.1-2.8-2.7-3.8c-2.5-3.1-5.7-9.8-9.8-20c-4.3-10.7-6.6-22-7.9-33.2
				c-1.9-15.3-1.2-31.3-0.4-47.1c0.6-12.4,2.9-25.3,9.3-36.1c3.6-5.5,8.2-8.2,12.9-8.6c4.9-0.5,9.6-0.1,13.4,1.6
				c5,2.2,9.3,6.6,12.7,13.2c3.4,6.5,5.7,14.3,6.4,22.8c1,12.3,0.9,24.7,0.5,37.3c-0.1,0.1-0.1,0.2-0.2,0.3
				c-0.1,2.4-0.5,3.9-0.9,4.6c-0.5,0.7-1.4,1.1-2.7,1.3c-0.2,0-0.4,0-0.6,0c-5.2-0.3-7.8-0.4-13-0.7c-1.3-0.1-2.2-0.5-2.6-1.2
				c-0.4-0.8-0.6-2.5-0.6-5.1c0-1.5,0-2.2,0-3.7c0.1-12.7-0.3-21.4-0.9-25.8c-0.7-5.1-2.6-7.5-5.1-7.5c-1.1,0-2.3,0.5-3.4,1.8
				c-1.1,1.4-1.7,3-1.8,5c-1.8,11.6-1.1,23.2-0.3,34.9c0.3,2.7,0.6,5.3,1.2,7.8c0.5,2.5,1.1,4.7,1.7,6.7c0.6,2,1.3,3.9,2.2,5.8
				c0.8,1.9,1.6,3.3,2.3,4.4c0.7,1.1,1.4,2.3,2.4,3.7c0.9,1.3,1.6,2.3,2.1,2.9c0.5,0.6,1.1,1.4,2,2.4c0.8,1,1.3,1.5,1.5,1.5
				c0.3,0.2,1,1.1,2.2,2.5C1336.7,264,1337.6,265,1338.2,265.8z"/>
			<path d="M1414.9,157.2c1.4,0.1,2.4,0.6,2.9,1.5c0.5,0.9,0.7,2.6,0.7,5.2c0,4.9,0.1,12.8,0,23.2c0,2.7-0.3,4.3-0.7,4.9
				c-0.5,0.6-1.6,1.1-3,1.1c-0.8,0-2.2-0.2-4-0.3c-1.7-0.1-3.4-0.2-4.9-0.3c-1.6-0.1-3-0.2-4.3-0.3c-0.4,0.1-0.6,0.2-1,0.3
				c-0.1,0.2-0.2,0.8-0.2,1.7c0.1,15.1,0.1,30.2,0,45.2c-0.1,12.4-0.2,24.7-0.3,37.1c-0.1,13.3-0.2,26.7-0.1,40
				c-0.1,14.5-0.2,29-0.3,43.5c0.1,4.2,0.1,10.8,0,21.2c0,0.9,0,1.4,0,2.3c0,0.9,0,1.4,0,2.3c0,2.1-0.2,3.9-0.8,4.9
				c-0.6,1.1-1.6,1.8-2.4,1.9c-2.9,0.3-4.3,0.4-7.2,0.7c-3.2,0.3-4.8,0.5-8,0.9c-0.5,0.1-0.7,0.1-1.2,0.1c-1.8,0.2-3-0.3-3.6-1.5
				c-0.6-1.2-0.9-3.9-0.8-7.8c0.2-32.3,1.1-64.7,0-97c0-0.1,0-0.2,0-0.3c0.1-9.8,0.1-14.6,0.2-24.2c0.2-22.7,0.4-45.4,0.6-68.1
				c0-2.7,0-4.2-0.2-4.5c-0.1-0.2-1-0.4-2.7-0.6c-1.5-0.1-2.2-0.2-3.7-0.3c-2.6-0.5-5.3-0.6-7.7-0.7c-1,0-1.8-0.6-2.3-1.6
				c-0.5-1-0.8-2.4-0.8-4.3c0-2.6,0-6.8,0-12.6c0-5.9,0-10.5,0-13.9c0-1.7,0.2-2.9,0.6-3.6c0.5-0.9,1.3-1.3,2.4-1.2
				c1.6,0.2,3.9,0.4,7.1,0.7c3.1,0.3,5.5,0.5,7.1,0.7c2,0.2,5,0.5,9,0.8c4,0.3,7.1,0.6,9.2,0.8c6.2,0.7,9.3,1,15.5,1.6
				C1411.9,157,1412.9,157.1,1414.9,157.2z"/>
			<path d="M1476.4,185.2c2,7.6,3.2,15.6,3.4,25.4c0.4,20.2,0.8,41.1,0.4,61.2c-0.1,8.1-1.2,15.2-2.8,20.9
				c-2.2,8.2-5.6,13.8-10.2,16c2.3,1.7,4.6,5,6.7,10.2c2.1,5.2,3.4,12.4,3.5,21.9c0,3.2,0,4.5,0.1,6.1c0.1,1.6,0.1,3.7,0.3,6.2
				c0,0.4,0.4,5.7,1.1,18.6c0.1,1.6,0.4,4.4,0.6,8.2c0.1,2.4-0.3,4.1-0.6,4.9c-0.4,1-1.2,1.6-2.5,1.7c-2.5,0.2-3.8,0.2-6.3,0.4
				c-4.5,0.3-6.7,0.4-11.2,0.8c-2,0.1-3.1-1.6-3.3-5.2c-0.2-5-0.3-7.3-0.5-11.9c0-0.7-0.1-3.7-0.4-8.5c-0.2-4.8-0.4-8.9-0.6-12.3
				c-0.2-3.5-0.4-6.9-0.8-11.7c-0.4-4.8-0.8-7.7-1.3-8.9c-0.6-2-1.7-2.9-3.3-2.8c-0.2,0-0.2,0-0.4,0c-1,0.1-1.8,0-2.3-0.2
				c-0.2,0-0.4,0-0.6,0c-0.1,0.3-0.2,0.7-0.2,1.5c0.1,3.1,0.1,4.7,0.2,7.9c0,2.6,0,3.9,0,6.6c-0.1,11.7-0.1,23.4-0.2,35.1
				c0,2,0,3.1,0,5.2c0,2.5-0.2,4.2-0.6,5.1c-0.4,0.8-1.2,1.3-2.4,1.4c-2.6,0.2-5.8,0.4-9.7,0.6c-3.8,0.2-6.6,0.4-8.1,0.5
				c-1.4,0.1-2.4-0.3-2.8-1.2c-0.5-0.9-0.7-2.8-0.7-5.6c0.1-14,0.2-28.1,0.3-42.1c0,2.2,0,3.4,0,5c0.1-8.2,0.1-16.5,0.2-26.9
				c0.3-51.8,0.8-103.5,1.1-155.3c0-2.6,0.3-4.3,0.8-5.2c0.4-0.7,1.3-0.9,2.7-0.8c1,0.1,1.5,0.1,2.5,0.2c2,0.2,3,0.3,5,0.4
				c8.6,0.7,12.9,1,21.5,1.7c4.7,0.3,8.7,2.2,11.9,5.3C1470.9,169.5,1474.1,176.3,1476.4,185.2z M1446,227.4c0,0.1,0,0.2,0,0.3
				c-0.1,9.3-0.1,13.8-0.1,22.9c-0.1,14-0.2,28-0.2,42.1c0,0.2,0,0.4,0.1,0.6c0.1,0.2,0.1,0.4,0.1,0.7c0.5,0,0.8,0,1.4-0.1
				c2.5-0.1,4.2-0.4,5.3-0.9c2.5-1.4,3.7-4.9,3.7-10.4c0.3-25.8,1-52.4,0.6-77.9c-0.1-6.1-1.8-10.1-4.6-11.6
				c-0.3-0.2-1.4-0.6-3.5-1.2c-0.7,0-1-0.1-1.7-0.1c-0.3,0-0.5,0-0.8,0c-0.1,0.2-0.2,0.7-0.2,1.6c0,4.9,0,6.9-0.1,12.1
				C1446,212,1446,219.3,1446,227.4z"/>
			<path d="M1537.7,349.2c1.9,0,3.2,0.3,3.7,0.9c0.5,0.7,0.8,2.5,0.8,5.5c0,2.8,0,4.2,0,7.2c-0.1,4.7,0,9.8,0,15.2
				c0,1.4-0.3,2.9-0.8,4.4c-0.5,0.7-1.3,1.1-2.3,1.2c-16.1,0.5-32.3,1.3-48.4,2.2c-1.8-0.2-2.7-2.2-2.7-5.8c0-11,0-15.9,0-25
				c0-8.9,0-13,0-24.3c0-9.5,0-14,0-22.5c0-7,0-10.3,0-16.8c0-11.6-0.1-23.2-0.1-34.7c0.1-28,0.1-56,0.2-84c0-5.2,0.3-8.3,1-9.2
				c0.4-0.7,1.4-1,3.1-0.9c0.7,0,1,0.1,1.7,0.1c3.5,0.2,8.7,0.5,15.6,0.9c7,0.4,12.1,0.7,15.5,0.8c3.2,0.1,4.8,0.2,8.1,0.3
				c0.3,0,0.6,0.1,1.1,0.2c0.4,0.1,0.7,0.2,0.9,0.2c0.7,0,1,0,1.7,0.1c1.8,0.1,2.7,1.7,2.7,4.9c0,10.4,0,15.3,0,24.6
				c0,1.4-0.3,2.4-0.8,3c-0.3,0.6-0.8,0.9-1.7,0.9c-3.5-0.1-5.2-0.1-8.7-0.2c-6-0.2-9-0.2-15-0.4c-0.4,0-0.6,0-1,0
				c0,0.5,0,0.7,0,1.2c0,21.9,0,43.9,0,65.8c0,0.3,0,0.5,0,0.9c0.3,0,0.5,0,0.8,0c6-0.1,8.9-0.2,14.9-0.3c1.2,0,1.7,0,2.9-0.1
				c0.4,0,0.6,0,1,0s0.6,0,1,0c0.5,0,1.2,0.4,1.9,1.1c0.4,0.6,0.6,1.6,0.6,3.1c0.1,9.3,0.2,18.7,0.2,28.1c0,1.3-0.2,2.5-0.6,3.3
				c-0.3,0.7-1.1,1-2.1,1.1c-4.4,0.2-6.6,0.3-11.1,0.4c-1.6,0.1-2.3,0.1-3.9,0.2c-2.1,0.1-3.1,0.1-5.2,0.2c-0.2,0-0.2,0-0.4,0
				c0,0.3,0,0.4,0,0.7c0,15.2,0,30.5,0,45.7c0,0.2,0,0.3,0,0.6c0.2,0,0.3,0,0.6,0c2.2-0.1,6-0.1,11.5-0.2
				C1529.9,349.3,1534.3,349.3,1537.7,349.2z"/>
			<path d="M1609.9,348.3c0.2,2.3,0.4,3.5,0.6,5.9c0.9,8.7,1.6,15.3,2,18.8c0.3,2.9,0,5-0.4,5.8c-0.5,1-1.5,1.7-3.3,1.7
				c-0.7,0-3.7,0-9.1,0.2c-5.4,0.1-8.4,0.2-9.1,0.2c-1.8,0-2.7-1.6-2.9-4.5c-0.2-3.4-0.8-8.9-1.2-15.5c-0.2-3.1-0.5-8-1-14.1
				c-0.1-0.8-0.4-1.1-0.8-1.1c-4.3,0-6.4,0-10.7,0.1c-0.4,0-0.7,0.5-0.8,1.4c-0.2,2-0.3,5.1-0.7,9c-0.3,4-0.5,7-0.7,9
				c-0.1,1.5-0.3,3.6-0.5,6.3c-0.2,2.7-0.4,4.9-0.5,6.6c-0.1,2.1-1,3.2-2.5,3.2c-6.3,0.1-9.4,0.2-15.7,0.3c-0.1,0-0.1,0-0.2,0
				c-0.9,0-1.6-0.3-1.9-1c-0.7-1.2-0.8-2.6-0.6-4.3c0-0.7,0.1-1.6,0.2-2.8c0.1-1.1,0.2-2.1,0.2-2.7c0.3-4.5,0.5-7.5,0.8-9.2
				c0.5-5,0.7-7.3,1.1-11.9c0.1-1,0.3-2.4,0.5-4.2c0.2-1.8,0.3-3,0.3-3.8c0.2-1.4,0.2-2.4,0.4-4.6c0.7-10.6,1.4-21.3,2.3-31.9
				c0.1-1.1,0.3-3,0.5-5.4c0.2-2.4,0.4-4.3,0.5-5.5c0.1-1.2,0.1-3.1,0.3-5.3c0.2-2.3,0.3-3.9,0.5-4.9c0.4-3.8,1-10.5,1.9-19.6
				c0.1-1.3,0.3-3.3,0.7-6.1c0.3-2.8,0.6-4.8,0.7-6.1c0.1-1.8,0.4-5,0.9-9.7c0.1-1.7,0.3-4.2,0.7-7.5c0.3-3.3,0.5-6,0.7-7.7
				c0.2-2.3,0.6-6.2,1.1-11.7c0.3-3.4,0.8-8.4,1.3-14.7c0.1-1.6,0.3-4.1,0.7-7.9c0.3-3.8,0.6-6.6,0.9-8.6c0.2-2,0.2-3.1,0.4-5.2
				c0.1-2.4,0.3-5.4,0.6-9c0.2-2.7,1.1-4.1,2.5-4.1c7.8,0.1,11.7,0.2,19.5,0.2c1.4,0,2.3,1.3,2.5,3.9c0.3,3,0.5,6.2,0.8,9.4
				c0.3,3.3,0.6,6.9,1,10.7c0.4,3.8,0.7,6.8,1,9.2c0.5,4.7,1,7.8,1.2,10.2c0.2,1.7,0.4,4.6,0.7,8.4c0.3,3.8,0.7,6.5,0.9,8.2
				c0.2,1.2,0.3,3.2,0.6,5.8c0.3,2.7,0.5,4.5,0.6,5.6c0.5,5.6,1,9.6,1.4,12.3c0.1,1.3,0.4,3.3,0.7,6c0.3,2.8,0.5,4.9,0.7,6.3
				c0.1,1.1,0.3,2.7,0.6,4.7c0.3,2.1,0.5,3.7,0.6,4.8c0.5,3.9,0.8,7.3,1,9.7c0.2,1.9,0.5,4.5,0.8,7.8c0.1,1.6,0.4,4,0.7,7.3
				c0.3,3.3,0.5,5.8,0.7,7.4c0.1,1.4,0.3,3.5,0.6,6.5c0.3,3,0.5,5.4,0.6,6.9c0.1,2,0.4,5,0.7,8.9c0.3,4,0.6,7.1,0.7,9.1
				C1609.2,342.7,1609.4,343.7,1609.9,348.3z M1576.4,312.5c2.4-0.1,3.6-0.1,6-0.2c0.3,0,0.4-0.1,0.4-0.4c0.1,0,0.2-0.1,0.2-0.4
				c-0.9-13.1-1.4-26.2-2-39.3c-0.5-11.4-1.1-22.9-2-34.3c-1.2,24.5-2.2,48.9-2.9,73.4c0,0.5,0.1,0.7,0.2,0.7
				C1576.3,312.4,1576.3,312.5,1576.4,312.5z"/>
			<path d="M1697.4,312.4c0,5.8,0,8.9,0,15.6c0.1,15.7,0.2,31.4,0.2,47.2c0,2.7-0.2,4.5-0.7,5.3c-0.5,0.8-1.5,1.4-3,1.4
				c-1.9,0.1-4.8-0.1-8.4-0.1c-3.5,0-6.1,0-7.6-0.1c-1.4,0-2.3-0.4-2.7-1.1c-0.4-0.7-0.6-2.3-0.6-4.8c0-12.9,0-25.8-0.1-38.7
				c0.1-19.6-0.4-39.8,0.1-58.8c0.1-4.3,0.2-9,0-13.8c-0.3,3.2-0.7,7.9-1.2,14.6c-0.6,6.8-1,12.3-1.2,16.1c-0.5,7.1-0.7,13-0.9,16.7
				c-0.1,1.8-0.3,4.4-0.5,8.1c-0.2,3.7-0.4,6.7-0.5,8.7c-0.2,4.6-0.4,11.2-0.9,16.1c-0.1,1.4-0.3,3.3-0.5,5.9
				c-0.2,2.6-0.4,4.6-0.5,5.8c0,1-0.2,3.9-0.5,8.8c-0.3,4.9-0.5,8.9-0.7,11.6c-0.1,2.9-1,4.4-2.7,4.4c-4.5-0.1-8-0.1-10.4,0.1
				c-0.1,0-0.1,0-0.2,0c-1.3,0-2.1-1.3-2.3-3.8c-0.1-1.1-0.3-2.7-0.5-4.7c-0.2-2-0.4-3.5-0.5-4.6c-0.1-1.3-0.3-3.2-0.6-5.6
				c-0.3-2.4-0.5-4.2-0.6-5.2c-0.2-1.8-0.4-4.5-0.7-7.9c-0.3-3.4-0.6-5.7-0.7-7c-0.2-2.4-0.4-4.2-0.6-8c-0.3-4.7-0.5-6.9-0.8-11.2
				c-0.7-10.4-1.1-15-1.8-23.6c-0.1-2.7-0.6-6.8-1-11.6c-0.3-3.8-0.9-9.8-1.6-17.1c-0.3-2.9-0.5-5-0.8-6.2c0.1,1.1,0.2,2.7,0.2,4.9
				c0,17.5,0.2,35,0.3,52.4c0,4.1,0.1,13.4,0.1,19.3c0.1,5.9,0.3,10.5,0.3,13.5c0,2,0,5.2,0.1,9.8c0.1,4.6,0.1,8.2,0.1,10.7
				c0,2.7-0.2,4.5-0.6,5.2c-0.4,0.7-1.4,1-2.9,1c-2.1,0-3.7,0.1-4.9,0.3c-3.5,0-5.3-0.1-8.8-0.1c-1.6,0-2.6-0.6-3.2-1.6
				c-0.6-1.1-0.9-3-0.9-5.7c0-19.1-0.2-38.3-0.3-57.3c-0.1-15.1-0.1-30.3-0.3-45.4c-0.1-12.7-0.2-25.4-0.3-38.1
				c0-4.1,0-10.3-0.1-19.6c-0.1-9.3-0.1-15.1-0.1-19.4c-0.1-3.9-0.2-10.2-0.2-19.4c0-0.5,0-0.8,0-1.4c0-2.7,0.2-4.6,0.7-5.4
				c0.4-0.8,1.4-1.2,2.8-1.3c1.3,0,3.3-0.1,6.1-0.2c2.8-0.1,4.9-0.2,6.3-0.3c1.2,0,3.4-0.1,6.7-0.3c3.3-0.2,5.4-0.3,6.3-0.3
				c0.9,0,1.6,0.8,1.9,2.5c2.2,16.2,5,32.4,7.1,48.6c0.1,0.4,0.3,0.6,0.6,0.6c0.3,0,0.5-0.2,0.6-0.6c2.1-16.5,4.7-32.8,6.7-49.3
				c0.5-1.7,1.2-2.6,1.9-2.6c2.3-0.1,3.5-0.1,5.8-0.2c1.4,0,2.1-0.1,3.5-0.1c2.3-0.1,3.4-0.1,5.7-0.2c2.3-0.3,5.9-0.6,10.7-0.8
				c1,0,1.7,0.6,2.1,1.4c0.4,0.7,0.8,2.2,0.8,4.3c0.1,10.4,0.1,21,0.2,31.3c0.1,4.7,0.1,13.4,0.2,23.5c0.1,13.4,0.2,26.9,0.2,40.3
				C1697.2,280.7,1697.2,296.6,1697.4,312.4z"/>
			<path d="M1754.8,160.6c1.8-0.1,2.7,2.1,2.7,6.3c-0.1,10.3-0.2,15-0.3,23.5c0,2.3-0.2,3.7-0.6,4.3c-0.4,0.6-1,0.9-1.8,1
				c-3.5,0.2-5.3,0.3-8.8,0.4c-6.1,0.3-9.1,0.4-15.2,0.6c-0.4,0-0.6,0-1,0c0,0.5,0,0.7,0,1.2c-0.1,20.8-0.1,41.6-0.2,62.5
				c0,0.3,0,0.5,0,0.8c0.3,0,0.5,0,0.8,0c6-0.1,9-0.2,14.9-0.3c1.2,0,1.7,0,2.9-0.1c0.4,0,0.6,0,1,0c0.4,0,0.6,0,1,0
				c0.8,0,1.3,0.5,1.7,1c0.4,0.5,0.8,1.9,0.8,4.3c0,0.4,0,0.7,0,1.1c0,8.6,0.1,13.1,0.1,23.7c0,2.5-0.3,4.2-0.8,5.2
				c-0.4,0.7-1,1.1-1.9,1.1c-6,0-8.9,0.1-14.9,0.1c-2.1,0-3.1,0-5.2,0.1c-0.2,0-0.2,0-0.4,0c0,0.3,0,0.4,0,0.7
				c0,17.4,0,34.7-0.1,52.1c0,0.2,0,1.6,0,4.4c0,2.7,0,6-0.1,9.9c-0.1,3.9-0.1,7.3-0.1,10.2c0,2.4,0,3.6,0,6.1c0,3.2-1,4.8-2.9,4.7
				c-3.2-0.2-4.8-0.3-8.1-0.4c-4.1-0.2-6.1-0.3-10.2-0.5c-1.8-0.1-2.7-2-2.7-5.6c0-10.3,0-15.1,0-24.4c0-9.2,0-14,0-27.3
				c0-12.2,0-17.5,0-27.1c0-7.2,0-10.5,0-16.7c-0.1-9.9-0.1-19.9-0.2-29.8c0-26.6,0-53.2,0-79.8c0-5.4,0.3-8.8,1-9.8
				c0.4-0.8,1.4-1.2,3.1-1.3c0.7,0,1.1-0.1,1.8-0.1c3.5-0.2,8.8-0.4,15.9-0.7c7.1-0.3,12.4-0.6,15.7-0.8c3.3-0.2,4.9-0.3,8.2-0.6
				c0.3,0,0.6,0,1.1,0.1c0.5,0.1,0.7,0.1,0.9,0.1C1753.7,160.7,1754.1,160.7,1754.8,160.6z"/>
			<path d="M1806.1,359.9c-0.1,10.5,0,19.1,0,25.4c0,1.6-0.2,2.8-0.6,3.5c-0.5,0.9-1.3,1.3-2.3,1.2c-1.5-0.1-3.9-0.3-7-0.5
				c-3.1-0.2-5.5-0.4-7-0.4c-3.9-0.2-10-0.5-18.1-1.1c-1.3-0.1-2-0.2-3.3-0.2c-0.9-0.1-1.6-0.6-2.1-1.6c-0.5-1-0.8-2.2-0.8-3.5
				c0.1-10.7,0.1-21.6,0-32.2c0-3.5,0-12.4,0-26c0-9.8,0-19.7,0-29.5c0.1-11.3,0.1-22.6,0.2-33.9c0.1-10.4,0-20.9,0-31.2
				c0-12.7,0.1-25.7,0-38.5c0-7.8,0.1-12,0.1-21.2c0-0.9,0-1.3,0-2.2c0-0.9,0-1.3,0-2.3c0-2,0.2-3.7,0.8-4.7
				c0.6-1.1,1.6-1.7,2.4-1.8c2.9-0.2,4.3-0.3,7.2-0.6c3.7-0.3,5.5-0.5,9.2-0.8c1.8-0.2,3,0.3,3.6,1.5c0.6,1.1,0.9,3.7,0.8,7.5
				c-0.1,22.1-0.3,44.3-0.5,66.4c-0.1,8-0.1,11.6-0.2,19c0.1,0.3,0.2,1,0.2,2.1c0,2.3,0,3.5-0.1,5.8c0.1,3,0.1,9.1,0,20.3
				c-0.1,22.7,0.2,45.6,0,68.4c0,2.6,0,4,0.2,4.2c0.1,0.2,1,0.4,2.7,0.5c0.4,0,1,0.1,1.8,0.3c0.8,0.2,1.5,0.3,1.8,0.3
				c3,0.2,4.5,0.3,7.6,0.5c0.8-0.2,1.5,0.3,2.1,1.5C1805.8,357.3,1806.1,358.5,1806.1,359.9z"/>
			<path d="M1840.6,159.8c0,1.9,0,3.2,0.2,4c0,4.1,0,6-0.1,9.8c-0.2,30.5-0.7,60.9-1.2,91.4c-0.3,19.6-0.5,39.3-0.6,58.9
				c0,8.1-0.1,12.5-0.1,22.1c-0.1,16.7-0.1,15-0.2,24.9c0,1.2-0.1,3-0.1,5.6c-0.1,2.6-0.1,4.5-0.1,5.7c-0.1,1.3-0.1,3.7-0.2,6.4
				c-0.1,2.7-1.1,4.2-2.6,4c-0.8-0.1-1.2-0.1-2-0.2c-7.4-0.8-13-1.3-16.8-1.4c-0.1,0-0.1,0-0.2,0c-0.8-0.1-1.4-0.7-1.9-1.6
				c-0.4-0.7-0.8-2.2-0.7-4.3c0.1-12,0.2-24,0.4-35.9c0.2-14.2,0.2-28.4,0.3-42.6c0.1-10.4,0.1-20.8,0.2-31.2
				c0-4.8,0.1-7.1,0.1-11.5c0-0.1,0-0.2,0-0.3c0-0.2,0.1-4.4,0.2-12.2c0.2-9.7,0.3-19.4,0.4-29.2c0.1-10.4,0.2-20.9,0.3-31.4
				c0.1-5.6,0.1-10.3,0.3-13.6c0-5.2,0.1-7.9,0.1-13.7c0-4.4,1.1-6.9,3.2-7.1c5.8-0.6,8.7-0.9,14.5-1.5c1.6-0.3,2.3-0.5,3.9-0.8
				C1839.7,153.7,1840.7,155.8,1840.6,159.8z"/>
			<path d="M1901.3,246.3c-1.9,7.2-3.3,12.6-4.2,16.1c0,1.2,0.1,2,0.2,2.4c0.2,0.7,0.2,1.1,0.4,1.8c0.6,2.8,1.6,7.1,3,13.5
				c1.4,6.4,2.4,11.9,3,15.6c2.9,16.1,5,32.3,7.2,48.4c1.8,13.1,4.4,26.1,6.9,39.1c0.2,1.1,0.2,1.6,0.4,2.7c0.4,1.8,0.8,4,1.3,6.5
				c0.5,2.5,0.8,4.4,0.9,5.7c0.7,3.4,0.1,5.8-1.6,7c-0.1,0-0.1,0-0.2,0c-1.6,0.2-5.9-0.2-12.8-1.3c-2.5-0.4-3.8-0.6-6.2-1
				c-0.9-0.1-1.7-0.5-2-0.7c-0.6-0.2-1.4-1.2-1.8-3.3c-1.8-9.8-3.2-19.8-4.7-29.7c-2.9-19.2-4.3-38.6-7.1-57.9c-0.1,0-0.1,0-0.2,0
				c-3.2,18.7-4.6,37.6-7.8,56.2c-1.6,9.3-3.1,18.6-4.7,27.9c-0.5,1.9-1.3,2.6-1.8,2.7c-0.3,0-1.1,0.2-2,0.1
				c-11.4-1.5-17.5-2.5-18.5-3.1c-0.1,0-0.1,0-0.2,0c-1.8-1.9-2.4-4.3-1.7-7.1c0.3-1.2,0.6-2.9,1-5.1c0.4-2.2,0.8-4.1,1.2-5.8
				c0.2-1,0.2-1.5,0.4-2.4c5.8-26.5,9.1-53.4,14.6-79.9c2.1-9.9,4.1-19.8,6.7-29.6c0-0.1,0-0.2,0-0.3c0.3-0.6,0.3-1.4,0-2.3
				c-0.5-1.9-1.2-4.7-2-8.1c-0.8-3.5-1.4-5.9-1.8-7.4c-6.2-24.4-11.5-49.1-16.2-73.9c-0.8-3.8-1.3-7-1.5-9.3
				c-0.1-0.5-0.4-1.8-0.8-3.9c-0.6-3.7,0-6.5,1.8-8.1c1.1-1,7.2-2.1,18-3.5c1.8-0.2,3,1.3,3.7,4.3c0.2,1.4,0.9,6,2.1,13
				c1.1,7,2.1,12.3,3,16.2c2.4,11.6,4.3,23.4,7,35c0,0.1,0,0.2,0,0.3c0.1-0.1,0.1-0.2,0.2-0.3c2.6-12.1,4.8-24.2,7.2-36.3
				c2.1-10.3,3.8-20.8,5.6-31.2c0.5-3.3,1.8-5.2,3.7-5.5c10.7-1.5,16.6-2,17.7-1.2c0.1,0,0.1,0,0.2,0c1.7,1.3,2.2,4.2,1.5,8.4
				c-0.1,0.3-0.3,1-0.4,2c-0.1,1-0.2,1.8-0.2,2.4c-0.9,6.1-1.5,9.4-1.8,10.5C1913.1,193,1908.1,219.9,1901.3,246.3z"/>
		</g>
	</g>
</g>
</svg>
