<svg width="46" height="42" viewBox="0 0 46 42" fill="none" xmlns="http://www.w3.org/2000/svg">
<path d="M43.8331 4.33332V16.8333M43.8331 16.8333H31.3331M43.8331 16.8333L34.1873 7.74999C31.3135 4.87444 27.5831 3.01079 23.558 2.43987C19.5329 1.86895 15.4314 2.62169 11.8713 4.58465C8.31129 6.54762 5.48568 9.61447 3.8203 13.323C2.15491 17.0316 1.73997 21.181 2.63801 25.1459C3.53605 29.1109 5.69841 32.6765 8.79924 35.3056C11.9001 37.9346 15.7714 39.4846 19.8298 39.722C23.8882 39.9595 27.9138 38.8714 31.3001 36.6219C34.6863 34.3723 37.2497 31.0831 38.6039 27.25" stroke="#1E1E1E" stroke-width="4" stroke-linecap="round" stroke-linejoin="round"/>
</svg>
