<svg width="46" height="44" viewBox="0 0 46 44" fill="none" xmlns="http://www.w3.org/2000/svg">
<path d="M12.5832 20L20.9165 2C22.5741 2 24.1638 2.63214 25.3359 3.75736C26.508 4.88258 27.1665 6.4087 27.1665 8V16H38.9582C39.5621 15.9934 40.1604 16.113 40.7114 16.3504C41.2625 16.5879 41.7532 16.9375 42.1495 17.375C42.5459 17.8126 42.8384 18.3276 43.0068 18.8845C43.1752 19.4414 43.2155 20.0267 43.1248 20.6L40.2498 38.6C40.0992 39.5538 39.5945 40.4232 38.8288 41.048C38.0631 41.6728 37.088 42.0109 36.0832 42H12.5832M12.5832 20V42M12.5832 20H6.33317C5.2281 20 4.16829 20.4214 3.38689 21.1716C2.60549 21.9217 2.1665 22.9391 2.1665 24V38C2.1665 39.0609 2.60549 40.0783 3.38689 40.8284C4.16829 41.5786 5.2281 42 6.33317 42H12.5832" stroke="#1E1E1E" stroke-width="4" stroke-linecap="round" stroke-linejoin="round"/>
</svg>
