<svg width="336" height="372" viewBox="0 0 336 372" fill="none" xmlns="http://www.w3.org/2000/svg">
<circle cx="168" cy="204" r="168" fill="#7B00FF"/>
<path d="M172.8 283.6C145.5 283.6 118.5 275.8 96 259.6L117.3 225.1C135.9 237.4 156.3 243.7 173.1 243.7C183 243.7 187.5 240.7 187.5 235V234.4C187.5 228.1 178.5 225.4 161.4 220.6C129.3 212.2 103.8 201.4 103.8 168.7V168.1C103.8 133.6 131.4 114.4 168.9 114.4C192.6 114.4 217.2 121.3 235.8 133.3L216.3 169.3C199.5 160 181.2 154.3 168.3 154.3C159.6 154.3 155.1 157.6 155.1 162.1V162.7C155.1 169 164.4 172 181.5 177.1C213.6 186.1 239.1 197.2 239.1 228.7V229.3C239.1 265 212.4 283.6 172.8 283.6Z" fill="#FEF9FF"/>
</svg>
