<svg id="Camada_1" data-name="Camada 1" xmlns="http://www.w3.org/2000/svg" viewBox="0 0 655 291"><path d="M13.7,223.5a5,5,0,0,1,.9-1.8c.4-.5.6-.5.9-.5s.7-.1,1.1.8c.2.4.5,1.3.7,1.7a8.7,8.7,0,0,0,.9,1.1,5.57,5.57,0,0,1,.9,1.3,6.07,6.07,0,0,1,.7,1,2.84,2.84,0,0,1,.9,1c.4.4.7.6,1.1,1a2,2,0,0,1,.9.6c.4.3.7.3.9.6.4.4.7.6,1.1,1,.4,0,.7.3.9.3.4.3.7.7,1.1.6.4.3.7.3,1.1.6.4,0,.6-.1.9-.1.4.3.7-.1,1.1.3.4,0,.7.3,1.1.3s.7-.1,1.1-.1.7-.1,1.1-.1.7-.1,1.1-.1a1.39,1.39,0,0,0,1.1-.5c.4,0,.6-.1.9-.1s.7-.4,1.1-.5c.4-.4.7-.4,1.1-.8.4,0,.7-.4,1.1-.5.4-.4.6-.8.9-.8a4.7,4.7,0,0,0,.9-1.2,7.29,7.29,0,0,0,.9-1.1c.4-.5.7-.7,1.1-1.2.2-.4.6-.7.7-1.1.4-.7.7-1.1.9-1.5a9,9,0,0,0,.7-1.4c.2-.7.6-1.6.7-2.1a9.84,9.84,0,0,0,.6-2.2c.2-.9.4-1.3.6-2.2s.4-1.3.6-2.2.4-1.3.6-2.2c0-.9.2-1.7.2-2.6a13.06,13.06,0,0,0,.4-2.2,11.4,11.4,0,0,0,.2-2.6,11.4,11.4,0,0,0,.2-2.6c0-.8.2-1.7.2-2.5a10.44,10.44,0,0,0,0-2.5v-2.5c0-.8-.2-1.7-.2-2.5v-2.5a12.91,12.91,0,0,1-.5-2.1,10.55,10.55,0,0,0-.2-2.5c-.2-.8-.4-1.6-.5-2.1-.2-.8-.2-1.7-.4-2.5a8,8,0,0,1-.7-2c-.2-.4-.5-1.3-.7-1.6a8.35,8.35,0,0,1-.5-2,7.71,7.71,0,0,0-.7-2,10.06,10.06,0,0,1-.9-1.6c-.2-.4-.4-1.1-.7-1.6a10.06,10.06,0,0,1-.9-1.6,9.38,9.38,0,0,0-.9-1.2c-.2-.4-.4-1.1-.7-1.6s-.7-.8-.9-1.2a12.9,12.9,0,0,1-.9-1.6,12.9,12.9,0,0,0-.9-1.6,9.38,9.38,0,0,0-.9-1.2,9.38,9.38,0,0,0-.9-1.2c-.3-.7-.4-1-.7-1.6s-.7-.7-1.1-1.2a9.38,9.38,0,0,0-.9-1.2,9.38,9.38,0,0,0-.9-1.2,8.19,8.19,0,0,1-.9-1.7c-.2-.4-.4-1.1-.7-1.7-.2-.4-.6-.7-.9-1.2s-.7-.8-.9-1.2c-.4-.4-.6-1.3-.9-1.7s-.6-.8-.9-1.3-.4-1.5-.7-2.1c-.2-.4-.6-.8-.9-1.3a8.19,8.19,0,0,1-.9-1.7,12.2,12.2,0,0,1-.7-1.7,10.26,10.26,0,0,1-.7-1.7,17.07,17.07,0,0,0-.7-2.1c-.2-.4-.7-.9-.9-1.3a16.52,16.52,0,0,0-.7-2.1c-.3-.6-.4-1.7-.6-2.1-.2-.9-.6-1.3-.7-2.1-.2-.4-.4-1.3-.6-1.7a10.57,10.57,0,0,1-.7-2.2,16.22,16.22,0,0,0-.6-2.2,24.37,24.37,0,0,0-.6-2.6c-.2-.9-.4-1.3-.6-2.2a5.74,5.74,0,0,1-.4-2.2,24.37,24.37,0,0,0-.6-2.6c0-.9-.4-1.3-.4-2.2-.2-.9-.2-1.7-.4-2.6a11.71,11.71,0,0,0-.4-2.6c0-.9-.2-1.7-.2-2.2a11.71,11.71,0,0,1-.4-2.6,11.4,11.4,0,0,1-.2-2.6c0-.9-.4-1.8-.4-2.6V89.8c0-.9-.2-1.7-.2-2.6a11.4,11.4,0,0,1-.2-2.6,11.3,11.3,0,0,0,0-2.6V71.6c0-.9.2-1.7.2-2.6a5.89,5.89,0,0,1,.2-2.1,11.07,11.07,0,0,1,0-2.6c0-.9.2-1.7.2-2.6.2-.8,0-1.7.2-2.6,0-.9.2-1.7.2-2.6a10.86,10.86,0,0,0,.4-2.5,20,20,0,0,0,.4-2.1,10.05,10.05,0,0,1,.4-2.5c.2-.8.2-1.7.4-2.5a20,20,0,0,0,.4-2.1,7.27,7.27,0,0,0,.6-2.1,22.68,22.68,0,0,1,.6-2.5c.2-.4.6-1.3.8-1.6a7.64,7.64,0,0,0,.6-2.1c.2-.8.4-1.2.6-2.1.4-.8.5-1.5.8-2a11.91,11.91,0,0,0,1-1.6l.8-1.6c.2-.4.5-1.1.8-1.6.2-.3.8-.7,1-1.1.4-.4.6-1.2,1-1.6a6,6,0,0,0,.8-1.6,11.41,11.41,0,0,0,1.1-1.1c.2-.4.6-.3,1-.7a5,5,0,0,0,1-1.1c.4-.4.8-.3,1.1-.7a2.24,2.24,0,0,1,1-.7c.4-.4.8-.3,1.1-.7.4.1.8-.7,1.1-.7.4-.4.8.1,1.1-.3.4.1.8-.3,1.1-.7a.91.91,0,0,0,.9-.3c.5.1.7.1,1.1.2a1.25,1.25,0,0,1,1.1-.3c.5.1.7.1,1.1.2s.8-.3,1.1-.3c.5.1.7.1,1.1.2s.7.1,1.1.2.8-.3,1.1-.3a1.74,1.74,0,0,0,1.1.6c.4.1.8.5,1.1.6a3.08,3.08,0,0,0,.9.1c.5.1.7.1,1.1.2a2.08,2.08,0,0,1,1.1,1c.5.1.7.1,1.1.2s.8.5,1.1.6a2.13,2.13,0,0,0,.9.6c.4.1.7.5,1.1.6s.7.5,1.1.6.7.5,1.1.6.8.1,1.1.6c.4.1.8-.3,1.1.2a3.08,3.08,0,0,0,.9.1c.5.1.7.1,1.1.2s.8-.3,1.1-.3c.4-.4.8-.3.9-.7.4-.4.8-.3.9-.7.4.1.7.1.9.5.4.5.7.5.9,1.4a7.16,7.16,0,0,1,0,2.1,11,11,0,0,1,.2,2.5v2.5a11,11,0,0,1,.2,2.5,11,11,0,0,0,.2,2.5v5c0,1.2.2,1.2.2,2.5a11,11,0,0,0,.2,2.5v4.8c0,1.2.2,1.2.2,2.5s-.2,1.2-.2,2.4a9.74,9.74,0,0,1,.2,2.4c0,1.2.2,1.2.2,2.4a6.8,6.8,0,0,0,.2,2v4.8a8.24,8.24,0,0,1-.2,2.4,5.86,5.86,0,0,1-.8,1.6,1,1,0,0,1-1.1.3c-.4,0-.6-.3-.9-.9a12.2,12.2,0,0,1-.7-1.7c-.4-.8-.7-1.3-.9-1.7-.4-.4-.6-1.3-.9-1.7a5.08,5.08,0,0,1-.9-1.3,5.08,5.08,0,0,1-.9-1.3c-.4-.5-.7-.8-1.1-1.3-.2-.4-.6-.5-.9-.9a5.08,5.08,0,0,1-.9-1.3c-.4-.4-.7-.5-1.1-.9s-.7-.5-1.1-.9c-.4,0-.7-.5-1.1-.9-.4,0-.6-.5-.9-.5s-.7-.5-1.1-.5a1.14,1.14,0,0,0-1.1-.5c-.4-.5-.7-.9-1.1-.9s-.7-.1-1.1-.1-.7-.1-1.1-.1-.8-.1-1.1.3c-.5,0-.7-.1-1.1-.1-.4.4-.8.3-1.1.7-.4,0-.8-.1-1.1.3s-.6.8-.9,1.1a3.13,3.13,0,0,0-.9,1.1c-.2.3-.8.3-1.1,1.1a5.86,5.86,0,0,0-.8,1.6c-.2.4-.4,1.2-.8,2a12.43,12.43,0,0,0-.6,2c-.2.8-.2,1.2-.4,2.1a10.05,10.05,0,0,0-.4,2.5,10.86,10.86,0,0,0-.4,2.5v2.5c0,.8-.2,1.7-.2,2.5v2.5c0,.8-.2,1.7-.2,2.5a11.71,11.71,0,0,1,.4,2.6,6.19,6.19,0,0,0,.2,2.1,10.86,10.86,0,0,0,.4,2.5c.2.9.2,1.7.4,2.5s.4,1.3.6,2.1a14.24,14.24,0,0,0,.6,2.1,17.23,17.23,0,0,0,.7,2.1,12.2,12.2,0,0,1,.7,1.7c.3.6.3,1.5.6,2.1.2.4.5,1.5.7,2.1a12.2,12.2,0,0,1,.9,1.7,8.26,8.26,0,0,1,.7,1.3,12.84,12.84,0,0,1,.7,2.1c.2.4.7.9.9,1.3.4.8.7,1.3.9,1.7s.6.8.9,1.3a4.1,4.1,0,0,1,.7,1.7c.4.8.7,1.3.9,1.7a3.81,3.81,0,0,1,.9,1.3c.4.8.6,1.2.9,1.7s.7.8.9,1.2a9.15,9.15,0,0,1,.9,1.7,12.49,12.49,0,0,0,.9,1.2,7.35,7.35,0,0,0,.9,1.2,9.76,9.76,0,0,1,.7,1.6,10.06,10.06,0,0,0,.9,1.6,12.9,12.9,0,0,0,.9,1.6c.2.4.5,1.1.7,1.6s.7.8.9,1.2a12.9,12.9,0,0,1,.9,1.6c.3.6.4,1,.7,1.6a4,4,0,0,1,.9,1.6c.2.4.5,1.1.7,1.6s.7,1.2.9,1.6.3,1.5.5,2a5.65,5.65,0,0,1,.9,1.6c.3.6.4,1,.7,1.6a15.87,15.87,0,0,0,.7,2,7.21,7.21,0,0,1,.5,2c.3.6.4,1,.7,1.6l.5,2,.5,2c.2.8.5,1.2.7,2l.5,2c.2.8.2,1.6.4,2.4l.5,2c.2,1,.3,1.4.5,2.4a11.51,11.51,0,0,0,.4,2c.2.8.2,1.6.4,2.4a17.32,17.32,0,0,0,.4,2,10,10,0,0,0,.4,2.4v2.4c.2.8.2,1.6.4,2.4,0,.8.2,1.6.2,2.4a9.74,9.74,0,0,0,.2,2.4v2.5a10.14,10.14,0,0,1,.2,2.5c.2.8,0,1.7.2,2.5,0,.8-.2,1.7-.2,2.5s.2,1.6.2,2.5-.2,1.7-.2,2.5v7.5a11.4,11.4,0,0,0-.2,2.6,6.19,6.19,0,0,0-.2,2.1c0,.9-.2,1.7-.2,2.6a11.71,11.71,0,0,0-.4,2.6c-.2.9-.2,1.7-.4,2.6a8.6,8.6,0,0,1-.2,2.4c0,.7-.4,1-.4,1.7a7.79,7.79,0,0,0-.4,2.1c-.2.7-.2,1.4-.4,2.1a12.51,12.51,0,0,0-.6,1.8,17.18,17.18,0,0,1-.4,1.8,18,18,0,0,1-.6,2.2,10.78,10.78,0,0,0-.6,1.9,14.5,14.5,0,0,0-.6,1.9c-.2.8-.6,1.2-.8,2s-.4,1.2-.6,2-.6,1.2-.7,1.7a19.12,19.12,0,0,1-.6,2.1c-.4.9-.7,1.3-.9,1.7a6.33,6.33,0,0,0-.7,2.2c-.3.7-.4,1.1-.7,1.8a4.49,4.49,0,0,0-.7,1.8c-.4.9-.6,1.2-.9,1.8-.2.4-.6,1.4-.9,1.9a11.91,11.91,0,0,1-.9,1.5c-.2.5-.7,1-.9,1.5s-.6,1.4-.9,2a11.91,11.91,0,0,1-.9,1.5c-.4.5-.7.6-.9,1.1-.4.6-.7.9-1.1,1.6a8.27,8.27,0,0,0-.9,1.6,1.25,1.25,0,0,0-1.1.6,8.27,8.27,0,0,0-.9,1.6c-.4,0-.7.6-1.1,1.1a1.25,1.25,0,0,0-1.1.6c-.4,0-.7.6-1.1,1.1a4.1,4.1,0,0,1-1.1.1c-.4,0-.6.6-.9,1.1-.5.1-.8.1-1.3.2-.2,0-.6.6-.9.6s-.7.1-1.1.2-.7.1-1.1.2-.7.1-1.1.2-.7.6-1.1.7a.9.9,0,0,1-1.1-.4.9.9,0,0,1-1.1-.4c-.4.1-.7.1-1.1.2s-.7.1-1.1.2-.7-.4-1.1-.4c-.4-.5-.7.1-1.1.2-.4-.5-.7-.9-1.1-.9s-.7.1-1.1.2-.7-.4-1.1-.4a.9.9,0,0,1-1.1-.4c-.4.1-.7.1-1.1.2s-.7.1-1.1.2-.7.1-1.1.2-.7.1-1.1.2-.7.6-1.1.7c-.4.6-.7.1-1.1.7-.4.1-.7.6-1.1.7a1.39,1.39,0,0,1-1.1.7c-.4.1-.5.1-.9-.4-.4.1-.7-.4-.9-1.4a7.64,7.64,0,0,1-.4-2.5v-6c0-1.5-.2-1.4-.2-2.9a13.1,13.1,0,0,1,0-2.8,13.2,13.2,0,0,1-.2-2.8c0-1.4-.2-1.4-.2-2.7a11.4,11.4,0,0,0-.2-2.6,11.3,11.3,0,0,0,0-2.6v-2.6a10.14,10.14,0,0,1-.2-2.5c0-1.3-.2-1.2-.2-2.4v-2.4c-.2-1.2,0-1.2-.2-2.3v-2.3c-.2-1.1,0-1.1-.2-2.2v-2.2a13,13,0,0,0-.4-2.1V226A5.06,5.06,0,0,1,13.7,223.5Z" fill="#fef9ff"/><path d="M117.9,28.8c.4,0,.7.1,1.1.1s.7.1,1.1.1.7.1,1.1.1.5.1.9.1.7.5,1.1.5.7-.3,1.1-.3.7.1,1.1.1.7.1,1.1-.3c.4,0,.7-.3,1.1-.3s.7.1,1.1.1c.4-.4.7-.7,1.1-.7.4-.4.7-.3,1.1-.3a5.08,5.08,0,0,1,.9,1.3,5.08,5.08,0,0,1,.9,1.3A6.61,6.61,0,0,1,133,33a9.74,9.74,0,0,1,.2,2.4,19.67,19.67,0,0,1,.3,2.4c0,.8.2,1.6.2,2.4s.2,1.6.2,2.4a6.61,6.61,0,0,1,.3,2.4c0,.8.2,1.6.2,2.3.2.8.2,1.2.4,1.9a9,9,0,0,0,.2,2.3c0,.8.2,1.5.2,2.3a18.1,18.1,0,0,1,.3,2.3,9,9,0,0,0,.2,2.3,9,9,0,0,0,.2,2.3c0,.7.2,1.5.2,2.3a18.1,18.1,0,0,1,.3,2.3c0,.7.2,1.5.2,2.2s.2,1.5.2,2.2a2.78,2.78,0,0,1,0,1.8c-.2.4-.3,1.1-.6,1.4s-.6.3-.9.3-.7-.4-.9-.8c-.4-.5-.7-.7-1.1-1.2-.2-.4-.5-.4-.9-.8s-.7-.4-1.1-.8c-.4,0-.5-.4-.9-.8a1.28,1.28,0,0,1-1.1-.4c-.4,0-.7-.4-1.1-.4s-.7-.4-1.1-.4a1.28,1.28,0,0,1-1.1-.4,84664534303242.61,84664534303242.61,0,0,0-2.2-.2,4.1,4.1,0,0,1-1.1-.1,1.14,1.14,0,0,1-1.1-.5,84664534303361.62,84664534303361.62,0,0,0-2.2-.2c-.6,0-.6.3-1.1.3s-.5-.4-1.1-.5c-.4,0-.9,0-1.1.3a11,11,0,0,0-.9,1.4,12.51,12.51,0,0,0-.6,1.8,5.84,5.84,0,0,0-.2,1.9c0,1.1-.2,1.1-.2,2.3v4.8c0,1.2.2,1.2.2,2.4v2.3c0,1.2-.2,1.2-.2,2.3s.2,1.2.2,2.3-.2,1.1-.2,2.3v2.3c0,1.1.2,1.2.2,2.3s-.2,1.1-.2,2.3.2,1.1.2,2.3v9.2c0,1.1-.2,1.1-.2,2.2v6.6c0,1.1.2,1.1.2,2.2v8.8c0,1.1-.2,1.1-.2,2.2v2.2c0,1.1.2,1.1.2,2.2s-.2,1.1-.2,2.2.2,1.1.2,2.2v4.4c0,1.1-.2,1.1-.2,2.3s.2,1.1.2,2.3-.2,1.1-.2,2.3.2,1.1.2,2.3v4.6c0,1.1-.2,1.1-.2,2.3s.2,1.1.2,2.3v4.6c0,1.2-.2,1.2-.2,2.3s.2,1.2.2,2.3-.2,1.2-.2,2.4v9.6c0,1.2.2,1.2.2,2.4v2.4c0,1.2-.2,1.2-.2,2.4s.2,1.2.2,2.4v5c0,1.2-.2,1.3-.2,2.5v2.5c0,.8.2.8.2,2.1s-.2,1.3-.2,2.6.2,1.3.2,2.6v2.6c0,1.3-.2,1.3-.2,2.6s.2,1.3.2,2.3-.2,1-.2,2,.2,1,.2,2v2c0,1-.2,1-.2,2.1v2.4c0,.7.2,1.4.2,2.1v4.4c0,.7.2,1.5.2,2.3v2.7c0,.8.2,1.6.2,2.3a6.61,6.61,0,0,1,.3,2.4c.2.8.2,1.6.4,2.4a10.55,10.55,0,0,0,.2,2.5,12.91,12.91,0,0,1,.5,2.1c.2.8.4,1.7.5,2.1a11.71,11.71,0,0,1,.4,2.6c0,.4-.2,1.4-.2,2.3a15.39,15.39,0,0,1-.8,1.9,1.33,1.33,0,0,1-.9.6c-.4,0-.7.1-1.1.1s-.7.1-1.1.1-.7.1-1.1.1-.7.1-1.1.1-.7.1-1.1.1-.7.1-1.1.1-.7.1-1.1.1-.7.1-1.1.1-.7.1-1.1.1-.7.1-1.1.1-.7.1-1.1.1-.7.1-1.1.1-.7.1-1.1.1-.7.1-1.1.1-.7.1-1.1.1-.7.1-1.1.1-.7.1-1.1.1-.7.1-1.1.1-.7.1-1.1.1-.7.1-1.1.1-.7.1-1.1.1-.6.1-.9-.4a12.09,12.09,0,0,1-.5-1.8,10.63,10.63,0,0,1-.2-2.3,7.52,7.52,0,0,1,.2-2.3,26.14,26.14,0,0,1,.6-2.7c.2-.9.4-1.4.6-2.2a11.71,11.71,0,0,1,.4-2.6,10.55,10.55,0,0,1,.2-2.5c0-.8.4-1.7.4-2.5v-2.4a11.44,11.44,0,0,0,.2-2.8,9.34,9.34,0,0,0,.2-2.3c0-.8.2-1.5.2-2.3s-.2-1.5-.2-2.2.2-1.5.2-2.2-.2-1.4-.2-2.5.2-1.1.2-2.1v-4c0-1-.2-1-.2-2s.2-1,.2-2.3v-7.4c0-1.3-.2-1.3-.2-2.5v-2.5c0-1.3.2-1.3.2-2.5s-.2-1.2-.2-2.5v-2.5c0-1.2.2-1.3.2-2.5v-2.5c0-1.2-.2-1.2-.2-2.4s.2-1.2.2-2.5-.2-1.2-.2-2.4.2-1.2.2-2.4v-2.4c0-1.2-.2-1.2-.2-2.4s.2-1.2.2-2.4-.2-1.2-.2-2.4.2-1.2.2-2.4-.2-1.2-.2-2.4v-2.4c0-1.2.2-1.2.2-2.4v-2.3c0-1.2-.2-1.2-.2-2.3s.2-1.2.2-2.3v-4.6c0-1.2-.2-1.2-.2-2.3s.2-1.2.2-2.3-.2-1.2-.2-2.3V130.6c0-1.1.2-1.1.2-2.3V107.6c0-1.2-.2-1.2-.2-2.3s.2-1.2.2-2.3V91.5c0-1.2-.2-1.2-.2-2.4s.2-1.2.2-2.3V82c0-1.2-.2-1.2-.2-2.4s.2-1.2.2-2.4V70a7.11,7.11,0,0,0-.4-2,4.85,4.85,0,0,0-.5-2c-.3-.5-.5-1.2-.9-1.2-.2-.4-.6-.4-.9-.5-.5,0-.8-.1-1.3-.1s-.6-.4-1.1-.5-.6.3-1.1.3-.7-.5-1.1-.5c-.4.4-.7-.1-1.1-.1s-.7-.1-1.1-.1c-.4.4-.7.3-1.1.3s-.7.3-1.1.3-.7-.1-1.1.3c-.4,0-.7-.1-1.1-.1s-.7.3-1.1.3-.6.3-.9.3c-.4.4-.7.3-1.1.7s-.7.3-1.1.7a8.7,8.7,0,0,0-.9,1.1c-.4.4-.7.4-.9.7a1.51,1.51,0,0,1-1.1.7.94.94,0,0,1-.9-.5,9.83,9.83,0,0,1-.5-1.6v-2c0-.8.2-1.6.2-2.4a10,10,0,0,0,.4-2.4c0-.8.2-1.6.2-2.4.2-.8.2-1.6.4-2.4V52.5c.2-.8.2-1.6.4-2.4,0-.8.2-1.6.2-2.4.2-.8.2-1.6.4-2.4,0-.8.2-1.2.2-2s.2-1.6.2-2.4.2-1.6.2-2.4c.2-.8.2-1.6.4-2.4,0-.8.2-1.6.2-2.4.2-.8.2-1.6.4-2.4a9.74,9.74,0,0,1,.2-2.4c0-.8.2-1.6.2-2.4a12.43,12.43,0,0,1,.6-2,3,3,0,0,1,.8-1.6,11.41,11.41,0,0,0,1.1-1.1c.4,0,.7.5,1.1.6a1,1,0,0,0,.9.5c.4,0,.7.5,1.1,1A4.1,4.1,0,0,0,82,24c.4,0,.7.5,1.1.5a4.1,4.1,0,0,0,1.1.1,4.1,4.1,0,0,0,1.1.1c.4,0,.7.5,1.1.5a4.1,4.1,0,0,0,1.1.1c.4,0,.7-.3,1.1-.3s.6.1.9.1a4.1,4.1,0,0,0,1.1.1,4.1,4.1,0,0,0,1.1.1c.4,0,.7.1,1.1.1a4.1,4.1,0,0,0,1.1.1c.5.1.8.1,1.3.2a4.1,4.1,0,0,0,1.1.1,4.1,4.1,0,0,0,1.1.1,4.1,4.1,0,0,0,1.1.1,4.1,4.1,0,0,0,1.1.1,4.1,4.1,0,0,0,1.1.1c.4,0,.7.1,1.1.1s.7.1,1.1.1.7.1,1.1.1.7.1,1.1.1.7.1,1.1.1c.6.1.5.5,1.1.5s.6-.3,1.1-.3.7.1,1.1.1.7.1,1.1.1a5.7,5.7,0,0,0,1.3.1c.4,0,.7.1,1.1.1s.7.1,1.1.1.7.1,1.1.1.7.1,1.1.1.7.1,1.1.1C117.2,28.7,117.5,28.7,117.9,28.8Z" fill="#fef9ff"/><path d="M191.3,158.2a13,13,0,0,0,.4,2.1,8.2,8.2,0,0,1,.2,2.2,17,17,0,0,0,.4,2.2,8.2,8.2,0,0,1,.2,2.2c.2.7.2,1.1.4,1.8a17,17,0,0,0,.4,2.2,17,17,0,0,0,.4,2.2,9.34,9.34,0,0,0,.2,2.3,18.46,18.46,0,0,0,.4,2.3c.2,1.1,0,1.2.2,2.3a18.46,18.46,0,0,0,.4,2.3,17.32,17.32,0,0,0,.4,2,10,10,0,0,0,.4,2.4,9.74,9.74,0,0,0,.2,2.4c.2,1.2,0,1.2.2,2.4a21.66,21.66,0,0,0,.4,2.5,10.14,10.14,0,0,1,.2,2.5,22.11,22.11,0,0,1,.5,2.5c.2,1.3,0,1.3.2,2.6s.2.9.4,2.2a11.4,11.4,0,0,1,.2,2.6,25.12,25.12,0,0,0,.4,2.7c.2,1.3,0,1.3.2,2.7a10.9,10.9,0,0,0,.4,2.2,16.25,16.25,0,0,0,.4,1.9,16.25,16.25,0,0,0,.4,1.9,5.84,5.84,0,0,0,.2,1.9,7.32,7.32,0,0,0,.4,1.6,12.31,12.31,0,0,1,.2,2l.5,2a7.49,7.49,0,0,1,.2,2.1,10.93,10.93,0,0,1,.5,1.7,7.79,7.79,0,0,0,.4,2.1c.2.8.3,1.3.5,2.1,0,.4.2,1.5.2,1.8.2.9.3,1.3.5,2.2.2.7.4,1.5.5,1.9a9.72,9.72,0,0,0,.7,1.9c.2.8.4,1.5.5,1.9a15.54,15.54,0,0,0,.5,2.3,15.87,15.87,0,0,0,.7,2,5,5,0,0,1,.4,2c0,.8-.2,1.2-.2,2.1a12.72,12.72,0,0,1-.7,2.1,1.19,1.19,0,0,1-.9.5,592651740122934.6,592651740122934.6,0,0,1-2.2.2,45588595393969.06,45588595393969.06,0,0,1-2.2.2,4.1,4.1,0,0,0-1.1.1,4.1,4.1,0,0,0-1.1.1,2.48,2.48,0,0,0-.9.1,39510116008221.39,39510116008221.39,0,0,1-2.2.2,4.1,4.1,0,0,0-1.1.1,592651740121347,592651740121347,0,0,0-2.2.2,4.1,4.1,0,0,0-1.1.1,2.48,2.48,0,0,0-.9.1,4.1,4.1,0,0,0-1.1.1c-.4,0-.7.5-1.1.5s-.7-.4-1.1-.4a45588595394218.24,45588595394218.24,0,0,0-2.2.2,4.1,4.1,0,0,0-1.1.1c-.4,0-.7-.4-1.1-.4a7.44,7.44,0,0,1-.9-1.2,4.64,4.64,0,0,1-.4-2.1,10.55,10.55,0,0,1-.2-2.5,12.33,12.33,0,0,0,.2-2.9V242a8.58,8.58,0,0,0-.2-2.3c0-.8-.2-1.5-.2-2.3-.2-.7-.2-1.5-.4-2.2s0-1.5-.2-2.2a7.49,7.49,0,0,1-.2-2.1c-.2-.8-.3-1.3-.5-2.1s-.2-1.4-.4-2.1a6.47,6.47,0,0,0-.4-2c0-.7-.2-1.3-.2-2-.2-.7-.2-1-.4-1.6a5.84,5.84,0,0,0-.2-1.9,12.86,12.86,0,0,0-.4-1.9,5.84,5.84,0,0,1-.2-1.9,5.83,5.83,0,0,1-.4-1.7,25.12,25.12,0,0,0-.4-2.7,11.4,11.4,0,0,1-.2-2.6c-.2-1.3-.4-.9-.4-2.2-.1-1-.2-1.5-.4-2.6a10.05,10.05,0,0,0-.4-2.5c-.2-1.3,0-1.3-.2-2.5a9.82,9.82,0,0,1-.2-2.1,21.66,21.66,0,0,0-.4-2.5,10,10,0,0,0-.4-2.4,5.57,5.57,0,0,0-.2-2,20,20,0,0,0-.4-2.4,20,20,0,0,0-.4-2.4c-.2-1.2,0-1.2-.2-2.4a4.14,4.14,0,0,0-.4-1.9c-.2-1.1,0-1.2-.2-2.3a18.46,18.46,0,0,0-.4-2.3,18.46,18.46,0,0,0-.4-2.3,6.4,6.4,0,0,0-.5-1.9,7.46,7.46,0,0,0-.9-1.5,1.71,1.71,0,0,0-1.3-.7c-.4,0-.6.4-.9.4a296325870062434.25,296325870062434.25,0,0,1-2.2.2c-.4,0-.7,0-.9.4-.4.5-.7.7-1.1,1.2-.2.8-.4,1.2-.6,1.9a8.58,8.58,0,0,0-.2,2.3V190c0,1.2.2,1.2.2,2.4v2.5c0,1.6-.2,1.7-.2,2.9s.2,1.2.2,2.5-.2,1.3-.2,2.6v23a7.49,7.49,0,0,0,.2,2.1v6.4a9.47,9.47,0,0,0,.4,2.6,8.85,8.85,0,0,0,0,2.3c0,.8.2,1.5.2,2.3.2.8.2,1.6.4,2.3a10,10,0,0,0,.4,2.4c0,.8.4,1.2.5,2,.2,1,.3,1.5.5,2.4a5.18,5.18,0,0,1,.4,2.1,15.06,15.06,0,0,1-.4,2.2c-.2.4-.4,1.3-.7,1.4-.2.4-.6.9-.9.9s-.7.1-1.1.1-.7.1-1.1.1a2.48,2.48,0,0,0-.9.1c-.4,0-.7.1-1.1.1s-.7.1-1.1.1-.7.1-1.1.1-.7.1-1.1.1-.7.1-1.1.1-.7.1-1.1.1-.7.1-1.1.1-.7.1-1.1.1-.7.1-1.1.1-.7.1-1.1.1-.7.1-1.1.1-.7.1-1.1.1-.7.1-1.1.1-.7.1-1.1.1-.7.1-1.1.1-.7.1-1.1.1-.7.1-1.1.1-.7.1-1.1.1-.7-.4-.9-.4a3,3,0,0,1-.7-1.7,9.81,9.81,0,0,1-.2-2.2,7.05,7.05,0,0,1,.2-2.6,12.87,12.87,0,0,0,.6-2.2,22.68,22.68,0,0,1,.6-2.5,14.24,14.24,0,0,0,.6-2.1,85323627652088.06,85323627652088.06,0,0,0,.4-4.8c0-.8.2-1.6.2-2.3a10.59,10.59,0,0,0,.2-2.7v-2.2c0-.7.2-1.5.2-2.2V219c0-1,.2-1,.2-1.9s-.2-1-.2-1.8V197.4c0-1.2.2-1.3.2-2.5s-.2-1.2-.2-2.4V175.9c0-1.2.2-1.2.2-2.3s-.2-1.1-.2-2.3.2-1.2.2-2.3-.2-1.1-.2-2.3V160c0-1.1.2-1.1.2-2.2s-.2-1.1-.2-2.2.2-1.1.2-2.2-.2-1.1-.2-2.2V135.8c0-1.1.2-1.1.2-2.2s-.2-1.1-.2-2.2.2-1.1.2-2.2V127c0-1.1-.2-1.1-.2-2.2v-11c0-1.1.2-1.1.2-2.2s-.2-1.1-.2-2.2V90c0-1.1.2-1.1.2-2.2s-.2-1.1-.2-2.3V67.4c0-1.1.2-1.1.2-2.2V60.4a6.08,6.08,0,0,1-.3-2.3V53.5a9,9,0,0,0-.2-2.3,11,11,0,0,0-.2-2.7,9,9,0,0,0-.2-2.3c0-.8-.2-1.6-.2-2.3-.2-.9-.3-1.4-.5-2.4a17.32,17.32,0,0,1-.4-2c-.2-1-.3-1.4-.5-2.4a5,5,0,0,1-.4-2,8.28,8.28,0,0,1,.2-2,4.13,4.13,0,0,1,.7-1.1,1.21,1.21,0,0,1,.9-.7c.4,0,.7.1,1.1.1s.7.1,1.1.1.7.1,1.1.1.7.1,1.1.1.7.1,1.1.1.7.1,1.1.1.7.1,1.1.1.7.1,1.1.1.7.1,1.1.1.7.1,1.1.1.7.1,1.1.1.7.1,1.1.1.7.1,1.1.1.7.1,1.1.1.7.1,1.1.1.7.1,1.1.1.7.5,1.1.5.7-.3,1.1-.3.7.1,1.1.1.7.1,1.1.1a4.1,4.1,0,0,1,1.1.1,4.1,4.1,0,0,1,1.1.1,4.1,4.1,0,0,1,1.1.1c.4,0,.7.4,1.1.5s.7-.3,1.1-.3.7.4,1.1.5a1.39,1.39,0,0,1,1.1.5c.4,0,.7-.3,1.1.1a4.1,4.1,0,0,1,1.1.1,1.82,1.82,0,0,0,1.1.5,1.82,1.82,0,0,0,1.1.5c.4,0,.7.4,1.1.5.4.4.7.1,1.1.5a1.14,1.14,0,0,1,1.1.5c.4,0,.7.4,1.1.5.4.4.7.4,1.1.8.4,0,.7.4,1.1.5.4.4.7.8.9.8.4.4.7.8,1.1.8a12,12,0,0,0,1.1,1.2c.4,0,.5.4.9.8a4.7,4.7,0,0,1,.9,1.2c.4.4.7.4,1.1.8s.5,1.2.9,1.6a5.38,5.38,0,0,1,.9,1.2c.2.4.7.8.9,1.2a12,12,0,0,0,1.1,1.2c.2.4.4,1,.7,1.5s.5,1.1.7,1.5a7.46,7.46,0,0,1,.9,1.5c.2.3.5,1.1.7,1.5q.6,1,.9,1.5a8.3,8.3,0,0,1,.5,1.8c.4.7.5,1.5.7,1.8a8.3,8.3,0,0,1,.5,1.8c.2.7.4,1.4.5,1.8a11.32,11.32,0,0,0,.7,1.8c.2.7.4,1.4.5,1.8.2.7.2,1.4.4,2.1s.3,1.3.5,2.1a9.54,9.54,0,0,0,.4,1.7c0,.7.2,1.4.2,2.1.2.8.3,1.2.5,2.2a10.8,10.8,0,0,0,.4,1.9v2.2a9.33,9.33,0,0,1,.4,2.2c.2.7.2,1.5.4,2.2a8.2,8.2,0,0,0,.2,2.2v2.2c0,.7.2,1.4.2,2.2v4.2a7.49,7.49,0,0,1,.2,2.1v8.4c0,.7-.2,1.4-.2,2v2a7.14,7.14,0,0,0-.2,2,7.14,7.14,0,0,1-.2,2c0,.7-.2,1.3-.2,2a10.8,10.8,0,0,0-.4,1.7v2a15.19,15.19,0,0,1-.6,2,7.11,7.11,0,0,1-.4,2c0,.7-.2,1-.2,1.7a7.11,7.11,0,0,0-.4,2,15.19,15.19,0,0,1-.6,2,10.8,10.8,0,0,0-.4,1.7c-.2.7-.6,1-.7,1.7a3.87,3.87,0,0,1-.4,1.7,8,8,0,0,1-.6,1.7c-.4.7-.3,1.6-.6,2a6.11,6.11,0,0,0-.7,1.4c-.2.7-.6,1-.7,1.7a8,8,0,0,1-.6,1.7,4.21,4.21,0,0,1-.9,1.4,14.73,14.73,0,0,0-.7,1.7l-.7,1.4c-.2.3-.5,1-.7,1.4a9.14,9.14,0,0,0-.7,1.4,7.49,7.49,0,0,0-.2,2.1,6.52,6.52,0,0,0,.2,1.8h-.2C191.2,157.1,191.3,157.1,191.3,158.2ZM163.4,76.5v2.3c0,1.1-.2,1.1-.2,2.3V103c0,1.1.2,1.1.2,2.1s-.2,1.1-.2,2.1v6.3c0,1.1.2,1.1.2,2.1,0,.7-.2.7-.2,1.8v10.5c0,1,.2,1,.2,2.1v2.1a12.2,12.2,0,0,0,.7,1.7,4.06,4.06,0,0,0,.9,1c.2,0,.5.3.9.3H167c.5,0,.5.3,1.1.3.4,0,.9-.4,1.3-.4s.7-.4,1.1-.4.7-.4,1.1-.4a1.28,1.28,0,0,0,1.1-.4c.4,0,.7-.4.9-.7.4-.4.7-.6,1.1-1a8.12,8.12,0,0,0,.9-1c.4-.3.6-1,.9-1.4s.7-.7.9-1a7.66,7.66,0,0,0,.7-1.7c.3-.4.4-1.4.6-1.7.2-.7.6-1,.7-1.7s.2-1.4.4-2.1a8,8,0,0,0,.6-1.7,7.79,7.79,0,0,1,.4-2.1,7.79,7.79,0,0,1,.4-2.1c0-.7.2-1.4.2-2.1a7.49,7.49,0,0,0,.2-2.1c0-.7.2-1.4.2-2.1s.2-1.4.2-2.1V98.8c0-.7-.2-1.4-.2-2.1a8.58,8.58,0,0,0-.2-2.2,8.09,8.09,0,0,0,0-2.2c0-.7-.2-1.1-.2-1.8-.2-.7-.2-1.5-.4-2.2a8.51,8.51,0,0,0-.4-2.2c0-.7-.2-1.1-.2-1.9a9.26,9.26,0,0,1-.4-2.3c-.2-.8-.5-1.1-.7-1.9a7.39,7.39,0,0,1-.5-1.9c-.2-.4-.3-1.4-.5-1.9s-.5-.7-.9-1.4c-.2-.4-.5-.7-.7-1.1-.4-.7-.7-.7-1.1-1.1a4.36,4.36,0,0,0-.9-1.1,1.28,1.28,0,0,0-1.1-.4,1.42,1.42,0,0,0-.9-.8c-.4-.4-.7-.4-1.1-.8a98775290020837.69,98775290020837.69,0,0,1-2.2-.2,1.28,1.28,0,0,0-1.1-.4c-.5,0-.5-.4-1.1-.4s-.5.3-1.1.3a1.55,1.55,0,0,0-1.1.3,6.07,6.07,0,0,0-.7,1,4,4,0,0,0-.7,1.8c0,.7-.2,1.4-.2,2.1A10.44,10.44,0,0,0,163.4,76.5Z" fill="#fef9ff"/><path d="M208.4,253.1c-.2-.4-.4-1.2-.6-1.6a11.51,11.51,0,0,1-.4-2c.2-.8.2-1.6.4-2.1a16.84,16.84,0,0,1,.6-2.4c.2-.8.4-1.2.6-2s.2-1.6.4-2.3c0-.8.2-1.5.2-2.3.2-.8.2-1.5.4-2.3,0-.7.2-1.5.2-2.2s.2-1.5.2-2.5v-6.3c0-.7.2-1.4.2-2s-.2-1.3-.2-2.3.2-1,.2-2v-13c0-1.3-.2-1.3-.2-2.6s.2-1.3.2-2.6-.2-1.3-.2-2.6v-5c0-1.2.2-1.3.2-2.5V174c0-1.1-.2-1.1-.2-2.2s.2-1.1.2-2.2v-2.2c0-1.1-.2-1.1-.2-2.2s.2-1.1.2-2.2v-8.4c0-1-.2-1-.2-2.1v-4.2c0-1,.2-1,.2-2v-2c0-1-.2-1-.2-2s.2-1,.2-2-.2-1-.2-2v-2c0-1,.2-1,.2-2v-4c0-1-.2-1-.2-2s.2-1,.2-2v-4c0-1-.2-1-.2-2s.2-1,.2-2V94.2c0-1.1-.2-1.1-.2-2.1V87.8c0-1.1.2-1.1.2-2.2V81.2c0-1.1-.2-1.1-.2-2.3s.2-1.1.2-2.2V70.5c0-1-.2-1-.2-2.1V59.6a7.84,7.84,0,0,1-.2-2.2,8.58,8.58,0,0,0-.2-2.2V52.6c0-.7-.2-1.5-.2-2.2-.2-.9-.3-1.4-.5-2.3a9.34,9.34,0,0,0-.2-2.3,7.39,7.39,0,0,1-.5-1.9c-.2-.8-.4-1.5-.5-1.9a9.26,9.26,0,0,1-.4-2.3,10.8,10.8,0,0,1,.4-1.9,11.73,11.73,0,0,1,.5-1.1c.4-.4.7-.7.9-.7a4.1,4.1,0,0,1,1.1.1,148162935031264.56,148162935031264.56,0,0,0,2.2.2,4.1,4.1,0,0,1,1.1.1,5.7,5.7,0,0,1,1.3.1,4.1,4.1,0,0,1,1.1.1,296325870063433.2,296325870063433.2,0,0,0,2.2.2c.4,0,.7.4,1.1.4s.7-.4,1.1-.3a4.1,4.1,0,0,1,1.1.1h14.1c.4,0,.7.4,1.1.4s.7-.4,1.1-.3h6.6a1.28,1.28,0,0,1,1.1.4c.4,0,.7-.4,1.1-.4h2.2c.4,0,.7.4,1.1.4s.7-.4,1.1-.4h1.1c.4-.4.7,0,1.1-.4a1.28,1.28,0,0,0,1.1-.4c.4,0,.7,0,.9-.4a1.28,1.28,0,0,0,1.1-.4c.4,0,.7-.4,1.1,0,.4,0,.7.4,1.1.8a3,3,0,0,1,.7,1.6,7.21,7.21,0,0,1,.5,2c0,.8.2,1.5.2,2.3a9,9,0,0,1,.2,2.3c.2.8.2,1.5.4,2.3A8.2,8.2,0,0,0,261,49c0,.7.2,1.5.2,2.2a8.51,8.51,0,0,0,.4,2.2,8.58,8.58,0,0,0,.2,2.2,7.49,7.49,0,0,0,.2,2.1c0,.4.2,1.1.2,1.8.2.7.2,1.4.4,2.1,0,.7.2,1.4.2,2.1.2.7.2,1.4.4,2.1v2a7.87,7.87,0,0,1,.4,2,6.8,6.8,0,0,1,.2,2c.2.7.2,1.3.4,2a5.29,5.29,0,0,1-.2,1.6c0,.3-.2,1-.4,1-.4.3-.7.6-1.1.6-.2,0-.5-.3-.9-.7a4.06,4.06,0,0,0-.9-1c-.4,0-.7-.7-.9-.7-.4-.3-.7-.7-1.1-.7-.4-.3-.7-.7-1.1-.7-.4-.3-.7,0-1.1,0-.4-.3-.7-.3-1.1-.7-.2,0-.5-.3-.9-.4s-.7-.3-1.1-.4h-3.3c-.4-.3-.7,0-1.1,0h-1.1c-.5,0-.5-.3-1.1-.4h-5.5c-.5,0-.5.3-1.1.3s-.5-.4-1.1-.4-.5.3-1.1.3h-3.3a1.55,1.55,0,0,0-1.1.3c-.4,0-.5.7-.9,1a4.94,4.94,0,0,0-.5,1.7,3.92,3.92,0,0,0-.2,1.7v2.1c0,1.1-.2,1.1-.2,2.2v2.2c0,1.1.2,1.1.2,2.2V91c0,1.1-.2,1.1-.2,2.1s.2,1.1.2,2.1v4.2c0,1-.2,1-.2,2v3.7c0,1,.2,1,.2,2v8a3.75,3.75,0,0,0,.7,1.3c.4.7.5,1,.9,1.3.4,0,.7.3,1.1.3h6.1c.4,0,.7-.3,1.1-.3s.7.3,1.1.3a1.55,1.55,0,0,1,1.1-.3h1.1c.5,0,.9-.3,1.3-.3.4-.3.7,0,1.1-.3.4,0,.7-.3,1.1-.3.4-.3.7-.3,1.1-.6.4,0,.7-.3,1.1-.6a2.84,2.84,0,0,0,.9-1c.4-.3.8-.3,1.1-.6s.5-.6.9-.6h.9c.4.3.5,1,.7,1.3a6.15,6.15,0,0,1,.2,1.9V122c0,.6.2,1.3.2,1.9s-.2,1.3-.2,1.9v24.8c0,.7-.2,1.3-.2,1.7a6,6,0,0,1-.7,1.4c-.4.4-.7.7-.9.7-.4,0-.7-.7-.9-1s-.7-.3-1.1-.6-.6-1-.9-1c-.4-.3-.7-.3-1.1-.6a1.55,1.55,0,0,0-1.1-.3c-.4-.3-.7-.7-1.1-.6a1.55,1.55,0,0,0-1.1-.3,2.4,2.4,0,0,1-1.3-.3c-.4,0-.7.4-1.1,0H243a1.55,1.55,0,0,0-1.1-.3h-1.1c-.4,0-.7.4-1.3.4s-.5-.3-1.1-.3-.7.4-1.3.4h-1.3c-.5,0-.5-.3-1.1-.3a1.28,1.28,0,0,0-1.1.4c-.4.3-.5.7-.9,1.4a4.94,4.94,0,0,0-.5,1.7,3.92,3.92,0,0,0-.2,1.7v2.1c0,1-.2,1-.2,2.1s.2,1,.2,2.1v2.1c0,1.1-.2,1.1-.2,2.2,0,1.4.2,1.4.2,2.5v4.4c0,1.1-.2,1.1-.2,2.3s.2,1.1.2,2.3v11.8c0,1.2-.2,1.2-.2,2.5s.2,1.2.2,2.5-.2,1.3-.2,2.6v2.6c0,1.3.2,1.3.2,2.6v10.9a3.2,3.2,0,0,0,.2,1.5,13.78,13.78,0,0,0,.6,1.6,7.35,7.35,0,0,0,.9,1.2c.4.3.7,0,1.1,0,.6,0,.6.3,1.1.3h4.2c.6,0,.6-.3,1.1-.3h2.2c.5,0,.6.3,1.1.3h1.1c.5,0,.5-.3,1.1-.3s.6.3,1.1.3.7-.3,1.1-.3h4.4c.4,0,.7-.3,1.1-.3a1.55,1.55,0,0,1,1.1-.3,1.33,1.33,0,0,1,.9-.3,1.55,1.55,0,0,1,1.1-.3,3.38,3.38,0,0,1,1.1-.7c.4-.3.7-.3,1.1-.6.4,0,.5-.6.9-1s.6-.3.9-.6.7-.6.9-.6a1.15,1.15,0,0,1,.9.6,1.85,1.85,0,0,1,.7.9,2.19,2.19,0,0,1,0,1.6,6.46,6.46,0,0,1-.4,1.9,6.15,6.15,0,0,1-.2,1.9c0,.6-.2,1.3-.2,2-.2.7-.2,1.3-.4,2,0,.7-.2,1.3-.2,2s-.2,1.4-.2,2a7.79,7.79,0,0,1-.4,2.1v2.1a7.49,7.49,0,0,0-.2,2.1,8.51,8.51,0,0,0-.4,2.2c0,.7-.2,1.5-.2,2.2a4.49,4.49,0,0,0-.4,1.9,9,9,0,0,1-.2,2.3c0,.8-.2,1.5-.2,2.3a9.74,9.74,0,0,0-.2,2.4,10,10,0,0,0-.4,2.4,5.75,5.75,0,0,1-.4,2.4c-.2.4-.6.8-.9,1.3s-.7,1.3-1.1,1.3h-1.1c-.4-.4-.7-.8-.9-.8-.4,0-.7-.4-1.1-.8H251c-.4,0-.7-.4-1.1-.4-.4-.4-.7,0-1.1,0H229.4a296325870062701.3,296325870062701.3,0,0,1-2.2.2,148162935030481.47,148162935030481.47,0,0,1-3.3.3,296325870062669.75,296325870062669.75,0,0,1-2.2.2,4.1,4.1,0,0,0-1.1.1h-.9a42332267151706.33,42332267151706.33,0,0,1-2.2.2,4.1,4.1,0,0,0-1.1.1,296325870062630.25,296325870062630.25,0,0,1-2.2.2,42332267151702.24,42332267151702.24,0,0,1-2.2.2,487419841686522.9,487419841686522.9,0,0,0-2.6.2A1.59,1.59,0,0,1,208.4,253.1Z" fill="#fef9ff"/><path d="M284.9,38.3h31a1.28,1.28,0,0,1,1.1.4,3.74,3.74,0,0,1,.7,1.6,13,13,0,0,1,.4,1.9,5,5,0,0,1-.2,1.9c-.2.8-.2,1.5-.4,2.3a7.8,7.8,0,0,1-.4,2.2v2.2c0,.7-.2,1.5-.2,2.2v4.3a7.49,7.49,0,0,0,.2,2.1v2.4a7.49,7.49,0,0,0,.2,2.1c0,.7.2,1.4.2,2a6.8,6.8,0,0,1,.2,2c0,.7.2,1.3.2,2a6.8,6.8,0,0,1,.2,2c.2.7,0,1,.2,1.9s0,1,.2,1.6a5.85,5.85,0,0,0,.4,1.9,7.5,7.5,0,0,0,.2,2,8.2,8.2,0,0,0,.2,2.2,8.2,8.2,0,0,0,.2,2.2,8.2,8.2,0,0,1,.2,2.2,7.84,7.84,0,0,1,.2,2.1,7.84,7.84,0,0,1,.2,2.1c.2,1,0,1,.2,2.1,0,1,.2,1,.2,2,.2,1,.2.7.4,1.7v2a14.16,14.16,0,0,0,.4,2,5.84,5.84,0,0,0,.2,1.9c0,1,.2,1,.2,1.9a12.86,12.86,0,0,0,.4,1.9c0,1-.2,1,0,1.9a12.86,12.86,0,0,0,.4,1.9,6.48,6.48,0,0,0,.2,1.9v1.8c.2.9.2.6.4,1.5a5.54,5.54,0,0,0,.2,1.8,5.54,5.54,0,0,0,.2,1.8c0,.9.2.9.2,1.8a5.54,5.54,0,0,1,.2,1.8,5.54,5.54,0,0,1,.2,1.8,5.54,5.54,0,0,1,.2,1.8,11.63,11.63,0,0,0,.4,1.8,5.54,5.54,0,0,0,.2,1.8,5.54,5.54,0,0,0,.2,1.8,3.89,3.89,0,0,0,.2,1.5,5.54,5.54,0,0,1,.2,1.8c.2.9,0,.9.2,1.8a11.63,11.63,0,0,0,.4,1.8v1.9a5.85,5.85,0,0,1,.4,1.9c.2.9,0,.9.2,1.9s0,.9.2,1.9a5.84,5.84,0,0,0,.2,1.9c0,1,.2,1,.2,1.9.2.6,0,1,.2,1.6a14.16,14.16,0,0,0,.4,2v2a6.8,6.8,0,0,1,.2,2,19.14,19.14,0,0,0,.4,2.1,7.84,7.84,0,0,0,.2,2.1c0,1.1.2,1.1.2,2.1a8.2,8.2,0,0,1,.2,2.2,17,17,0,0,0,.4,2.2v2.2a5,5,0,0,1,.2,1.9,18.46,18.46,0,0,0,.4,2.3,9.74,9.74,0,0,0,.2,2.4,9.74,9.74,0,0,1,.2,2.4c.2,1.2,0,1.2.2,2.5a21.66,21.66,0,0,0,.4,2.5,11.4,11.4,0,0,0,.2,2.6,11.3,11.3,0,0,0,0,2.6,25.12,25.12,0,0,0,.4,2.7c0,.9.2.9.2,2.3.2,1.4,0,1.4.2,2.8a13.2,13.2,0,0,0,.2,2.8c0,1.4.2,1.4.2,2.9a14.64,14.64,0,0,1,.2,2.9c.1,1.2.2,1.8.4,3v2.3a12.86,12.86,0,0,0,.4,1.9c0,1,.2,1,.2,1.9a3.44,3.44,0,0,1,.2,1.6c.2,1,0,1.3.2,2a7.11,7.11,0,0,0,.4,2v2a7.11,7.11,0,0,0,.4,2V226c.2.7.2,1.4.4,2.1a5.84,5.84,0,0,1,.4,1.8,7.79,7.79,0,0,1,.4,2.1c.2.7.2,1.4.4,2.2,0,.7.4,1.1.4,1.8a18,18,0,0,0,.6,2.2,10.78,10.78,0,0,1,.6,1.9c.2.7.4,1.1.6,1.9.3.6.4.9.7,1.5a10.8,10.8,0,0,1,.4,1.9,4.48,4.48,0,0,1,0,2.3,3,3,0,0,1-.6,1.6.87.87,0,0,1-.9.4c-.4,0-.7.4-1.1.4s-.7-.4-1.1-.4H316.7c-.4,0-.7.4-.9.4-.4,0-.7-.4-1.1-.8a3,3,0,0,1-.7-1.6,4.35,4.35,0,0,1-.4-2,5,5,0,0,1,.2-1.9,9.26,9.26,0,0,1,.4-2.3,9,9,0,0,0,.2-2.3c.2-.7,0-1.5.2-2.2v-2.2c0-.7.2-1.5.2-2.2v-2.1c0-.7-.2-1.4-.2-2.1v-2.1c0-.7-.2-1.4-.2-2.1a8.6,8.6,0,0,1-.2-2.4,18,18,0,0,1-.2-2,5.57,5.57,0,0,1-.2-2,5,5,0,0,0-.2-1.6,5.84,5.84,0,0,0-.2-1.9,3.44,3.44,0,0,0-.2-1.6v-1.9c-.2-.9-.4-.6-.4-1.6a14.84,14.84,0,0,0-.6-3.5,11.08,11.08,0,0,0-.9-1.9c-.4-.5-.7-1-1.3-.9h-5.3c-.5,0-.5.5-1.1.5-.4,0-.4-.5-.9-.5s-.5.5-1.1.5-.6-.5-1.1-.5-.5.5-1.1.5h-1.1c-.4,0-.4-.5-.9-.5H293c-.4,0-.7.5-1.1,1a4.34,4.34,0,0,0-1.1,1.9,15.08,15.08,0,0,0-.4,3.4,4.68,4.68,0,0,0-.2,1.6,5.84,5.84,0,0,0-.2,1.9c-.2.6,0,.9-.2,1.6,0,1-.2,1-.2,1.9a5.63,5.63,0,0,0-.2,1.6,6.8,6.8,0,0,0-.2,2c-.2.7-.2,1.3-.4,2v2a11,11,0,0,0-.2,2.4v2.1a7.49,7.49,0,0,1-.2,2.1v4.3c0,.7.2,1.5.2,2.2v2.2c.2.8.2,1.5.4,2.3s.2,1.5.4,2.3a5.26,5.26,0,0,1,.2,1.9,7.11,7.11,0,0,1-.4,2c-.3.6-.4,1-.7,1.6a1.28,1.28,0,0,1-1.1.4H266.9c-.2,0-.6.4-.9.4s-.7-.4-1.1-.4a1,1,0,0,1-.9-.4,2.36,2.36,0,0,1-.6-1.6,4.87,4.87,0,0,1,0-2.4,4.71,4.71,0,0,1,.4-1.6c.4-.8.5-1.6.7-2a7.67,7.67,0,0,0,.5-1.9c.2-.8.4-1.5.5-1.9.2-.9.3-1.4.5-2.3a5.84,5.84,0,0,1,.4-1.8c.2-.7.2-1.5.4-2.2a7.49,7.49,0,0,0,.2-2.1,12.09,12.09,0,0,0,.5-1.8,7.49,7.49,0,0,1,.2-2.1c0-.7.2-1.4.2-2.1a7.14,7.14,0,0,0,.2-2c.2-.7.2-1.3.4-2v-2a9.07,9.07,0,0,1,.4-1.6c.2-.9,0-1.3.2-1.9,0-1,.2-1,.2-1.9a12.86,12.86,0,0,1,.4-1.9,10.28,10.28,0,0,1,.2-2.2,14.64,14.64,0,0,1,.2-2.9v-2.8a27,27,0,0,1,.4-2.8c0-1.4.2-1.4.2-2.7.2-1.3,0-1.3.2-2.7a11,11,0,0,1,.2-2.6,14.92,14.92,0,0,1,.2-2.1,10.55,10.55,0,0,0,.2-2.5,11,11,0,0,0,.2-2.5,21.66,21.66,0,0,1,.4-2.5,9.74,9.74,0,0,1,.2-2.4c.2-1.2,0-1.2.2-2.4,0-1.2.2-1.2.2-2.3a18.46,18.46,0,0,1,.4-2.3,8.84,8.84,0,0,1,0-2.3,4.88,4.88,0,0,1,.4-1.9v-2.6a4.44,4.44,0,0,0,.2-1.8,17,17,0,0,1,.4-2.2,22.78,22.78,0,0,1,.6-4.2v-2.1a7.14,7.14,0,0,0,.2-2.1,6.8,6.8,0,0,0,.2-2,6.8,6.8,0,0,0,.2-2,14.58,14.58,0,0,1,.4-1.7,6.8,6.8,0,0,1,.2-2c0-1,.2-1,.2-2a6.48,6.48,0,0,0,.2-1.9c.2-1,0-1,.2-1.9a10.62,10.62,0,0,1,.4-1.9c0-1-.2-1,0-1.9a12.86,12.86,0,0,1,.4-1.9c.2-.9,0-.9.2-1.9a6.48,6.48,0,0,1,.2-1.9,6.48,6.48,0,0,1,.2-1.9,5.63,5.63,0,0,1,.2-1.6,5.84,5.84,0,0,0,.2-1.9,16.25,16.25,0,0,1,.4-1.9V121a16.25,16.25,0,0,1,.4-1.9v-1.9a5.85,5.85,0,0,0,.4-1.9,5.84,5.84,0,0,0,.2-1.9c.2-.9,0-.9.2-1.9s.2-.6.4-1.6c0-1-.2-1.3,0-1.9a5.85,5.85,0,0,1,.4-1.9c.2-1,0-1,.2-1.9a6,6,0,0,0,0-1.9,7.11,7.11,0,0,0,.4-2,6.8,6.8,0,0,0,.2-2,6.8,6.8,0,0,0,.2-2,6.8,6.8,0,0,0,.2-2,6.8,6.8,0,0,0,.2-2,14.58,14.58,0,0,0,.4-1.7,7.84,7.84,0,0,1,.2-2.1,7.14,7.14,0,0,0,.2-2.1c.2-1.1,0-1.1.2-2.1a8.2,8.2,0,0,1,.2-2.2c0-1.1.2-1.1.2-2.2a8.2,8.2,0,0,0,.2-2.2,10.08,10.08,0,0,1,.4-2,5.84,5.84,0,0,1,.2-1.9v-2a5.63,5.63,0,0,0,.2-1.6,6.8,6.8,0,0,0,.2-2c.2-.7.2-1.3.4-2a6.8,6.8,0,0,1,.2-2,6.48,6.48,0,0,1,.2-2V60.1c0-1,.2-1.7.2-2.4V55.6c0-.7.2-1.4.2-2.1V51.3a8.2,8.2,0,0,0-.2-2.2,8.2,8.2,0,0,0-.2-2.2,10.11,10.11,0,0,0-.4-2.3,9.26,9.26,0,0,0-.4-2.3,3,3,0,0,1,0-1.9,3.8,3.8,0,0,1,.4-1.9,7.46,7.46,0,0,1,.7-1.2c.4-.4.5-.8.9-.8C284.3,38.3,284.5,38.3,284.9,38.3Zm8.2,122.3c.2.7.4,1,.6,1.7a12.2,12.2,0,0,0,.9,1.7c.4.3.7,0,1.3,0s.6.3,1.1.3h6.6c.5,0,.5-.4,1.1-.4a1.48,1.48,0,0,0,1.3-.4,6,6,0,0,0,.7-1.4,6.7,6.7,0,0,0,.7-1.8v-2.4c-.2-1,0-1-.2-2a6.8,6.8,0,0,0-.2-2,7.11,7.11,0,0,0-.4-2,6.7,6.7,0,0,0,0-2,18.78,18.78,0,0,0-.6-3.8v-1.9a12.86,12.86,0,0,0-.4-1.9,6.48,6.48,0,0,0-.2-1.9,6.48,6.48,0,0,0-.2-1.9,6.48,6.48,0,0,0-.2-1.9v-2.2a11.63,11.63,0,0,0-.4-1.8,5.54,5.54,0,0,0-.2-1.8,5.54,5.54,0,0,1-.2-1.8,5.54,5.54,0,0,1-.2-1.8c-.2-.9,0-.9-.2-1.8a5.54,5.54,0,0,0-.2-1.8v-1.8a5.54,5.54,0,0,1-.2-1.8c0-.9-.2-.9-.4-1.8,0-.9.2-.9,0-1.8,0-.9-.2-.9-.2-1.9-.2-.9,0-.9,0-1.9a16.25,16.25,0,0,0-.4-1.9,6.48,6.48,0,0,0-.2-1.9,6.15,6.15,0,0,0-.2-1.9V105a6.48,6.48,0,0,1-.2-1.9c-.2-1,0-1-.2-2,0-1-.2-1-.2-2a6.8,6.8,0,0,0-.2-2c0-1-.2-1-.2-2V93a7.14,7.14,0,0,1-.2-2.1,7.14,7.14,0,0,1-.2-2.1c-.2-.7-.6-1.8-.9-1.8-.6,0-.7,1.1-.9,1.8,0,1.1-.2,1.1-.2,2.1a7.14,7.14,0,0,0-.2,2.1,7.38,7.38,0,0,0,0,2.1,14.16,14.16,0,0,1-.4,2,6.8,6.8,0,0,1-.2,2v2a6.8,6.8,0,0,0-.2,2,6.48,6.48,0,0,0-.2,1.9c0,1-.2,1-.2,1.9a6.48,6.48,0,0,0-.2,1.9c0,1-.2,1-.2,1.9v1.9c0,.9-.2.9-.2,1.9s-.2.9-.2,1.9a5.84,5.84,0,0,0-.2,1.9,5.84,5.84,0,0,0-.2,1.9,5.54,5.54,0,0,1-.2,1.8v1.8a5.54,5.54,0,0,0-.2,1.8c-.2.9,0,.9-.2,1.8a5.54,5.54,0,0,1-.2,1.8c0,.9-.2.9-.2,1.8a5.84,5.84,0,0,0-.2,1.9,9,9,0,0,0-.2,2.2,5.84,5.84,0,0,0-.2,1.9,5.84,5.84,0,0,0-.2,1.9,12.86,12.86,0,0,1-.4,1.9,6.48,6.48,0,0,1-.2,1.9c0,1-.2,1-.2,1.9-.2,1,0,1-.2,1.9s0,1-.2,2c0,1-.2,1-.2,2a6.8,6.8,0,0,0-.2,2,6.8,6.8,0,0,0-.2,2,6.8,6.8,0,0,0-.2,2,7.14,7.14,0,0,0-.2,2.1A2,2,0,0,1,293.1,160.6Z" fill="#fef9ff"/><path d="M339.7,249.6c-.2-.4-.6-.4-.7-1.2a8,8,0,0,1-.2-1.9,4.49,4.49,0,0,1,.4-1.9,19.48,19.48,0,0,1,.6-2.3,4.49,4.49,0,0,0,.4-1.9c.2-.9.3-1.3.5-2.2.2-.7.2-1.5.4-2.2v-2.2c.2-.7.2-1.4.4-2.1v-2.5c0-.7.2-1.4.2-2.1V225c0-.7.2-1.4.2-2v-2c0-.7-.2-1.3-.2-2.3s.2-1,.2-2v-1.9c0-1-.2-1-.2-1.9V211c0-.9.2-1,.2-2,0-1.5-.2-1.5-.2-3v-5.9c0-1.4.2-1.4.2-2.8s-.2-1.4-.2-2.8v-2.7c0-1.3.2-1.4.2-2.7v-2.6c0-1.3-.2-1.3-.2-2.6v-5c0-1.2.2-1.2.2-2.4v-4.7c0-1.1-.2-1.1-.2-2.3s.2-1.1.2-2.2-.2-1.1-.2-2.2V152.6c0-1,.2-1,.2-2s-.2-1-.2-1.9v-3.8c0-.9.2-1,.2-1.9s-.2-.9-.2-1.9v-1.9c0-.9.2-.9.2-1.8v-1.8c0-.9-.2-.9-.2-1.8v-3.6c0-.9.2-.9.2-1.8s-.2-.9-.2-1.8.2-.9.2-1.8v-5.4c0-.9-.2-.9-.2-1.8v-5.4c0-.9.2-.9.2-1.8v-3.8c0-.9-.2-.9-.2-1.9s.2-1,.2-1.9v-1.9c0-1-.2-1-.2-1.6,0-1,.2-1,.2-2s-.2-1-.2-2,.2-1,.2-2V91.2c0-1-.2-1-.2-2.1s.2-1.1.2-2.1V84.8c0-1.1-.2-1.1-.2-2.2s.2-1.1.2-2.2V78.3c0-.9-.2-.9-.2-1.9s.2-.9.2-1.9-.2-1-.2-1.9V70.7c0-.7.2-1.3.2-2.3v-2a6.8,6.8,0,0,1-.2-2c0-.7-.7-1.7-.7-2.4s.2-1.4.2-2.1c-.2-.7-.2-1.4-.4-2.1V55.3c-.2-.7-.2-1.4-.4-2.2,0-.7-.2-1.5-.2-2.2a8.51,8.51,0,0,1-.4-2.2,10.78,10.78,0,0,1-.6-1.9,10.78,10.78,0,0,0-.6-1.9,9,9,0,0,1-.2-2.3,3.34,3.34,0,0,1,0-2,11.11,11.11,0,0,1,.7-1.6c.2-.4.5-.4.9-.4h19.4a1.28,1.28,0,0,1,1.1.4,4.59,4.59,0,0,1,.7,1.6,6.55,6.55,0,0,1,.7,2c.2.8.2.8.4,1.9a18.46,18.46,0,0,0,.4,2.3,14.92,14.92,0,0,0,.4,1.9c.2,1.1.4,1.1.6,2.2a12.75,12.75,0,0,0,.4,1.8,17,17,0,0,0,.4,2.2,17,17,0,0,0,.4,2.2,18.41,18.41,0,0,0,.6,1.8,15.52,15.52,0,0,0,.4,2.1,14.58,14.58,0,0,0,.4,1.7,14.16,14.16,0,0,0,.4,2,14.16,14.16,0,0,0,.4,2c.2,1,.2.7.4,1.7a14.16,14.16,0,0,0,.4,2c.4.6.2,1,.6,1.6a10.62,10.62,0,0,0,.4,1.9c.2.6.2,1,.4,1.9.1.6.2.6.4,1.6.1.7.2,1,.4,1.9.2,1.1.2,1.1.4,1.9a17,17,0,0,0,.4,2.2c.2,1.1.4.7.6,1.8a17,17,0,0,0,.4,2.2,13,13,0,0,0,.4,2.1,12,12,0,0,0,.6,1.7,19.14,19.14,0,0,0,.4,2.1c.2.7,0,1,.4,1.7a14.16,14.16,0,0,0,.4,2c.2,1,.3.7.6,1.6s0,1,.2,1.9a10.62,10.62,0,0,0,.4,1.9c.2,1,.4.6.6,1.6a12.86,12.86,0,0,0,.4,1.9c.2.6.2,1,.4,1.9.1.6.2.6.4,1.5a11.63,11.63,0,0,0,.4,1.8,7.7,7.7,0,0,1,.6,1.5,11.63,11.63,0,0,0,.4,1.8c.2.6.2.9.4,1.5a11.63,11.63,0,0,0,.4,1.8,7.7,7.7,0,0,0,.6,1.5c0,.6.4,1.2.7,1.2s.7-.6.9-1.2a10.2,10.2,0,0,0,.4-1.5,11.63,11.63,0,0,1,.4-1.8c.2-.9.2-.6.4-1.5a11.63,11.63,0,0,1,.4-1.8c.2-.9.4-.6.5-1.5a9.51,9.51,0,0,1,.4-1.8,6.54,6.54,0,0,1,.4-1.8,9.07,9.07,0,0,0,.4-1.6,12.86,12.86,0,0,1,.4-1.9c.2-.9.2-.9.4-1.6a10.62,10.62,0,0,1,.4-1.9c.2-1,.4-1,.5-1.6a14.16,14.16,0,0,1,.4-2,14.16,14.16,0,0,1,.4-2c.2-.7.2-.7.5-1.7a19.14,19.14,0,0,1,.4-2.1c.2-.7.2-1,.4-1.8a15.52,15.52,0,0,1,.4-2.1,17,17,0,0,1,.4-2.2,11.79,11.79,0,0,0,.4-1.9c.2-1.1.3-1.2.5-2.3a12.25,12.25,0,0,1,.2-1.9,19.45,19.45,0,0,0,.5-2,12.26,12.26,0,0,1,.4-1.6c.2-.9.3-1,.5-1.9a6.46,6.46,0,0,1,.4-1.9,9.07,9.07,0,0,0,.4-1.6,14.16,14.16,0,0,1,.4-2,14.58,14.58,0,0,1,.4-1.7,14.16,14.16,0,0,1,.4-2,19.14,19.14,0,0,1,.4-2.1,14.58,14.58,0,0,0,.4-1.7c.2-1,.3-1.1.5-2.1s.2-.7.4-1.8a17,17,0,0,1,.4-2.2,12.75,12.75,0,0,1,.4-1.8,17,17,0,0,1,.4-2.2c.2-1.1.3-1.2.5-2.3.1-.7.2-.8.4-1.9a18.46,18.46,0,0,1,.4-2.3c.2-.8.1-.8.4-2a14.33,14.33,0,0,1,.5-2c.4-.8.6-1.2.9-1.7a1.28,1.28,0,0,1,1.1-.4h6.4c.6,0,.6.4,1.1.4s.6-.4,1.1-.5h10.8a1,1,0,0,1,.9.4,5.58,5.58,0,0,1,.7,1.6c0,.8.2,1.6.2,2a10,10,0,0,1-.4,2.4,12.43,12.43,0,0,0-.6,2c-.2.8-.4,1.2-.6,2s-.2,1.5-.4,2.3-.2,1.5-.4,2.3a8.2,8.2,0,0,1-.2,2.2,11.88,11.88,0,0,1-.2,2.5v2.1c0,.7-.2,1.4-.2,2.1v6.1a10.63,10.63,0,0,0-.2,2.3v3.8c0,.9.2.9.2,1.9s-.2.9-.2,1.9.2.9.2,2.1-.2,1.2-.2,2.3.2,1.1.2,2.3-.2,1.1-.2,2.2.2,1.1.2,2.2-.2,1.1-.2,1.8v2.1c0,1,.2,1,.2,2.1s-.2,1-.2,2V110c0,.9.2.9.2,1.8v1.8c0,.9-.2.9-.2,1.8v1.8c0,.9.2.9.2,1.8v1.8c0,.9-.2.9-.2,1.8v1.8c0,.9.2.9.2,1.7s-.2.9-.2,1.8v3.6c0,.9.2.9.2,1.8s-.2.9-.2,1.8v3.6c0,.9.2.9.2,1.8v1.8c0,.9-.2.9-.2,1.9s.2.9.2,1.9V148c0,1-.2,1-.2,1.9v2c0,1,.2,1,.2,2s-.2,1-.2,2v4.2c0,1.1.2,1.1.2,2.2v6.8c0,1.2-.2,1.2-.2,2.4v2.4c0,1.2.2,1.2.2,2.5s-.2,1.2-.2,2.5.2,1.3.2,2.6v5.3c0,1.4-.2,1.4-.2,2.8v5.7c0,1.5.2,1.5.2,3s-.2,1.5-.2,2.5v6.3c0,1.6.2,1.6.2,3.3s-.2,1.7-.2,2.7v4c0,1,.2,1,.2,2s-.2,1-.2,2,.2,1.7.2,2.4a7.39,7.39,0,0,0,0,2.1c0,.7-.2,1.4-.2,2.1a7.49,7.49,0,0,1,.2,2.1,7.49,7.49,0,0,1,.2,2.1v2.5a8.51,8.51,0,0,0,.4,2.2,8.2,8.2,0,0,0,.2,2.2c0,.7.2,1.5.2,2.2.2.7.2,1.5.4,2.2s.4,1.5.5,1.9c.2.9.3,1.4.5,2.3.2.4.2,1.2.4,1.9a10.8,10.8,0,0,1-.4,1.9,8.8,8.8,0,0,0-.5,1.5c-.4,0-.5.4-.9.4H401.5c-.4,0-.7.4-1.1.4s-.7-.4-1.1-.4h-2.2c-.4,0-.7-.4-.9-.8a12.75,12.75,0,0,1-.7-1.2v-1.9a5,5,0,0,1,.2-1.9c.2-.9.3-1.4.5-2.3a10.55,10.55,0,0,0,.5-1.9c.2-.7.2-1.5.4-2.2,0-.7.2-1.5.2-2.2a8.2,8.2,0,0,0,.2-2.2,7.84,7.84,0,0,0,.2-2.2c0-.7.2-1.4.2-2.5a7.49,7.49,0,0,1,.2-2.1v-2.1c0-.7.2-1.4.2-2.1s-.2-1.4-.2-2.1V221c0-1,.2-1,.2-2s-.2-1-.2-2,.2-1,.2-2-.2-1-.2-2,.2-1,.2-2.7-.2-1.6-.2-2.7v-6.2c0-1.5.2-1.5.2-3s-.2-1.5-.2-2.9v-5.6c0-1.4.2-1.4.2-2.7s-.2-1.3-.2-2.7v-2.6c0-1.3.2-1.3.2-2.5v-4.9c0-1.2-.2-1.2-.2-2.4v-2.3c0-1.2.2-1.2.2-2.3v-2.2c0-1.1-.2-1.1-.2-2.2V161c0-1.1.2-1.1.2-2.1v-4.1c0-1-.2-1-.2-2s.2-1,.2-2v-1.9c0-1-.2-1-.2-1.9v-1.9c0-.9.2-.9.2-1.9s-.2-.9-.2-1.8.2-.9.2-1.8v-1.8c0-.9-.2-.9-.2-1.8s.2-.9.2-1.8v-1.8c0-.9-.2-.9-.2-1.8,0-.6-.2-1.5-.7-1.5s-.7.3-.9.9a11.63,11.63,0,0,1-.4,1.8,6.07,6.07,0,0,0-.5,1.8c-.1.6-.2.6-.4,1.5a11.63,11.63,0,0,1-.4,1.8,11.63,11.63,0,0,1-.4,1.8c-.2.9-.4.6-.5,1.5s.1,1-.2,1.8a13.32,13.32,0,0,0-.5,1.9c-.1.6-.4.6-.5,1.6s0,.9-.2,1.9-.3,1-.5,1.9c-.1.6-.2.6-.4,1.6a14.16,14.16,0,0,1-.4,2,5.06,5.06,0,0,0-.5,1.7,14.16,14.16,0,0,1-.4,2,19.14,19.14,0,0,1-.4,2.1,15.52,15.52,0,0,1-.4,2.1c-.2.7-.2,1.1-.4,1.8a14.19,14.19,0,0,0-.5,2.2,5.64,5.64,0,0,1-.5,1.8,22.31,22.31,0,0,1-.4,2.3c-.2,1.1.1,1.2-.2,2.3a9.48,9.48,0,0,0-.5,2.3,11.8,11.8,0,0,1-.4,2c-.3,1.1-.1,1.3-.4,2.4a18.66,18.66,0,0,0-.4,2.5,7.14,7.14,0,0,1-.5,2.1c-.1,1-.2,1.5-.4,2.6-.2.9-.4,1.8-.5,2.2-.2.9-.7.9-.9,1.3-.4.5-.7.9-1.1.9-.7,0-.7-.4-1.3-.4h-1.3a1.28,1.28,0,0,1-1.1-.4,10.14,10.14,0,0,1-.9-1.3,12.87,12.87,0,0,1-.6-2.2,23.36,23.36,0,0,0-.4-2.6,15.82,15.82,0,0,0-.4-2.1,21.66,21.66,0,0,0-.4-2.5c-.4-1.2-.3-1.3-.6-2.4s-.1-.9-.4-2a19.48,19.48,0,0,0-.6-2.3,18.46,18.46,0,0,0-.4-2.3c-.2-.7,0-1.1-.4-1.9a17,17,0,0,0-.4-2.2,7.27,7.27,0,0,0-.6-2.1c-.2-.7,0-1.1-.2-1.8-.2-1-.4-1-.6-2.1a14.16,14.16,0,0,0-.4-2,14.16,14.16,0,0,0-.4-2,10.72,10.72,0,0,1-.6-1.7,14.16,14.16,0,0,0-.4-2c-.2-1-.2-.6-.4-1.6a20,20,0,0,0-1-3.8c-.1-.6-.2-.6-.4-1.6a16.25,16.25,0,0,0-.4-1.9,11.63,11.63,0,0,0-.4-1.8,10.2,10.2,0,0,0-.4-1.5c-.4-.9-.2-.9-.6-1.8a11.63,11.63,0,0,0-.4-1.8,4.71,4.71,0,0,0-.6-1.5,11.63,11.63,0,0,0-.4-1.8,11.63,11.63,0,0,0-.4-1.8c-.2-.6-.6-.9-.9-.9-.5,0-.9.9-.9,1.5,0,.9.2.9.2,1.8s-.2.9-.2,1.8v5.4c0,.9.2.9.2,1.8v1.9c0,.9-.2.9-.2,1.9s.2.9.2,1.9v3.8c0,1-.2,1-.2,2s.2,1,.2,2-.2,1-.2,2,.2,1,.2,2.1v2.1c0,1.1-.2,1.1-.2,2.1s.2,1.1.2,2.2v2.2c0,1.1-.2,1.1-.2,2.3s.2,1.1.2,2.3-.2,1.2-.2,2.3.2,1.2.2,2.4-.2,1.2-.2,2.4v2.5c0,1.3.2,1.3.2,2.5v2.6c0,1.3-.2,1.3-.2,2.7v5.5c0,1.4.2,1.4.2,2.8,0,1-.2,1-.2,2.4v6c0,1.5.2,1.5.2,3.1v4.5c0,1-.2,1-.2,1.9v2c0,1,.2,1,.2,2s-.2,1.7-.2,2.3v4a7.79,7.79,0,0,1,.4,2.1v2.1a9,9,0,0,0,.2,2.5,7.49,7.49,0,0,0,.2,2.1,8.58,8.58,0,0,0,.2,2.2c0,.7.2,1.5.2,2.2a8.51,8.51,0,0,1,.4,2.2,14.5,14.5,0,0,0,.6,1.9,19.48,19.48,0,0,0,.6,2.3,4.88,4.88,0,0,1,.4,1.9,9.25,9.25,0,0,1-.4,1.9,9.83,9.83,0,0,0-.5,1.6c-.4,0-.5.4-.9.4H346.6c-.4,0-.7.4-1.1.4s-.7-.4-1.1-.4h-3.3A14,14,0,0,0,339.7,249.6Z" fill="#fef9ff"/><path d="M426.9,252a6.22,6.22,0,0,1-.7-1.6,8,8,0,0,1-.2-1.9,9.26,9.26,0,0,1,.4-2.3,6.4,6.4,0,0,0,.5-1.9,8.51,8.51,0,0,0,.4-2.2,6.55,6.55,0,0,0,.5-1.8,8.51,8.51,0,0,1,.4-2.2c0-.7.2-1.5.2-2.2s.2-1.5.2-2.2v-2.5c0-.7.2-1.4.2-2.1v-6.3c0-.7.2-1.4.2-2.4s-.2-1-.2-2.1.2-1,.2-2-.2-1-.2-2,.2-1,.2-2v-5.5c0-1.6-.2-1.6-.2-3.2s.2-1.6.2-3.2-.2-1.6-.2-3.1v-5.9c0-1.4.2-1.4.2-2.9s-.2-1.4-.2-2.8.2-1.4.2-2.7v-2.7c0-1.3-.2-1.3-.2-2.6v-5c0-1.2.2-1.2.2-2.4v-2.4c0-1.2-.2-1.2-.2-2.3s.2-1.1.2-2.3v-8.6c0-1-.2-1-.2-2v-2c0-1,.2-1,.2-2v-3.8c0-1-.2-.9-.2-1.9s.2-.9.2-1.9v-1.8c0-.9-.2-.9-.2-1.8s.2-.9.2-1.8v-1.8c0-.9-.2-.9-.2-1.8s.2-.9.2-1.8v-1.8c0-.9-.2-.9-.2-1.8s.2-.9.2-1.8-.2-.9-.2-1.7.2-.9.2-1.8V110.6c0-.9-.2-.9-.2-1.8V107c0-.9.2-.9.2-1.9s-.2-.9-.2-1.9.2-.9.2-1.9-.2-1-.2-1.9.2-1,.2-1.6V85.3c0-1.1-.2-1.1-.2-2.2s.2-1.1.2-2.3-.2-1.1-.2-2.3.2-1.2.2-2.1V74.5c0-.9-.2-.9-.2-1.9V68.8c0-.7.2-1.3.2-2.3,0-.7-.2-1.3-.2-2a6.69,6.69,0,0,0,0-2V58.3c-.2-.7-.2-1.4-.4-2.1a9,9,0,0,0-.2-2.5,8.2,8.2,0,0,0-.2-2.2c0-.7-.2-1.5-.2-2.3-.2-.8-.4-1.1-.6-1.9a9.26,9.26,0,0,0-.4-2.3,12.43,12.43,0,0,0-.6-2,10,10,0,0,1-.4-2.4,8.28,8.28,0,0,1,.2-2c.2-.8.6-.8.7-1.3a1.65,1.65,0,0,1,.9-.5c.4,0,.7-.5,1.1-.5a4.1,4.1,0,0,0,1.1-.1c.4,0,.7.4,1.1.4s.7-.5,1.1-.5a148162935032634.06,148162935032634.06,0,0,0,2.2-.2,4.1,4.1,0,0,0,1.1-.1,4.1,4.1,0,0,0,1.1-.1h.9a148162935029011.66,148162935029011.66,0,0,1,2.2-.2,222244402547126.12,222244402547126.12,0,0,1,3.3-.3A148162935029004,148162935029004,0,0,1,445,35a148162935032673.16,148162935032673.16,0,0,0,2.2-.2,2.48,2.48,0,0,0,.9-.1,148162935028972.47,148162935028972.47,0,0,1,2.2-.2,148162935028956.62,148162935028956.62,0,0,1,2.2-.2c.4,0,.7.4,1.1.4a4.1,4.1,0,0,0,1.1-.1c.4,0,.7-.5,1.1-.5a4.1,4.1,0,0,0,1.1-.1c.4,0,.7.4,1.1.4s.6-.5.9-.5a148162935030162,148162935030162,0,0,1,2.2-.2,148162935028917.25,148162935028917.25,0,0,1,2.2-.2,4.1,4.1,0,0,0,1.1-.1c.4,0,.7.4,1.1-.1a74081467516758,74081467516758,0,0,0,2.2-.2,4.1,4.1,0,0,0,1.1-.1c.4,0,.7-.5,1.1-.5A1.14,1.14,0,0,0,471,32a2.48,2.48,0,0,0,.9-.1c.4-.5.7-.9,1.1-.9a1.14,1.14,0,0,1,1.1-.5c.4.4.7.4,1.1.8a7,7,0,0,1,.9,1.7,6.57,6.57,0,0,1,.4,2.5,10.55,10.55,0,0,0,.2,2.5c0,.8.2,1.6.2,2.5.2.8.2,1.6.4,2.4,0,.8.2,1.6.2,2.4s.2,1.6.2,2.3c.2.8.2,1.5.4,2.3a7.84,7.84,0,0,0,.2,2.2c0,.7.2,1.1.2,1.8.2.7.2,1.5.4,2.2a7.49,7.49,0,0,0,.2,2.1c0,.7.2,1.4.2,2.1.2.7.2,1.4.4,2.1a6.48,6.48,0,0,0,.2,2c0,.7.2,1.3.2,2s.2,1.3.2,2a6.15,6.15,0,0,1,.2,1.9,2.2,2.2,0,0,1,0,1.6,3.26,3.26,0,0,1-.4,1.3.91.91,0,0,1-1.1.1,1.21,1.21,0,0,1-.9-.3c-.4,0-.5-.6-.9-.9-.4,0-.7-.6-1.1-.6a1.15,1.15,0,0,0-.9-.6,1.55,1.55,0,0,0-1.1-.3c-.4-.3-.7-.6-1.1-.6s-.7-.3-1.1-.3h-1.1a1.15,1.15,0,0,0-.9-.6c-.4,0-.7.4-1.1.4a1.55,1.55,0,0,0-1.1-.3c-.4,0-.7-.3-1.1-.3h-2.2c-.6,0-.6.3-1.1.4h-2c-.6,0-.6-.3-1.1-.3h-1.1c-.6,0-.6.3-1.1.4h-.9c-.6,0-.6-.3-1.1-.3h-3.1c-.4,0-.9,0-1.1.4-.4.3-.6,1-.9,1.3a9.12,9.12,0,0,0-.6,1.6,4.14,4.14,0,0,0-.2,1.6v2.1c0,1.2-.2,1.2-.2,2.4v2.3c0,1.1.2,1.1.2,2.3s-.2,1.1-.2,2.2.2,1.1.2,2.2v2.1c0,1-.2,1.1-.2,2.1s.2,1,.2,2v4c0,1-.2,1-.2,1.9v1.9c0,.9.2.9.2,1.9s-.2.9-.2,1.9.2.9.2,1.8v5.4a5.54,5.54,0,0,0,.2,1.8,8.8,8.8,0,0,1,.5,1.5c.2.3.5.9.9.9a1.55,1.55,0,0,0,1.1.3h2.7c.4,0,.7.3,1.1.3s.7-.3,1.1-.3h2.4c.4,0,.7-.3,1.1-.3a108648465258398.8,108648465258398.8,0,0,1,3.3-.9c.4,0,.7-.3,1.1-.6.4,0,.7-.3,1.1-.3.4-.3.7-.9,1.1-1.2.2-.3.6-.3.9-.6s.6-.6.9-.6.7,0,.9.3a2,2,0,0,1,.7,1.2,3,3,0,0,1,.4,1.5c0,.6-.2,1.2-.2,1.8s.2,1.2.2,1.8-.2,1.2-.2,1.8v1.8c0,.6.2,1.2.2,1.7s-.2,1.2-.2,1.8V128c0,.6.2.9.2,1.5s-.2,1.2-.2,1.8.2,1.2.2,1.8v3.6c0,.6-.2,1.2-.2,1.9s.2,1.2.2,1.9-.2,1.3-.2,1.9.2,1.3.2,1.9v4a3.53,3.53,0,0,1-.4,1.7,3.65,3.65,0,0,1-.7,1.4,1,1,0,0,1-.9.4c-.4,0-.5-.3-.9-.7s-.7-.6-1.1-1c-.2,0-.5-.7-.9-.7-.4-.4-.7-.6-1.1-1a1.55,1.55,0,0,0-1.1-.3c-.4-.3-.7-.3-1.1-.6-.4,0-.7-.3-1.1-.3h-1.1c-.4,0-.7-.3-1.1-.3h-2.4a1.55,1.55,0,0,0-1.1-.3h-2c-.5,0-.5.3-.9.3h-.9a1.28,1.28,0,0,0-1.1.4,2.84,2.84,0,0,0-.9,1,8,8,0,0,0-.6,1.7,7.14,7.14,0,0,0-.2,2v3.9c0,1.1-.2,1.1-.2,2.2v2.2c0,1.1.2,1.1.2,2.2v2.3c0,1.2-.2,1.2-.2,2.3v2.4c0,1.2.2,1.2.2,2.5v7.7c0,1.3-.2,1.3-.2,2.7v2.8c0,1.4.2,1.4.2,2.8s-.2,1.4-.2,2.9v12.5c0,1.6.2,1.6.2,3.3v3.4c0,1.7-.2,1.6-.2,2.6v7.9c0,1,.2,1.8.2,2.5v2.1a7.39,7.39,0,0,0,0,2.1,8.58,8.58,0,0,0,.2,2.2v2.2c0,.7.2,1.8.2,2.6a8.2,8.2,0,0,0,.2,2.2c0,.7.2,1.5.2,2.2.2.8.2,1.5.4,2.3a4.88,4.88,0,0,0,.4,1.9c.2.8.2,1.5.4,2.3s.3,1.4.5,2.3a4.88,4.88,0,0,1,.4,1.9,7.18,7.18,0,0,1-.2,1.9,3.49,3.49,0,0,1-.7,1.5c-.2.4-.5.4-.9.3a4.1,4.1,0,0,1-1.1-.1,74081467515621,74081467515621,0,0,1-3.3-.3,148162935032705.7,148162935032705.7,0,0,0-2.2-.2,74081467515615.16,74081467515615.16,0,0,1-3.3-.3,148162935032682.06,148162935032682.06,0,0,0-2.2-.2,4.1,4.1,0,0,1-1.1-.1c-.4-.1-.7,0-1.1-.1a49387645010575.78,49387645010575.78,0,0,0-2.2-.2,4.1,4.1,0,0,1-1.1-.1,4.1,4.1,0,0,1-1.1-.1H428C427.5,252.4,427.3,252.4,426.9,252Z" fill="#fef9ff"/><path d="M484.2,255.3a9.83,9.83,0,0,1-.5-1.6,8.28,8.28,0,0,1-.2-2,8.58,8.58,0,0,1,.2-2.3,10.78,10.78,0,0,0,.6-1.9,10.78,10.78,0,0,1,.6-1.9c0-.8.4-1.5.4-2.3a8.58,8.58,0,0,0,.2-2.3,7.8,7.8,0,0,1,.4-2.2v-2.2a8.88,8.88,0,0,0,.4-2.6,8.1,8.1,0,0,1,0-2.2c0-.7.2-1.5.2-2.2v-2.2c0-.7-.2-1.5-.2-2.2a9,9,0,0,0,.2-2.5v-8.5c0-1.1-.2-1.1-.2-2.3,0-1.8.2-1.8.2-3.5v-3.5c0-1.7-.2-1.7-.2-3.4s.2-1.7.2-3.3V195c0-1.6-.2-1.6-.2-3.1v-3c0-1.5.2-1.5.2-2.9V174.9c0-1.3-.2-1.3-.2-2.6s.2-1.3.2-2.5v-16c0-1.1-.2-1.1-.2-2.1v-2.1c0-1,.2-1,.2-2s-.2-1-.2-2,.2-1,.2-2-.2-1-.2-1.9.2-1,.2-1.9V127.1c0-.9-.2-.9-.2-1.8s.2-.9.2-1.8v-7.2c0-.9-.2-.9-.2-1.8s.2-.9.2-1.8v-5.4c0-.9-.2-.9-.2-1.9v-1.9c0-.9.2-1,.2-1.9V99.7c0-1-.2-1-.2-2s.2-1,.2-1.7V94c0-1-.2-1-.2-2.1s.2-1.1.2-2.1V87.6c0-1.1-.2-1.1-.2-2.2s.2-1.1.2-2.3V70c0-1-.2-1-.2-1.9s.2-1,.2-2V59.5c0-.7-.2-1.4-.2-2.1a7.84,7.84,0,0,1-.2-2.2V52.6c0-.7-.2-1.5-.2-2.3-.2-.8-.2-1.5-.4-2.3,0-.8-.2-1.5-.2-2.3-.2-.8-.2-1.6-.4-2.4a14.62,14.62,0,0,1-.5-2l-.5-2a10.55,10.55,0,0,1-.2-2.5,7.24,7.24,0,0,1,0-2.1c.2-.9.6-1.3.7-1.8a1,1,0,0,1,.9-.5,74081467514045.38,74081467514045.38,0,0,1,2.2-.2c.4,0,.7-.1,1.1-.1s.7-.1,1.1-.1.7-.1,1.1-.1.7-.1,1.1-.1.7-.1,1.1-.1.7-.1,1.1-.1.7-.1,1.1-.1.7-.1,1.1-.1.7-.1,1.1-.1.7.4,1.1.4.7-.5,1.1-.5.7-.1,1.1-.1.7-.1,1.1-.1.7-.1,1.1-.1.7-.1,1.1-.1.7-.1,1.1-.1.7-.1,1.1-.1.7-.1,1.1-.1.7-.1,1.1-.1.7.4.9.4a3,3,0,0,1,.7,1.7,9.81,9.81,0,0,1,.2,2.2,6.17,6.17,0,0,1-.4,2.2,24.37,24.37,0,0,1-.6,2.6,14.24,14.24,0,0,0-.6,2.1c0,.8-.2,1.6-.2,2.5-.2.8-.2,1.6-.4,2.4,0,.8-.2,1.6-.2,2.4a16,16,0,0,1-.4,2.7v2.3c0,.7-.2,1.5-.2,2.2v6.4c0,1-.2,1.7-.2,2.4,0,1,.2,1,.2,2V79.8c0,1.2-.2,1.2-.2,2.3s.2,1.1.2,2.3-.2,1.1-.2,2.2v2.2c0,.7.2.7.2,1.8v4.2c0,1-.2,1-.2,2s.2,1,.2,2v3.9c0,1-.2,1-.2,1.9s.2.9.2,1.9v3.7c0,.9-.2.9-.2,1.8v3.6c0,.9.2.9.2,1.8V121c0,.9-.2.9-.2,1.8s.2.9.2,1.8v10.8c0,.9-.2.9-.2,1.9s.2.9.2,1.9V145c0,1-.2,1-.2,2v2c0,1,.2,1,.2,2.1v2.1c0,1.1-.2,1.1-.2,2.2v2.2c0,1.1.2,1.1.2,2.3v4.7c0,1.2-.2,1.2-.2,2.4s.2,1.2.2,2.5-.2,1.3-.2,2.6.2,1.3.2,2.6v5.5c0,1.4-.2,1.4-.2,2.9V189c0,1.5.2,1.5.2,3.1v25.7c.3.6.4.9.7,1.5a6.56,6.56,0,0,0,.9,1.5c.4,0,.7.4,1.1.4s.6-.3,1.1-.3.4.4.9.4a4.1,4.1,0,0,1,1.1.1,4.1,4.1,0,0,1,1.1.1,148162935029419.2,148162935029419.2,0,0,1,2.2.2c.5,0,.6-.3,1.1-.3s.4.4.9.4.6-.3,1.1-.3.7.4,1.1.4a4.1,4.1,0,0,1,1.1.1,4.1,4.1,0,0,1,1.1.1c.4,0,.7-.3,1.1-.3s.7-.3,1.1-.3a4.1,4.1,0,0,1,1.1.1,4.1,4.1,0,0,1,1.1.1c.4-.3.7-.7,1.1-.7.2-.4.6-.3.9-.3.4-.3.7-.3,1.1-.7.4,0,.7-.3,1.1-.7.4,0,.6-.7.9-.7a3.13,3.13,0,0,0,.9-1.1c.4-.4.7-.7,1.1-.7a1,1,0,0,1,.9.4,8.8,8.8,0,0,1,.5,1.5,6,6,0,0,1,0,1.9c0,.8-.2,1.5-.2,2.2a24.41,24.41,0,0,0-.6,4.5,8.58,8.58,0,0,0-.2,2.3c-.2.7-.2,1.5-.4,2.3a9,9,0,0,1-.2,2.3c0,.8-.2,1.5-.2,2.3a9,9,0,0,0-.2,2.3c-.2.8-.2,1.5-.4,2.3,0,.8-.2,1.5-.2,2.3s-.2,1.5-.2,1.9c-.2.8-.2,1.5-.4,2.3a8.58,8.58,0,0,1-.2,2.3c0,.8-.2,1.6-.2,2.3a9.26,9.26,0,0,0-.4,2.3c0,.8-.2,1.6-.2,2.4-.2.8-.2,1.6-.4,2.4a11.91,11.91,0,0,1-.9,1.5,1.23,1.23,0,0,1-1.1.7,1.39,1.39,0,0,1-1.1-.5c-.4,0-.5-.5-.9-.9a1.39,1.39,0,0,1-1.1-.5c-.4,0-.7.3-1.1-.1-.4,0-.7-.5-1.1-.5s-.7-.1-1.1-.1-.7-.1-1.1-.1-.7-.1-1.1-.1-.7-.1-1.1-.1-.7-.1-1.1-.1c-.2,0-.5-.4-.9-.1-.4,0-.7-.1-1.1-.1s-.7-.1-1.1-.1-.7-.1-1.1-.1-.7-.1-1.1-.1-.7-.1-1.1-.1-.7-.1-1.1-.1-.7-.1-1.1-.1-.7-.1-1.1-.1-.7-.1-1.1-.1-.7-.1-1.1-.1-.7-.1-1.1-.1-.7-.1-1.1-.1-.7-.1-1.1-.1-.7-.1-1.1-.1a2.77,2.77,0,0,1-.9-.1c-.4,0-.7-.1-1.1-.1s-.7-.1-1.1-.1-.7-.1-1.1-.1-.7-.1-1.1-.1-.7-.1-1.1-.1-.7-.1-1.1-.1-.7-.1-1.1-.1-.7-.1-1.1-.1-.7-.1-1.1-.1-.7-.1-1.1-.1a4.1,4.1,0,0,1-1.1-.1c-.4-.1-.7,0-1.1-.1a148162935028846,148162935028846,0,0,1-2.2-.2,4.1,4.1,0,0,1-1.1-.1C484.9,255.8,484.5,255.7,484.2,255.3Z" fill="#fef9ff"/><path d="M539.4,260.2a4.57,4.57,0,0,1-.7-1.7,8.28,8.28,0,0,1-.2-2,5,5,0,0,1,.4-2,19.48,19.48,0,0,1,.6-2.3c.2-.4.2-1.6.4-2.3a4.49,4.49,0,0,0,.4-1.9,19.48,19.48,0,0,1,.6-2.3,8.58,8.58,0,0,1,.2-2.3v-2.3c0-.8.2-1.9.2-2.7v-2.3c0-.8.2-1.5.2-2.3V221.9c0-1.1.2-1.1.2-2.3V211c0-1.9-.2-1.9-.2-3.7s.2-1.8.2-3.6v-3.5c0-1.7-.2-1.7-.2-3.4s.2-1.7.2-3.3v-3.2c0-1.6-.2-1.6-.2-3.1v-6c0-1.5.2-1.5.2-2.9s-.2-1.4-.2-2.8.2-1.4.2-2.7-.2-1.3-.2-2.7.2-1.3.2-2.6-.2-1.3-.2-2.5.2-1.2.2-2.5v-4.7c0-1.2-.2-1.2-.2-2.3v-4.4c0-1.1.2-1.1.2-2.1v-2.1c0-1-.2-1-.2-2.1s.2-1,.2-2v-2c0-1-.2-1-.2-2v-1.9c0-1,.2-1,.2-1.9s-.2-.9-.2-1.9.2-.9.2-1.9-.2-.9-.2-1.8.2-.9.2-1.8-.2-.9-.2-1.8V124c0-.9.2-.9.2-1.8s-.2-.9-.2-1.8.2-.9.2-1.8-.2-.9-.2-1.8.2-.9.2-1.8v-1.8c0-.9-.2-.9-.2-1.8s.2-.9.2-1.9-.2-.9-.2-1.9.2-.9.2-1.9-.2-.9-.2-1.9v-1.9c0-1,.2-1,.2-2s-.2-1-.2-2,.2-1,.2-2V76.1c0-1.2-.2-1.2-.2-2.5V69.4c0-1,.2-1,.2-2s-.2-1-.2-2v-11a8.58,8.58,0,0,1-.2-2.3,9,9,0,0,0-.2-2.3,10.2,10.2,0,0,0-.2-2.7,9.74,9.74,0,0,0-.2-2.4,10,10,0,0,0-.4-2.4,8.58,8.58,0,0,0-.4-2.1c-.2-.8-.2-1.7-.4-2.5-.2-1-.3-1.5-.5-2.6a5.74,5.74,0,0,1-.4-2.2,15.87,15.87,0,0,1,.4-2.3,7,7,0,0,1,.6-1.9c.4,0,.6-.5.9-.6s.7-.1,1.1-.1.7-.1,1.1-.1.7-.1,1.1-.1.7-.1,1.1-.1.7.4,1.1.3.7-.5,1.1-.6.7-.1,1.1-.1.7-.1,1.1-.1.7-.1,1.1-.1.7-.1,1.1-.1.7-.1,1.1-.1.7-.1,1.1-.1.7-.1,1.1-.1.7-.1,1.1-.1.7-.1,1.1-.1.7-.1,1.1-.1.7-.1,1.1-.1.7-.1,1.1-.1.7-.1,1.1-.1.7.4,1.1.3.7-.6,1.1-.6.5.4.9.8c.2,0,.4.9.5,1.3a10.63,10.63,0,0,1,.2,2.3,12.29,12.29,0,0,1-.2,2.7,18.39,18.39,0,0,0-.6,2.3c-.2.9-.2,1.8-.4,2.7s-.4,1.3-.6,2.2a10.55,10.55,0,0,1-.2,2.5,10.86,10.86,0,0,1-.4,2.5v2.8a9.74,9.74,0,0,0-.2,2.4c0,.8-.2,1.6-.2,2.3v2.3c0,.7-.2,1.5-.2,2.2s.2,1.4.2,2.2v2.5c0,1.1-.2,1.1-.2,2.1s.2,1,.2,2v2c0,1-.2,1-.2,2s.2,1,.2,2.3-.2,1.3-.2,2.6v2.5c0,1.2.2,1.2.2,2.4s-.2,1.2-.2,2.4.2,1.2.2,1.9c0,1.2-.2,1.2-.2,2.3v2.2c0,1.1.2,1.1.2,2.2s-.2,1.1-.2,2.2V95c0,1,.2,1,.2,2.1s-.2,1-.2,2,.2,1,.2,2V105c0,1-.2,1-.2,1.9v3.8c0,.9.2.9.2,1.9s-.2.9-.2,1.9v1.8c0,.9.2.9.2,1.8s-.2.9-.2,1.8v3.6c0,.9.2.9.2,1.8s-.2.9-.2,1.8.2.9.2,1.9-.2.9-.2,1.9v3.8c0,1,.2,1,.2,1.9v2c0,1-.2,1-.2,2v6.2c0,1.1.2,1.1.2,2.1v13.8c0,1.2-.2,1.2-.2,2.5s.2,1.3.2,2.6v2.6c0,1.3-.2,1.3-.2,2.7v2.8c0,1.4.2,1.4.2,2.9s-.2,1.4-.2,2.9v3c0,1.5.2,1.5.2,3.1V191c0,1.6-.2,1.6-.2,3.3s.2,1.7.2,3.4v3.5c0,1.8-.2,1.8-.2,3,0,1.8.2,1.8.2,3.7s-.2,1.9-.2,3.8v7.1c0,1.2.2,1.2.2,2.3v2.3c0,1.2-.2,1.2-.2,2.3v5c0,.8.2,1.6.2,2.4v7.2c.2,1.2.2,2,.3,2.8s.2,1.6.2,2.4a42661813826100.42,42661813826100.42,0,0,1,.4,4.8c.2.8.2,1.6.4,2.5a16,16,0,0,1,.5,2.1c.2.8.4,1.7.5,2.1.2.8.2,1.6.4,2.5,0,.4-.2,1.2-.2,2a2.37,2.37,0,0,1-.8,1.5c-.2.4-.6.3-.9.3a4.1,4.1,0,0,0-1.1-.1c-.4,0-.7.3-1.1.3s-.7-.5-1.1-.5a74081467515015.25,74081467515015.25,0,0,1-3.3-.3,21166133575727.1,21166133575727.1,0,0,1-2.2-.2c-.4,0-.7-.1-1.1-.1s-.7-.1-1.1-.1-.7-.1-1.1-.1-.7-.1-1.1-.1-.7-.1-1.1-.1-.7-.1-1.1-.1-.7-.1-1.1-.1-.7-.1-1.1-.1-.7-.1-1.1-.1-.7-.1-1.1-.1-.7-.1-1.1-.1-.7-.1-1.1-.1-.7-.1-1.1-.1C539.9,260.6,539.6,260.5,539.4,260.2Z" fill="#fef9ff"/><path d="M588.1,133.2v-1.6a10.62,10.62,0,0,0-.4-1.9,12.26,12.26,0,0,0-.4-1.6,12.86,12.86,0,0,0-.4-1.9,10.55,10.55,0,0,1-.5-1.9,16.25,16.25,0,0,0-.4-1.9c-.2-.6,0-1-.2-1.9-.1-.6-.2-.6-.4-1.5a11.63,11.63,0,0,0-.4-1.8,16.25,16.25,0,0,0-.4-1.9,16.25,16.25,0,0,0-.4-1.9c-.2-.6,0-1-.2-1.6a10.55,10.55,0,0,1-.5-1.9,12.86,12.86,0,0,0-.4-1.9,12.26,12.26,0,0,0-.4-1.6c-.2-.9,0-1.3-.2-1.9a13.32,13.32,0,0,1-.5-1.9,6.8,6.8,0,0,1-.2-2,14.16,14.16,0,0,0-.4-2c-.2-1-.4-.7-.5-1.7a19.14,19.14,0,0,0-.4-2.1c-.2-1,0-1-.2-2.1a15.52,15.52,0,0,0-.4-2.1,12.75,12.75,0,0,1-.4-1.8,17,17,0,0,0-.4-2.2,10.11,10.11,0,0,0-.4-2.3c-.2-1.1,0-1.2-.2-2.3s-.4-1.2-.5-2c-.2-1.1,0-1.2-.2-2.4a18.43,18.43,0,0,1-.5-2.5c-.2-1.3,0-1.3-.2-2.6a23.36,23.36,0,0,0-.4-2.6c-.2-.9-.2-.8-.4-1.8a14.16,14.16,0,0,0-.4-2,14.16,14.16,0,0,0-.4-2,14.16,14.16,0,0,0-.4-2,10.46,10.46,0,0,0-.4-1.7,15.52,15.52,0,0,0-.4-2.1c0-.7-.2-1.4-.2-1.8-.2-.9-.3-1.3-.5-2.2a5.85,5.85,0,0,1-.4-1.9c-.2-.7-.4-1.5-.5-1.9-.2-.8-.2-1.5-.4-2.3a17.32,17.32,0,0,0-.4-2l-.5-2c-.2-1-.3-1.4-.5-2.4a7.21,7.21,0,0,1-.5-2,7.14,7.14,0,0,1-.5-2.1c-.2-.4-.5-1.3-.7-1.7-.3-.6-.2-1.6-.5-2.1s-.5-.8-.9-1.7c-.4-.4-.5-.8-.5-1.7a13.68,13.68,0,0,1,.2-2.8,6.75,6.75,0,0,1,.8-2.4c.2-.5.6-.5.9-.6a148162935029697.38,148162935029697.38,0,0,1,2.2-.2,4.1,4.1,0,0,1,1.1-.1c.4,0,.7-.1,1.1-.1a148162935031963.66,148162935031963.66,0,0,0,2.2-.2,4.1,4.1,0,0,1,1.1-.1,148162935027191.78,148162935027191.78,0,0,1,2.2-.2,148162935031995.06,148162935031995.06,0,0,0,2.2-.2,4.1,4.1,0,0,1,1.1-.1,148162935027176.12,148162935027176.12,0,0,1,2.2-.2,148162935031994.72,148162935031994.72,0,0,0,2.2-.2c.4,0,.6-.1.9-.1a4.1,4.1,0,0,1,1.1-.1c.4,0,.7.4,1.1.3s.7-.6,1.1-.6a4.1,4.1,0,0,1,1.1-.1c.4,0,.7.4,1.1.3.4.5.7.8,1.1,1.3.2.9.2,1.9.4,2.8a13.1,13.1,0,0,1,0,2.8,9.26,9.26,0,0,1-.4,2.3v8.3c0,.9.2,1.7.2,2.5a10,10,0,0,1,.4,2.4c0,.8.2,1.6.2,2.4.2.8.2,1.6.4,2.3a9.26,9.26,0,0,0,.4,2.3c0,.8.2,1.5.2,2.3.2.9.3,1.3.5,2.2,0,.7.2,1.5.2,2.2.2.7.2,1.1.4,1.8a7.12,7.12,0,0,0,.4,2.1,7.84,7.84,0,0,0,.2,2.1c0,1,.2,1,.2,2,.2,1,.2.9.4,1.8,0,1.4.2,1.4.2,2.7A20.24,20.24,0,0,0,599,74c.2,1,.2,1.5.4,2.5a5.89,5.89,0,0,1,.2,2.1A17.16,17.16,0,0,0,600,81a9.74,9.74,0,0,0,.2,2.4,18.46,18.46,0,0,0,.4,2.3c.2.8.2.8.4,1.9s0,1.1.2,2.2a17,17,0,0,0,.4,2.2c0,1.1.2,1.1.2,1.8a13,13,0,0,0,.4,2.1,15.52,15.52,0,0,0,.4,2.1,6.48,6.48,0,0,0,.2,2,11.14,11.14,0,0,0,.2,1.7c.2.9.5,1,.9,1,.6,0,.8-.4.9-1a14.58,14.58,0,0,1,.4-1.7,7.84,7.84,0,0,1,.2-2.1c.2-.8.2-1.3.4-2.1.2-1.1,0-1.1.2-2.1s.4-.7.4-1.8a8.2,8.2,0,0,0,.2-2.2,8.52,8.52,0,0,0,.4-2.3,9.34,9.34,0,0,0,.2-2.3c.2-1.2.2-.8.4-2,.2-1,.2-1.5.4-2.4s.2-1.5.4-2.5a5.89,5.89,0,0,1,.2-2.1c.2-1,.2-1.6.4-2.6.2-1.3,0-1.3.2-2.7.2-1.1.2-1.6.4-2.8.2-.9,0-1.2.2-1.9s.2-1.2.4-2.1a7.84,7.84,0,0,0,.2-2.1c.2-1.1.4-1.1.4-1.8.2-.9.2-1.3.4-2.2a10.11,10.11,0,0,1,.4-2.3,9,9,0,0,0,.2-2.3c.2-.9.3-1.4.6-2.4a9.74,9.74,0,0,1,.2-2.4,9.74,9.74,0,0,0,.2-2.4,10.86,10.86,0,0,0,.4-2.5c0-.8.2-1.7.2-2.5s.2-1.7.2-2.6.2-1.8.2-2.7a12.29,12.29,0,0,0-.2-2.7V30.4a16.19,16.19,0,0,0-.2-3.3A8.81,8.81,0,0,1,613,24a18.53,18.53,0,0,0,.6-2.5c.4-.6.7-1,1.1-1.6.2,0,.6-.6.9-.6a4.1,4.1,0,0,1,1.1-.1c.4-.1.7-.1,1.1-.2s.7-.1,1.1-.2.7-.1,1.1-.2.7-.1,1.1-.2.7-.1,1.1-.2.7-.1,1.1-.2.7-.1,1.1-.2.7-.1,1.1-.2.7-.1,1.1-.2.7-.1,1.1-.2.7-.1,1.1-.2.7-.1,1.1-.2.7-.1,1.1-.2.7-.1,1.1-.2.7-.1,1.1-.2.7-.1,1.1-.2.7-.1,1.1-.2a2.77,2.77,0,0,1,.9-.1c.4-.1.7-.1,1.1-.2s.7-.1,1.1-.2.7.4,1.1.9a7.7,7.7,0,0,1,.7,1.9,15.14,15.14,0,0,1,.2,3,5.51,5.51,0,0,1-.5,2.5c-.4.5-.4,1.3-.7,2a9.65,9.65,0,0,0-.9,2,20.76,20.76,0,0,0-.6,2.4,16.48,16.48,0,0,0-.6,2.4c-.2.5-.4,1.4-.6,1.9A26.14,26.14,0,0,1,636,37a21.78,21.78,0,0,0-.6,2.2c0,.9-.4,1.3-.4,2.2a24.37,24.37,0,0,1-.6,2.6,20,20,0,0,0-.4,2.1c-.2.4-.2,1.6-.4,2.1a16.84,16.84,0,0,1-.6,2.4,17.32,17.32,0,0,0-.4,2,9,9,0,0,0-.2,2.3c-.2,1.1-.2,1.1-.4,1.9a17,17,0,0,1-.4,2.2,17,17,0,0,1-.4,2.2,13,13,0,0,1-.4,2.1c-.1.8-.2,1.3-.4,2.4-.2,1.4-.2,1-.4,2.4a27,27,0,0,1-.4,2.8,25.12,25.12,0,0,1-.4,2.7c-.2,1.3,0,1.3-.2,2.6a15.82,15.82,0,0,1-.4,2.1c-.2,1-.2,1.5-.4,2.5-.2,1.2-.4,1.2-.6,2.5-.2,1-.2,1.4-.4,2.4-.2.8,0,1.2-.2,1.9-.2,1.1-.4,1.2-.6,2.3s0,1.1-.2,2.2c-.2.9-.2,1.3-.4,2.2-.2.7-.2,1.1-.4,2.2s-.2.7-.4,1.8c-.2.8-.2,1.3-.4,2.1s-.2,1.2-.4,2.1,0,1-.2,2-.4.7-.6,1.7,0,1-.2,2-.4,1-.6,2c-.2.8-.2,1.2-.4,2a4.4,4.4,0,0,1-.2,1.6c-.2.8-.2,1.2-.4,1.9a7.19,7.19,0,0,0-.4,1.9c-.2.8-.2,1.2-.4,1.9a9.07,9.07,0,0,0-.4,1.6c-.2.8-.2,1.2-.4,1.9s-.2,1.2-.4,1.9-.2,1.2-.4,2,0,1-.2,2a10.8,10.8,0,0,0-.4,1.7,4.68,4.68,0,0,0-.2,1.7,5,5,0,0,0,.2,1.7,14.16,14.16,0,0,0,.4,2c.2.7,0,1.1.2,2.1.1.7.2.7.4,1.7a15.52,15.52,0,0,0,.4,2.1,17,17,0,0,0,.4,2.2,12.75,12.75,0,0,0,.4,1.8,22.31,22.31,0,0,0,.4,2.3,18.46,18.46,0,0,0,.4,2.3,24,24,0,0,0,.4,2.4,17.32,17.32,0,0,0,.4,2c.2,1.2,0,1.6.2,2.5a21.66,21.66,0,0,0,.4,2.5c.2,1.3.4,1.3.6,2.6s0,1.3.2,2.7a20.69,20.69,0,0,0,.4,2.3,27,27,0,0,0,.4,2.8c.1,1.1.2,1.7.4,2.9s.2,1.8.4,3c.2,1,.1,1.6.4,3.1a24.58,24.58,0,0,1,.4,2.6c.1,1.3.2,1.9.4,3.2s.2,2,.4,3.3c.2,1.7,0,1.7.2,3.4s.4,1.2.6,3a21.74,21.74,0,0,0,.2,3.6c.1,1.5.2,2.2.4,3.7s.2,2.3.4,3.9c.2,2,.4,1.3.6,3.3.1,1.6.2,2.4.4,4.1.2,2.1,0,2.1.2,4.2.1,1.7.2,2.6.4,4.3a15.8,15.8,0,0,0,.4,2.6,23.36,23.36,0,0,0,.4,2.6c.2,1.3,0,1.3.2,2.6s.4,1.3.6,2.6,0,1.3.2,2.2a19.8,19.8,0,0,0,.6,2.6,11.4,11.4,0,0,0,.2,2.6,16.22,16.22,0,0,1,.6,2.2c0,.9.2,1.7.2,2.2a19.8,19.8,0,0,0,.6,2.6,16.22,16.22,0,0,1,.6,2.2c.2.9.2,1.7.4,2.6.2.5.4,1.3.6,1.8a12.87,12.87,0,0,0,.6,2.2c.2.9.2,1.7.4,2.6s.6,1.4.8,2.3a16.22,16.22,0,0,1,.6,2.2c.2.5.8,1,1,1.4.3.6.6,1.4.8,1.8a5.09,5.09,0,0,1,.4,2.2,11.4,11.4,0,0,1-.2,2.6,14.24,14.24,0,0,1-.6,2.1,1.09,1.09,0,0,1-1.2.2c-.4-.1-.8.3-1.2.2s-.8-.6-1.1-.6-.6-.1-1-.2-.8.3-1.1.2-.8-.6-1.1-.6c-.5-.1-.7-.1-1.1-.2s-.7-.1-1.1-.2-.7-.1-1.1-.2-.7-.1-1.1-.2-.7-.1-1.1-.2-.7-.1-1.1-.2-.7-.1-1.1-.2-.7-.1-1.1-.2-.7-.1-1.1-.2-.7-.1-1.1-.2-.8.3-1.1.3-.8-.5-1.1-.6c-.5-.1-.7-.1-1.1-.2s-.7-.1-1.1-.2-.7-.1-1.1-.2-.7-.1-1.1-.2a2.31,2.31,0,0,1-.9-.6c-.5-.6-.7-.9-1.1-1.4a7.8,7.8,0,0,1-.4-2.2,10.44,10.44,0,0,1,0-2.5,10.55,10.55,0,0,0,.2-2.5,12.33,12.33,0,0,0,.2-2.9c0-.8-.2-1.7-.2-2.5v-2.5a44403352397320.89,44403352397320.89,0,0,0-.4-5,12.66,12.66,0,0,0-.4-2.6c0-.8-.2-1.7-.2-2.5a11,11,0,0,1-.2-2.5c-.2-.9-.2-1.7-.4-2.5a11.78,11.78,0,0,1-.4-2.5c-.2-.9-.2-1.7-.4-2.5-.2-1.2-.2-.8-.4-2.1a11,11,0,0,1-.2-2.5,21.66,21.66,0,0,0-.4-2.5,21.66,21.66,0,0,0-.4-2.5,8.1,8.1,0,0,1-.4-2.5v-4.2a29.9,29.9,0,0,1-.4-4.1c-.2-2-.4-1.4-.4-3.3a26.14,26.14,0,0,1-.2-3.9c-.2-1.9-.4-1.9-.6-3.8a21.14,21.14,0,0,0-.2-3.6c-.1-1.2,0-1.8-.2-3.5-.1-1.1-.2-1.2-.4-2.9,0-1.7-.2-1.7-.2-3.3-.1-1.3-.2-2-.4-3.3-.2-1.1-.2-1.1-.4-2.6s0-1.6-.2-3.1,0-1.5-.2-3a19.28,19.28,0,0,1-.4-2.4,23.58,23.58,0,0,0-.4-2.8c0-.9-.4-1.9-.9-1.9s-.8.9-.8,1.8a20.69,20.69,0,0,1-.4,2.3,13.68,13.68,0,0,0-.2,2.9,15.44,15.44,0,0,0-.4,3c-.2,1.2-.2,1.8-.4,3-.2,1.5,0,1.6-.2,3.1a23.35,23.35,0,0,0-.4,2.7c-.2,1.3-.2,2-.4,3.3-.2,1.7,0,1.7-.2,3.4a11.9,11.9,0,0,1-.2,2.9c-.2,1.4-.2,2.1-.4,3.6s-.2,2.2-.4,3.7c-.2,1.9-.2,1.9-.4,3.1a26.14,26.14,0,0,1-.2,3.9,26.8,26.8,0,0,0-.2,4c-.2,1.6-.2,2.4-.4,4.1a7.85,7.85,0,0,1-.4,2.4,9.74,9.74,0,0,1-.2,2.4c-.2,1-.2,1.4-.4,2.4s-.2,1.4-.4,2.4a7.88,7.88,0,0,1-.2,2c-.2.8-.2,1.6-.4,2.4,0,.8-.2,1.6-.2,2.4a21,21,0,0,1-.6,2.4c0,.8-.2,1.6-.2,2.4a9.74,9.74,0,0,0-.2,2.4,10,10,0,0,0-.4,2.4c-.2.8-.2,1.6-.4,2.4a9.74,9.74,0,0,1-.2,2.4,10.45,10.45,0,0,1,0,2.5v5.4a14.31,14.31,0,0,1,.4,2.1,14,14,0,0,1,0,2.9c-.2.4-.2,1.6-.4,2a11.41,11.41,0,0,0-1.1,1.1c-.4-.1-.8.3-1.1.3s-.7-.1-1.1-.2a44448880508837.66,44448880508837.66,0,0,1-3.3-.3c-.4,0-.6-.1-.9-.1a296325870067245.44,296325870067245.44,0,0,1-4.4-.4,18520366878954.85,18520366878954.85,0,0,1-2.2-.2,55561100635662.15,55561100635662.15,0,0,1-3.3-.3,18520366878952.35,18520366878952.35,0,0,1-2.2-.2,55561100635669.69,55561100635669.69,0,0,1-3.3-.3,18520366878953.84,18520366878953.84,0,0,1-2.2-.2.87.87,0,0,1-.9-.5,5.76,5.76,0,0,1-.7-2.1,4.88,4.88,0,0,1,0-2.4,3.61,3.61,0,0,1,.4-2,3.94,3.94,0,0,0,.9-1.1,8,8,0,0,0,.6-2c.3-.6.5-.9.8-1.5a12.43,12.43,0,0,1,.6-2c.2-.9.3-1.4.6-2.4.2-.4.4-1.2.6-1.5a19.48,19.48,0,0,1,.6-2.3,13,13,0,0,1,.6-1.9c0-.8.2-1.6.2-2a19.48,19.48,0,0,1,.6-2.3,7.11,7.11,0,0,1,.4-2,11.51,11.51,0,0,0,.4-2c.2-.8.2-1.6.4-2.4a10.11,10.11,0,0,0,.4-2.3c.2-.8.2-.8.4-1.9.2-.9.2-1.4.4-2.3s.2-1.4.4-2.3.2-1.4.4-2.3c.2-1.2,0-1,.2-3,.2-1.3.2-1.3.4-3.3.2-1.6.2-2.3.4-3.9a24.5,24.5,0,0,0,.4-3.8c.2-1.5.2-2.2.4-3.7a26,26,0,0,0,.6-3c.2-1.8,0-1.8.2-3.5.2-1.4.2-2,.4-3.4s.2-2,.4-3.3c.2-1.6.2-1.1.4-2.7.2-1.3.2-1.9.4-3.1s.2-1.8.4-3,.2-1.8.4-3c.2-1,.2-1,.4-2.4.2-1.1.2-1.7.4-2.8s.2-1.7.4-2.7.2-1.6.4-2.7c.2-.9,0-1.3.2-2.2s.2-1.5.4-2.5.2-1.5.4-2.5.2-1.5.4-2.4.2-1.4.4-2.4c.2-.8.2-.8.4-1.9.2-.9.2-1.4.4-2.3s.2-1.3.4-2.2c.2-.7.2-1.1.4-1.8.2-.9.2-1.3.4-2.1.2-1.1,0-1.1.2-2.1s.4-1,.6-2.1a14.58,14.58,0,0,1,.4-1.7c.2-.8.2-1.2.4-2,.2-1,0-1,.2-2C588.1,134.2,588.1,133.8,588.1,133.2Z" fill="#fef9ff"/></svg>