<svg width="50" height="48" viewBox="0 0 50 48" fill="none" xmlns="http://www.w3.org/2000/svg">
<path d="M35.4165 26L27.0832 44C25.4255 44 23.8358 43.3679 22.6637 42.2426C21.4916 41.1174 20.8332 39.5913 20.8332 38V30H9.04149C8.43751 30.0066 7.83927 29.887 7.28821 29.6496C6.73715 29.4121 6.24645 29.0625 5.85011 28.625C5.45377 28.1874 5.16127 27.6723 4.99286 27.1155C4.82446 26.5586 4.78418 25.9733 4.87482 25.4L7.74982 7.39999C7.90049 6.44618 8.40517 5.57678 9.17085 4.95198C9.93653 4.32718 10.9116 3.98909 11.9165 3.99999H35.4165M35.4165 26V3.99999M35.4165 26H40.979C42.1581 26.02 43.3038 25.6237 44.1986 24.8864C45.0934 24.149 45.6751 23.1219 45.8332 22V7.99999C45.6751 6.87811 45.0934 5.85099 44.1986 5.11363C43.3038 4.37626 42.1581 3.97997 40.979 3.99999H35.4165" stroke="#1E1E1E" stroke-width="4" stroke-linecap="round" stroke-linejoin="round"/>
</svg>
