<svg width="46" height="42" viewBox="0 0 46 42" fill="none" xmlns="http://www.w3.org/2000/svg">
<path d="M2 4.33331V16.8333M2 16.8333H14.5M2 16.8333L11.6667 7.74998C14.5436 4.87793 18.2759 3.01866 22.3014 2.4523C26.3269 1.88594 30.4274 2.64317 33.9851 4.6099C37.5428 6.57663 40.3649 9.64632 42.0263 13.3564C43.6877 17.0666 44.0983 21.2161 43.1963 25.1799C42.2943 29.1437 40.1285 32.7069 37.0253 35.3328C33.922 37.9587 30.0495 39.5049 25.9911 39.7385C21.9327 39.972 17.9083 38.8803 14.5243 36.6278C11.1403 34.3754 8.57999 31.0841 7.22917 27.25" stroke="#1E1E1E" stroke-width="4" stroke-linecap="round" stroke-linejoin="round"/>
</svg>
