<svg width="46" height="42" viewBox="0 0 46 42" fill="none" xmlns="http://www.w3.org/2000/svg">
<path d="M43.6583 4.07929V16.5793M43.6583 16.5793H31.1583M43.6583 16.5793L34.0125 7.49596C31.1387 4.62041 27.4083 2.75676 23.3832 2.18584C19.3581 1.61492 15.2565 2.36766 11.6965 4.33062C8.13648 6.29359 5.31088 9.36044 3.64549 13.069C1.98011 16.7776 1.56517 20.927 2.46321 24.8919C3.36124 28.8568 5.5236 32.4225 8.62443 35.0515C11.7253 37.6806 15.5966 39.2306 19.655 39.468C23.7134 39.7054 27.739 38.6174 31.1253 36.3678C34.5115 34.1183 37.0749 30.8291 38.4291 26.996" stroke="#1E1E1E" stroke-width="4" stroke-linecap="round" stroke-linejoin="round"/>
</svg>
